<svg width="18" height="18" viewBox="0 0 18 18" fill="none" xmlns="http://www.w3.org/2000/svg">
<g clip-path="url(#clip0_1176_285)">
<path d="M13.8467 3.25C14.3036 3.2501 14.6727 3.60969 14.6953 4.05566V4.14648L14.6465 5.04102L14.6074 5.75H2.40137L2.35156 5.05371L2.28711 4.16113C2.25176 3.66898 2.64135 3.25001 3.13477 3.25H13.8467Z" stroke="#5E2AB9" stroke-width="1.5"/>
<mask id="mask0_1176_285" style="mask-type:alpha" maskUnits="userSpaceOnUse" x="-1" y="6" width="18" height="10">
<path d="M-1 6H17V16H10L8.5 12L7 16H-1V6Z" fill="#D9D9D9"/>
</mask>
<g mask="url(#mask0_1176_285)">
<path d="M9.19636 10.2785C9.35019 9.89396 9.16313 9.45748 8.77854 9.30364C8.39396 9.14981 7.95748 9.33687 7.80364 9.72146L9.19636 10.2785ZM6.5 15L7.19636 15.2785L9.19636 10.2785L8.5 10L7.80364 9.72146L5.80364 14.7215L6.5 15Z" fill="#5E2AB9"/>
<path d="M9.19636 9.72146C9.04252 9.33687 8.60604 9.14981 8.22146 9.30364C7.83687 9.45748 7.64981 9.89396 7.80364 10.2785L9.19636 9.72146ZM10.5 15L11.1964 14.7215L9.19636 9.72146L8.5 10L7.80364 10.2785L9.80364 15.2785L10.5 15Z" fill="#5E2AB9"/>
<path d="M14.1455 3.25L14.2422 3.88867L15.7246 13.7734C15.8017 14.2874 15.4034 14.75 14.8838 14.75H2.11621C1.59654 14.75 1.1983 14.2873 1.27539 13.7734L2.75781 3.88867L2.85449 3.25H14.1455Z" stroke="#5E2AB9" stroke-width="1.5"/>
</g>
</g>
<defs>
<clipPath id="clip0_1176_285">
<rect width="18" height="18" fill="white"/>
</clipPath>
</defs>
</svg>
