<svg width="24" height="24" viewBox="0 0 24 24" fill="none" xmlns="http://www.w3.org/2000/svg">
<g clip-path="url(#clip0_7558_53110)">
<mask id="path-1-outside-1_7558_53110" maskUnits="userSpaceOnUse" x="1" y="1.5" width="22" height="22" fill="black">
<rect fill="white" x="1" y="1.5" width="22" height="22"/>
<path fill-rule="evenodd" clip-rule="evenodd" d="M6 3.5C4.34315 3.5 3 4.84315 3 6.5V15.5C3 17.1569 4.34315 18.5 6 18.5H9L11.6464 21.1464C11.8417 21.3417 12.1583 21.3417 12.3536 21.1464L15 18.5H18C19.6569 18.5 21 17.1569 21 15.5V6.5C21 4.84315 19.6569 3.5 18 3.5H6Z"/>
</mask>
<path d="M9 18.5L10.4142 17.0858L9.82843 16.5H9V18.5ZM11.6464 21.1464L13.0607 19.7322L13.0607 19.7322L11.6464 21.1464ZM12.3536 21.1464L10.9393 19.7322L10.9393 19.7322L12.3536 21.1464ZM15 18.5V16.5H14.1716L13.5858 17.0858L15 18.5ZM5 6.5C5 5.94772 5.44772 5.5 6 5.5V1.5C3.23858 1.5 1 3.73858 1 6.5H5ZM5 15.5V6.5H1V15.5H5ZM6 16.5C5.44772 16.5 5 16.0523 5 15.5H1C1 18.2614 3.23858 20.5 6 20.5V16.5ZM9 16.5H6V20.5H9V16.5ZM13.0607 19.7322L10.4142 17.0858L7.58579 19.9142L10.2322 22.5607L13.0607 19.7322ZM10.9393 19.7322C11.5251 19.1464 12.4749 19.1464 13.0607 19.7322L10.2322 22.5607C11.2085 23.537 12.7915 23.537 13.7678 22.5607L10.9393 19.7322ZM13.5858 17.0858L10.9393 19.7322L13.7678 22.5607L16.4142 19.9142L13.5858 17.0858ZM18 16.5H15V20.5H18V16.5ZM19 15.5C19 16.0523 18.5523 16.5 18 16.5V20.5C20.7614 20.5 23 18.2614 23 15.5H19ZM19 6.5V15.5H23V6.5H19ZM18 5.5C18.5523 5.5 19 5.94772 19 6.5H23C23 3.73858 20.7614 1.5 18 1.5V5.5ZM6 5.5H18V1.5H6V5.5Z" fill="#AEB5BC" mask="url(#path-1-outside-1_7558_53110)"/>
<path d="M7 14H14" stroke="#AEB5BC" stroke-width="2" stroke-linecap="round" stroke-linejoin="round"/>
<path d="M7 9H17" stroke="#AEB5BC" stroke-width="2" stroke-linecap="round" stroke-linejoin="round"/>
</g>
<defs>
<clipPath id="clip0_7558_53110">
<rect width="24" height="24" fill="white"/>
</clipPath>
</defs>
</svg>
