<svg width="24" height="24" viewBox="0 0 24 24" fill="none" xmlns="http://www.w3.org/2000/svg">
<path fill-rule="evenodd" clip-rule="evenodd" d="M3.79123 9.22734L12 3L20.2088 9.22734C20.7072 9.60548 21 10.1951 21 10.8207V19.4896C21 20.0419 20.5523 20.4896 20 20.4896H14.0822V22.4896H20C21.6569 22.4896 23 21.1465 23 19.4896V10.8207C23 9.56943 22.4144 8.39023 21.4175 7.63396L13.2088 1.40662C12.4941 0.864461 11.5059 0.864461 10.7912 1.40662L2.58245 7.63396C1.58556 8.39023 1 9.56943 1 10.8207V19.4896C1 21.1465 2.34315 22.4896 4 22.4896H9.31641V20.4896H4C3.44772 20.4896 3 20.0419 3 19.4896V10.8207C3 10.1951 3.29278 9.60548 3.79123 9.22734Z" fill="#AEB5BC"/>
<mask id="mask0_7558_53109" style="mask-type:alpha" maskUnits="userSpaceOnUse" x="8" y="12" width="8" height="11">
<rect x="8" y="12.5" width="8" height="10" fill="#D9D9D9"/>
</mask>
<g mask="url(#mask0_7558_53109)">
<path d="M9 17.5C9 15.8431 10.3431 14.5 12 14.5C13.6569 14.5 15 15.8431 15 17.5V24.5C15 26.1569 13.6569 27.5 12 27.5C10.3431 27.5 9 26.1569 9 24.5V17.5Z" stroke="#AEB5BC" stroke-width="2" stroke-linejoin="round"/>
</g>
</svg>
