<svg width="24" height="24" viewBox="0 0 24 24" fill="none" xmlns="http://www.w3.org/2000/svg">
<mask id="path-1-inside-1_7558_53112" fill="white">
<path fill-rule="evenodd" clip-rule="evenodd" d="M1.5 6C1.5 3.79086 3.29086 2 5.5 2H18.5C20.7091 2 22.5 3.79086 22.5 6V18C22.5 20.2091 20.7091 22 18.5 22H5.5C3.29086 22 1.5 20.2091 1.5 18V6ZM6 12C6 11.4477 6.44772 11 7 11H11V7C11 6.44772 11.4477 6 12 6C12.5523 6 13 6.44772 13 7V11H17C17.5523 11 18 11.4477 18 12C18 12.5523 17.5523 13 17 13H13V17C13 17.5523 12.5523 18 12 18C11.4477 18 11 17.5523 11 17V13H7C6.44772 13 6 12.5523 6 12Z"/>
</mask>
<path fill-rule="evenodd" clip-rule="evenodd" d="M1.5 6C1.5 3.79086 3.29086 2 5.5 2H18.5C20.7091 2 22.5 3.79086 22.5 6V18C22.5 20.2091 20.7091 22 18.5 22H5.5C3.29086 22 1.5 20.2091 1.5 18V6ZM6 12C6 11.4477 6.44772 11 7 11H11V7C11 6.44772 11.4477 6 12 6C12.5523 6 13 6.44772 13 7V11H17C17.5523 11 18 11.4477 18 12C18 12.5523 17.5523 13 17 13H13V17C13 17.5523 12.5523 18 12 18C11.4477 18 11 17.5523 11 17V13H7C6.44772 13 6 12.5523 6 12Z" fill="#212529"/>
<path d="M11 11V13H13V11H11ZM13 11H11V13H13V11ZM13 13V11H11V13H13ZM11 13H13V11H11V13ZM5.5 0C2.18629 0 -0.5 2.68629 -0.5 6H3.5C3.5 4.89543 4.39543 4 5.5 4V0ZM18.5 0H5.5V4H18.5V0ZM24.5 6C24.5 2.68629 21.8137 0 18.5 0V4C19.6046 4 20.5 4.89543 20.5 6H24.5ZM24.5 18V6H20.5V18H24.5ZM18.5 24C21.8137 24 24.5 21.3137 24.5 18H20.5C20.5 19.1046 19.6046 20 18.5 20V24ZM5.5 24H18.5V20H5.5V24ZM-0.5 18C-0.5 21.3137 2.18629 24 5.5 24V20C4.39543 20 3.5 19.1046 3.5 18H-0.5ZM-0.5 6V18H3.5V6H-0.5ZM7 9C5.34315 9 4 10.3431 4 12H8C8 12.5523 7.55228 13 7 13V9ZM11 9H7V13H11V9ZM13 11V7H9V11H13ZM13 7C13 7.55228 12.5523 8 12 8V4C10.3431 4 9 5.34315 9 7H13ZM12 8C11.4477 8 11 7.55228 11 7H15C15 5.34315 13.6569 4 12 4V8ZM11 7V11H15V7H11ZM17 9H13V13H17V9ZM20 12C20 10.3431 18.6569 9 17 9V13C16.4477 13 16 12.5523 16 12H20ZM17 15C18.6569 15 20 13.6569 20 12H16C16 11.4477 16.4477 11 17 11V15ZM13 15H17V11H13V15ZM11 13V17H15V13H11ZM11 17C11 16.4477 11.4477 16 12 16V20C13.6569 20 15 18.6569 15 17H11ZM12 16C12.5523 16 13 16.4477 13 17H9C9 18.6569 10.3431 20 12 20V16ZM13 17V13H9V17H13ZM7 15H11V11H7V15ZM4 12C4 13.6569 5.34315 15 7 15V11C7.55228 11 8 11.4477 8 12H4Z" fill="#212529" mask="url(#path-1-inside-1_7558_53112)"/>
</svg>
