<svg width="40" height="40" viewBox="0 0 40 40" fill="none" xmlns="http://www.w3.org/2000/svg">
<rect width="40" height="40" rx="20" fill="#F4F5F6"/>
<path d="M19.6982 28.1848C18.2763 28.1839 16.913 27.6178 15.9076 26.6111C14.9022 25.6043 14.3369 24.2392 14.3359 22.8154C14.3359 22.4738 14.4715 22.1462 14.7127 21.9046C14.9539 21.663 15.2811 21.5273 15.6223 21.5273C15.9635 21.5273 16.2906 21.663 16.5319 21.9046C16.7731 22.1462 16.9086 22.4738 16.9086 22.8154C16.9086 23.5562 17.2025 24.2667 17.7257 24.7906C18.2488 25.3144 18.9583 25.6087 19.6982 25.6087C20.438 25.6087 21.1475 25.3144 21.6707 24.7906C22.1938 24.2667 22.4877 23.5562 22.4877 22.8154C22.4877 22.4738 22.6232 22.1462 22.8645 21.9046C23.1057 21.663 23.4329 21.5273 23.7741 21.5273C24.1152 21.5273 24.4424 21.663 24.6837 21.9046C24.9249 22.1462 25.0604 22.4738 25.0604 22.8154C25.0585 24.2389 24.4929 25.6035 23.4877 26.61C22.4825 27.6166 21.1197 28.1829 19.6982 28.1848Z" fill="#212529"/>
<path d="M27.7121 14.1933C28.4226 14.1933 28.9985 13.6166 28.9985 12.9053C28.9985 12.1939 28.4226 11.6172 27.7121 11.6172C27.0017 11.6172 26.4258 12.1939 26.4258 12.9053C26.4258 13.6166 27.0017 14.1933 27.7121 14.1933Z" fill="#6C47FF"/>
<path d="M19.6982 22.2389C18.6376 22.2389 17.6009 21.924 16.7191 21.334C15.8373 20.7439 15.15 19.9054 14.7441 18.9242C14.3383 17.9431 14.2321 16.8635 14.439 15.8219C14.6459 14.7803 15.1566 13.8236 15.9065 13.0727C16.6564 12.3217 17.6119 11.8104 18.6521 11.6032C19.6922 11.396 20.7704 11.5023 21.7502 11.9087C22.73 12.3151 23.5675 13.0033 24.1567 13.8863C24.7459 14.7693 25.0604 15.8075 25.0604 16.8694C25.0604 17.211 24.9249 17.5387 24.6837 17.7802C24.4424 18.0218 24.1152 18.1575 23.7741 18.1575C23.4329 18.1575 23.1057 18.0218 22.8645 17.7802C22.6233 17.5387 22.4877 17.211 22.4877 16.8694C22.4877 16.317 22.3241 15.7769 22.0176 15.3176C21.7111 14.8582 21.2754 14.5002 20.7657 14.2888C20.256 14.0774 19.6951 14.022 19.154 14.1298C18.6129 14.2376 18.1158 14.5036 17.7257 14.8943C17.3356 15.2849 17.0699 15.7826 16.9622 16.3245C16.8546 16.8663 16.9099 17.428 17.121 17.9384C17.3321 18.4488 17.6897 18.885 18.1484 19.192C18.6071 19.4989 19.1465 19.6627 19.6982 19.6627C20.0393 19.6627 20.3665 19.7984 20.6078 20.04C20.849 20.2815 20.9845 20.6092 20.9845 20.9508C20.9845 21.2924 20.849 21.62 20.6078 21.8616C20.3665 22.1031 20.0393 22.2389 19.6982 22.2389Z" fill="#212529"/>
</svg>
