<svg width="40" height="40" viewBox="0 0 40 40" fill="none" xmlns="http://www.w3.org/2000/svg">
<rect width="40" height="40" rx="20" fill="#6C47FF"/>
<path d="M15.8043 21.6408L15.8043 21.6408L12.5504 18.4813C12.4611 18.3946 12.5102 18.2431 12.6334 18.2253L17.1341 17.5738C17.4433 17.5291 17.7106 17.3352 17.8493 17.0553L17.8493 17.0553L19.8656 12.9857C19.9207 12.8745 20.0793 12.8745 20.1344 12.9857L22.1507 17.0553C22.2894 17.3352 22.5568 17.5291 22.8659 17.5738L27.3666 18.2253C27.4898 18.2431 27.5389 18.3946 27.4496 18.4813L24.1957 21.6408C24.1957 21.6408 24.1957 21.6408 24.1957 21.6408C23.9707 21.8592 23.8681 22.1746 23.9213 22.4835L24.6902 26.9496C24.7113 27.072 24.5829 27.1656 24.4728 27.1079L20.4407 24.9963C20.1647 24.8518 19.8353 24.8518 19.5593 24.9963L15.5272 27.1079C15.4171 27.1656 15.2887 27.072 15.3098 26.9496L16.0787 22.4835C16.1319 22.1745 16.0292 21.8592 15.8043 21.6408Z" stroke="white" stroke-width="1.7"/>
</svg>
