<svg width="375" height="80" viewBox="0 0 375 80" fill="none" xmlns="http://www.w3.org/2000/svg">
<mask id="mask0_5148_18505" style="mask-type:alpha" maskUnits="userSpaceOnUse" x="0" y="0" width="375" height="80">
<path d="M0 0H375V80H0V0Z" fill="#FCF0F6"/>
</mask>
<g mask="url(#mask0_5148_18505)">
<mask id="mask1_5148_18505" style="mask-type:alpha" maskUnits="userSpaceOnUse" x="0" y="0" width="375" height="80">
<path d="M0 0H375V80H0V0Z" fill="#FCF0F6"/>
</mask>
<g mask="url(#mask1_5148_18505)">
<path d="M0 0H375V80H0V0Z" fill="#E9FEE8"/>
<g opacity="0.8">
<path fill-rule="evenodd" clip-rule="evenodd" d="M347.607 107.6H362.976C368.282 107.6 372.583 111.901 372.583 117.206C372.583 122.512 368.282 126.813 362.976 126.813H313.021C307.715 126.813 303.414 122.512 303.414 117.206C303.414 111.901 307.715 107.6 313.021 107.6H328.393L328.393 66.5072C328.393 61.2015 332.694 56.9004 338 56.9004C343.305 56.9004 347.607 61.2015 347.607 66.5072L347.607 107.6Z" fill="#4BAF67"/>
<circle cx="278.571" cy="27.0021" r="18.5714" fill="#4BAF67"/>
<g filter="url(#filter0_b_5148_18505)">
<path d="M278.57 3.3479C278.57 -10.2555 289.598 -21.2832 303.201 -21.2832H372.794C386.397 -21.2832 397.425 -10.2555 397.425 3.34789V38.1442C397.425 70.965 370.819 97.5716 337.998 97.5716C305.177 97.5716 278.57 70.9651 278.57 38.1442V3.3479Z" fill="url(#paint0_linear_5148_18505)"/>
</g>
<path d="M334.676 14.4569C336.116 11.842 339.874 11.842 341.314 14.4569L346.445 23.773C346.989 24.7604 347.944 25.4544 349.052 25.6665L359.497 27.6678C362.429 28.2295 363.591 31.8034 361.549 33.9813L354.274 41.7402C353.503 42.5626 353.138 43.6855 353.279 44.804L354.603 55.357C354.975 58.319 351.935 60.5279 349.233 59.2589L339.606 54.7381C338.585 54.259 337.405 54.259 336.384 54.7381L326.757 59.2589C324.055 60.5279 321.015 58.319 321.386 55.357L322.711 44.804C322.851 43.6855 322.487 42.5626 321.716 41.7402L314.441 33.9813C312.399 31.8034 313.561 28.2295 316.493 27.6678L326.938 25.6665C328.045 25.4544 329.001 24.7604 329.544 23.773L334.676 14.4569Z" fill="white" fill-opacity="0.8"/>
</g>
</g>
<path d="M50.3281 51.1094H47.7031V29.8984H50.3281V51.1094ZM38.9141 31.4453C39.9766 31.4453 40.9219 31.7539 41.75 32.3711C42.5859 32.9805 43.2422 33.8516 43.7188 34.9844C44.1953 36.1094 44.4375 37.4219 44.4453 38.9219C44.4375 40.4297 44.1953 41.75 43.7188 42.8828C43.25 44.0156 42.5977 44.8906 41.7617 45.5078C40.9258 46.1172 39.9766 46.4219 38.9141 46.4219C37.8438 46.4219 36.8906 46.1172 36.0547 45.5078C35.2188 44.8906 34.5625 44.0156 34.0859 42.8828C33.6172 41.75 33.3828 40.4297 33.3828 38.9219C33.3828 37.4219 33.6172 36.1094 34.0859 34.9844C34.5625 33.8516 35.2188 32.9805 36.0547 32.3711C36.8906 31.7539 37.8438 31.4453 38.9141 31.4453ZM38.9141 33.7891C38.3125 33.7891 37.7812 33.9922 37.3203 34.3984C36.8672 34.8047 36.5156 35.3945 36.2656 36.168C36.0156 36.9414 35.8906 37.8594 35.8906 38.9219C35.8906 39.9922 36.0156 40.9141 36.2656 41.6875C36.5156 42.4609 36.8672 43.0547 37.3203 43.4688C37.7812 43.875 38.3125 44.0781 38.9141 44.0781C39.5078 44.0781 40.0312 43.875 40.4844 43.4688C40.9375 43.0547 41.2891 42.4609 41.5391 41.6875C41.7891 40.9141 41.9141 39.9922 41.9141 38.9219C41.9141 37.8594 41.7891 36.9453 41.5391 36.1797C41.2891 35.4062 40.9375 34.8164 40.4844 34.4102C40.0312 33.9961 39.5078 33.7891 38.9141 33.7891ZM78.4531 41.7344H70.0625V43.5039C71.9766 43.6289 73.4609 44.0156 74.5156 44.6641C75.5703 45.3047 76.1016 46.1719 76.1094 47.2656C76.1016 48.0703 75.8047 48.7578 75.2188 49.3281C74.6328 49.8984 73.793 50.3281 72.6992 50.6172C71.6055 50.9141 70.2969 51.0625 68.7734 51.0625C67.2344 51.0625 65.9102 50.9141 64.8008 50.6172C63.6992 50.3281 62.8555 49.8984 62.2695 49.3281C61.6836 48.7578 61.3906 48.0703 61.3906 47.2656C61.3906 46.1719 61.9219 45.3008 62.9844 44.6523C64.0469 44.0039 65.5469 43.6211 67.4844 43.5039V41.7344H59.1406V39.625H78.4531V41.7344ZM68.7734 45.4609C67.2188 45.4766 66.0391 45.6367 65.2344 45.9414C64.4297 46.2383 64.0312 46.6797 64.0391 47.2656C64.0312 47.8516 64.4297 48.3008 65.2344 48.6133C66.0469 48.918 67.2266 49.0703 68.7734 49.0703C70.2891 49.0703 71.4531 48.918 72.2656 48.6133C73.0859 48.3008 73.5 47.8516 73.5078 47.2656C73.5 46.6875 73.0898 46.2461 72.2773 45.9414C71.4648 45.6367 70.2969 45.4766 68.7734 45.4609ZM76.7188 32.9219H70.6133C70.7539 33.5078 71.1211 34.0586 71.7148 34.5742C72.3164 35.0898 73.1133 35.5273 74.1055 35.8867C75.1055 36.2461 76.25 36.4844 77.5391 36.6016L76.625 38.6641C74.7188 38.4688 73.0781 38.0117 71.7031 37.293C70.3281 36.5742 69.3516 35.6758 68.7734 34.5977C68.1953 35.6758 67.2227 36.5781 65.8555 37.3047C64.4961 38.0234 62.8672 38.4766 60.9688 38.6641L60.0781 36.6016C61.3359 36.4844 62.457 36.2461 63.4414 35.8867C64.4258 35.5273 65.2188 35.0898 65.8203 34.5742C66.4219 34.0508 66.7969 33.5 66.9453 32.9219H60.8984V30.8359H76.7188V32.9219ZM98.1641 51.0859H95.6562V29.8984H98.1641V51.0859ZM93.8047 50.0547H91.3203V39.9766H89.3047C89.2266 41.3438 88.9844 42.5312 88.5781 43.5391C88.1797 44.5391 87.6445 45.3086 86.9727 45.8477C86.3008 46.3789 85.5312 46.6406 84.6641 46.6328C83.75 46.6406 82.9453 46.3398 82.25 45.7305C81.5625 45.1133 81.0312 44.2344 80.6562 43.0938C80.2812 41.9453 80.0938 40.6016 80.0938 39.0625C80.0938 37.5234 80.2812 36.1875 80.6562 35.0547C81.0312 33.9141 81.5625 33.0391 82.25 32.4297C82.9453 31.8203 83.75 31.5156 84.6641 31.5156C85.5156 31.5156 86.2695 31.7695 86.9258 32.2773C87.5898 32.7852 88.1211 33.5156 88.5195 34.4688C88.9258 35.4219 89.1797 36.5547 89.2812 37.8672H91.3203V30.2734H93.8047V50.0547ZM84.6641 33.9766C84.2188 33.9688 83.832 34.1602 83.5039 34.5508C83.1758 34.9414 82.9258 35.5195 82.7539 36.2852C82.582 37.0508 82.5 37.9766 82.5078 39.0625C82.5 40.1484 82.582 41.0742 82.7539 41.8398C82.9258 42.6055 83.1758 43.1836 83.5039 43.5742C83.832 43.9648 84.2188 44.1562 84.6641 44.1484C85.375 44.1641 85.9258 43.7305 86.3164 42.8477C86.7148 41.9648 86.9141 40.7031 86.9141 39.0625C86.9141 37.4219 86.7148 36.1602 86.3164 35.2773C85.9258 34.3945 85.375 33.9609 84.6641 33.9766ZM124.203 51.0625H121.555V46.2344H117.055V44.2422H121.555V29.9219H124.203V51.0625ZM106.906 40.8438C109.773 40.8281 112.215 40.7891 114.23 40.7266C116.246 40.6641 118.203 40.5312 120.102 40.3281L120.266 42.25C118.492 42.4922 116.523 42.6797 114.359 42.8125V50.4297H111.734V42.9297C110.281 42.9766 108.555 43 106.555 43L106.227 40.8438H106.906ZM118.578 38.8516H108.008V31H118.578V38.8516ZM110.586 36.7891H116.023V33.0859H110.586V36.7891ZM140.305 32.1016C140.297 33 140.484 33.8516 140.867 34.6562C141.25 35.4609 141.816 36.168 142.566 36.7773C143.316 37.3867 144.227 37.8516 145.297 38.1719L143.961 40.1875C142.812 39.8281 141.824 39.293 140.996 38.582C140.168 37.8711 139.52 37.0273 139.051 36.0508C138.574 37.168 137.891 38.1289 137 38.9336C136.117 39.7383 135.055 40.3438 133.812 40.75L132.523 38.6875C133.633 38.3359 134.574 37.832 135.348 37.1758C136.121 36.5117 136.703 35.7461 137.094 34.8789C137.492 34.0117 137.695 33.0859 137.703 32.1016V30.6484H140.305V32.1016ZM149.469 34.2109H152.422V36.3438H149.469V40.8438H146.867V29.8984H149.469V34.2109ZM149.469 47.1719H138.219V48.8359H150.125V50.8984H135.641V45.2734H146.867V43.7266H135.617V41.7109H149.469V47.1719ZM170.398 38.3594H173.328V40.5156H170.398V51.0859H167.773V29.8984H170.398V38.3594ZM159.852 32.125C159.844 34.1641 159.711 35.9961 159.453 37.6211C159.203 39.2383 158.742 40.793 158.07 42.2852C157.398 43.7695 156.453 45.1719 155.234 46.4922L153.195 45.0156C154.164 43.9844 154.941 42.918 155.527 41.8164C156.121 40.707 156.559 39.543 156.84 38.3242C157.121 37.1055 157.297 35.75 157.367 34.2578H154.039V32.125H159.852ZM165.711 32.125C165.703 34.2969 165.586 36.2617 165.359 38.0195C165.141 39.7695 164.707 41.4844 164.059 43.1641C163.41 44.8359 162.484 46.3984 161.281 47.8516L159.195 46.4219C160.164 45.2656 160.934 44.0508 161.504 42.7773C162.082 41.4961 162.5 40.1719 162.758 38.8047C163.016 37.4297 163.176 35.9141 163.238 34.2578H160.555V32.125H165.711Z" fill="#437E3E"/>
</g>
<defs>
<filter id="filter0_b_5148_18505" x="259.623" y="-40.2302" width="156.746" height="156.748" filterUnits="userSpaceOnUse" color-interpolation-filters="sRGB">
<feFlood flood-opacity="0" result="BackgroundImageFix"/>
<feGaussianBlur in="BackgroundImageFix" stdDeviation="9.4735"/>
<feComposite in2="SourceAlpha" operator="in" result="effect1_backgroundBlur_5148_18505"/>
<feBlend mode="normal" in="SourceGraphic" in2="effect1_backgroundBlur_5148_18505" result="shape"/>
</filter>
<linearGradient id="paint0_linear_5148_18505" x1="337.998" y1="11.306" x2="336.081" y2="107.157" gradientUnits="userSpaceOnUse">
<stop stop-color="#81E18A" stop-opacity="0.28"/>
<stop offset="1" stop-color="#52D084"/>
</linearGradient>
</defs>
</svg>
