<svg width="375" height="80" viewBox="0 0 375 80" fill="none" xmlns="http://www.w3.org/2000/svg">
<mask id="mask0_5148_18468" style="mask-type:alpha" maskUnits="userSpaceOnUse" x="0" y="0" width="375" height="80">
<path d="M0 0H375V80H0V0Z" fill="#FCF0F6"/>
</mask>
<g mask="url(#mask0_5148_18468)">
<mask id="mask1_5148_18468" style="mask-type:alpha" maskUnits="userSpaceOnUse" x="0" y="0" width="375" height="80">
<path d="M0 0H375V80H0V0Z" fill="#FCF0F6"/>
</mask>
<g mask="url(#mask1_5148_18468)">
<path d="M0 0H375V80H0V0Z" fill="#FCF0F6"/>
<g opacity="0.8">
<rect width="81.7143" height="26" rx="13" transform="matrix(0.774282 0.632841 -0.621333 0.783547 351.062 46.001)" fill="#FC325B"/>
<g filter="url(#filter0_b_5148_18468)">
<circle cx="328.703" cy="40.4287" r="65" fill="url(#paint0_linear_5148_18468)"/>
</g>
<circle cx="328.701" cy="40.4294" r="19.6466" stroke="white" stroke-opacity="0.8" stroke-width="16.4211"/>
</g>
</g>
<path d="M40.3203 34.2344C40.3203 35.0078 40.5117 35.75 40.8945 36.4609C41.2773 37.1719 41.8477 37.8047 42.6055 38.3594C43.3633 38.9141 44.2812 39.3359 45.3594 39.625L44.1875 41.6172C42.9844 41.3047 41.9453 40.8164 41.0703 40.1523C40.2031 39.4805 39.5273 38.6836 39.043 37.7617C38.5664 38.7695 37.8828 39.6406 36.9922 40.375C36.1094 41.1094 35.0547 41.6562 33.8281 42.0156L32.5859 39.9531C33.6719 39.6641 34.6016 39.2305 35.375 38.6523C36.1484 38.0742 36.7305 37.4023 37.1211 36.6367C37.5195 35.8711 37.7188 35.0703 37.7188 34.2344V34.1641H33.2891V32.1016H37.7188V29.8047H40.3438V32.1016H44.75V34.1641H40.3203V34.2344ZM49.4141 34.8203H52.3672V36.9766H49.4141V42.0391H46.8125V29.8984H49.4141V34.8203ZM49.7188 45.1094H44.1172C44.2812 45.7031 44.6484 46.2656 45.2188 46.7969C45.7969 47.3281 46.5469 47.793 47.4688 48.1914C48.3906 48.582 49.4375 48.8594 50.6094 49.0234L49.6719 51.0156C48.0312 50.7812 46.6016 50.332 45.3828 49.668C44.1641 49.0039 43.2422 48.1836 42.6172 47.207C42 48.168 41.0859 48.9766 39.875 49.6328C38.6719 50.2891 37.2578 50.7344 35.6328 50.9688L34.6719 49C35.8594 48.8359 36.9102 48.5625 37.8242 48.1797C38.7461 47.7969 39.4883 47.3438 40.0508 46.8203C40.6211 46.2891 40.9883 45.7188 41.1523 45.1094H35.5391V43.0234H49.7188V45.1094ZM59.1406 31.4453C60.2031 31.4453 61.1484 31.7539 61.9766 32.3711C62.8047 32.9805 63.4531 33.8516 63.9219 34.9844C64.3984 36.1094 64.6406 37.4219 64.6484 38.9219C64.6406 40.4375 64.3984 41.7617 63.9219 42.8945C63.4531 44.0273 62.8047 44.8984 61.9766 45.5078C61.1484 46.1172 60.2031 46.4219 59.1406 46.4219C58.0703 46.4219 57.1172 46.1172 56.2812 45.5078C55.4453 44.8906 54.793 44.0156 54.3242 42.8828C53.8555 41.75 53.625 40.4297 53.6328 38.9219C53.625 37.4297 53.8555 36.1172 54.3242 34.9844C54.793 33.8516 55.4453 32.9805 56.2812 32.3711C57.1172 31.7539 58.0703 31.4453 59.1406 31.4453ZM59.1406 33.7891C58.5469 33.7891 58.0234 33.9961 57.5703 34.4102C57.1172 34.8164 56.7656 35.4062 56.5156 36.1797C56.2656 36.9453 56.1406 37.8594 56.1406 38.9219C56.1406 39.9922 56.2656 40.9141 56.5156 41.6875C56.7656 42.4609 57.1172 43.0547 57.5703 43.4688C58.0234 43.875 58.5469 44.0781 59.1406 44.0781C59.7422 44.0781 60.2695 43.875 60.7227 43.4688C61.1758 43.0547 61.5234 42.4609 61.7656 41.6875C62.0156 40.9141 62.1406 39.9922 62.1406 38.9219C62.1406 37.8594 62.0156 36.9414 61.7656 36.168C61.5234 35.3945 61.1758 34.8047 60.7227 34.3984C60.2695 33.9922 59.7422 33.7891 59.1406 33.7891ZM70.0391 38.0312H73.2969V40.2344H70.0391V51.0859H67.4375V29.8984H70.0391V38.0312ZM93.5 43.8203H85.0859V51.0625H82.5078V43.8203H74.1875V41.7109H93.5V43.8203ZM91.7188 33.1562H85.3555C85.4102 33.9297 85.7422 34.6758 86.3516 35.3945C86.9609 36.1055 87.7969 36.7148 88.8594 37.2227C89.9219 37.7305 91.1328 38.0703 92.4922 38.2422L91.5547 40.2812C89.7578 40.0312 88.1836 39.5156 86.832 38.7344C85.4883 37.9531 84.4922 36.9844 83.8438 35.8281C83.1953 36.9766 82.1992 37.9453 80.8555 38.7344C79.5117 39.5156 77.9531 40.0312 76.1797 40.2812L75.1953 38.2422C76.5469 38.0703 77.75 37.7305 78.8047 37.2227C79.8672 36.7148 80.7031 36.1055 81.3125 35.3945C81.9297 34.6758 82.2695 33.9297 82.332 33.1562H75.9688V31.0938H91.7188V33.1562ZM101.539 35.4531C101.539 36.6406 101.68 37.793 101.961 38.9102C102.25 40.0273 102.699 41.0508 103.309 41.9805C103.918 42.9102 104.68 43.6641 105.594 44.2422L104.164 46.2344C103.242 45.6797 102.461 44.9375 101.82 44.0078C101.18 43.0703 100.676 41.9961 100.309 40.7852C99.9102 42.1055 99.3672 43.2773 98.6797 44.3008C97.9922 45.3242 97.1641 46.1328 96.1953 46.7266L94.5781 44.7812C95.5703 44.1797 96.3984 43.3906 97.0625 42.4141C97.7266 41.4375 98.2188 40.3633 98.5391 39.1914C98.8672 38.0195 99.0312 36.8125 99.0312 35.5703V31.7734H101.539V35.4531ZM113.211 51.0859H110.703V29.8984H113.211V51.0859ZM108.805 50.0547H106.344V39.3438H103.32V37.1875H106.344V30.2734H108.805V50.0547ZM135.031 48.5078H115.672V46.375H120.148V41.0195C119.289 40.5195 118.621 39.8984 118.145 39.1562C117.676 38.4141 117.445 37.5781 117.453 36.6484C117.445 35.5469 117.777 34.5703 118.449 33.7188C119.121 32.8672 120.055 32.2109 121.25 31.75C122.445 31.2812 123.797 31.0469 125.305 31.0469C126.82 31.0469 128.176 31.2812 129.371 31.75C130.574 32.2109 131.512 32.8672 132.184 33.7188C132.863 34.5625 133.203 35.5391 133.203 36.6484C133.203 37.5547 132.973 38.3789 132.512 39.1211C132.059 39.8555 131.414 40.4688 130.578 40.9609V46.375H135.031V48.5078ZM125.305 33.1094C124.25 33.1094 123.32 33.2539 122.516 33.543C121.719 33.8242 121.098 34.2305 120.652 34.7617C120.215 35.293 120 35.9219 120.008 36.6484C120 37.3672 120.215 37.9922 120.652 38.5234C121.098 39.0547 121.723 39.4648 122.527 39.7539C123.332 40.043 124.258 40.1875 125.305 40.1875C126.352 40.1875 127.277 40.043 128.082 39.7539C128.895 39.4648 129.523 39.0547 129.969 38.5234C130.422 37.9922 130.648 37.3672 130.648 36.6484C130.648 35.9297 130.422 35.3047 129.969 34.7734C129.523 34.2344 128.898 33.8242 128.094 33.543C127.289 33.2539 126.359 33.1094 125.305 33.1094ZM127.93 46.375V41.957C127.102 42.1367 126.227 42.2266 125.305 42.2266C124.422 42.2266 123.562 42.1406 122.727 41.9688V46.375H127.93Z" fill="#C13D6B"/>
</g>
<defs>
<filter id="filter0_b_5148_18468" x="246.058" y="-42.2169" width="165.291" height="165.291" filterUnits="userSpaceOnUse" color-interpolation-filters="sRGB">
<feFlood flood-opacity="0" result="BackgroundImageFix"/>
<feGaussianBlur in="BackgroundImageFix" stdDeviation="8.82281"/>
<feComposite in2="SourceAlpha" operator="in" result="effect1_backgroundBlur_5148_18468"/>
<feBlend mode="normal" in="SourceGraphic" in2="effect1_backgroundBlur_5148_18468" result="shape"/>
</filter>
<linearGradient id="paint0_linear_5148_18468" x1="393.703" y1="133.054" x2="222.846" y2="-37.8034" gradientUnits="userSpaceOnUse">
<stop offset="0.296024" stop-color="#FF9AAF" stop-opacity="0.28"/>
<stop offset="1" stop-color="#FF365F"/>
</linearGradient>
</defs>
</svg>
