<svg width="375" height="80" viewBox="0 0 375 80" fill="none" xmlns="http://www.w3.org/2000/svg">
<mask id="mask0_5148_18480" style="mask-type:alpha" maskUnits="userSpaceOnUse" x="0" y="0" width="375" height="80">
<path d="M0 0H375V80H0V0Z" fill="#FCF0F6"/>
</mask>
<g mask="url(#mask0_5148_18480)">
<mask id="mask1_5148_18480" style="mask-type:alpha" maskUnits="userSpaceOnUse" x="0" y="0" width="375" height="80">
<path d="M0 0H375V80H0V0Z" fill="#FCF0F6"/>
</mask>
<g mask="url(#mask1_5148_18480)">
<path d="M0 0H375V80H0V0Z" fill="#FFFBDC"/>
<g opacity="0.8">
<mask id="mask2_5148_18480" style="mask-type:alpha" maskUnits="userSpaceOnUse" x="260" y="-25" width="156" height="156">
<rect x="260" y="-25" width="156" height="156" fill="#D9D9D9"/>
</mask>
<g mask="url(#mask2_5148_18480)">
<circle cx="338.004" cy="27.3912" r="39" stroke="#C89952" stroke-width="18.5714"/>
<g filter="url(#filter0_b_5148_18480)">
<path d="M272.104 34.4509C273.756 22.2341 284.186 13.1201 296.514 13.1201H379.486C391.814 13.1201 402.244 22.2341 403.896 34.4509L412.223 96.0298C414.222 110.811 402.729 123.962 387.813 123.962H288.187C273.271 123.962 261.778 110.811 263.777 96.0298L272.104 34.4509Z" fill="url(#paint0_linear_5148_18480)"/>
</g>
<circle cx="302.719" cy="40" r="13" fill="white" fill-opacity="0.8"/>
<circle cx="373.289" cy="40" r="13" fill="white" fill-opacity="0.8"/>
</g>
</g>
</g>
<path d="M50.3281 51.1094H47.7031V29.8984H50.3281V51.1094ZM38.9141 31.4453C39.9766 31.4453 40.9219 31.7539 41.75 32.3711C42.5859 32.9805 43.2422 33.8516 43.7188 34.9844C44.1953 36.1094 44.4375 37.4219 44.4453 38.9219C44.4375 40.4297 44.1953 41.75 43.7188 42.8828C43.25 44.0156 42.5977 44.8906 41.7617 45.5078C40.9258 46.1172 39.9766 46.4219 38.9141 46.4219C37.8438 46.4219 36.8906 46.1172 36.0547 45.5078C35.2188 44.8906 34.5625 44.0156 34.0859 42.8828C33.6172 41.75 33.3828 40.4297 33.3828 38.9219C33.3828 37.4219 33.6172 36.1094 34.0859 34.9844C34.5625 33.8516 35.2188 32.9805 36.0547 32.3711C36.8906 31.7539 37.8438 31.4453 38.9141 31.4453ZM38.9141 33.7891C38.3125 33.7891 37.7812 33.9922 37.3203 34.3984C36.8672 34.8047 36.5156 35.3945 36.2656 36.168C36.0156 36.9414 35.8906 37.8594 35.8906 38.9219C35.8906 39.9922 36.0156 40.9141 36.2656 41.6875C36.5156 42.4609 36.8672 43.0547 37.3203 43.4688C37.7812 43.875 38.3125 44.0781 38.9141 44.0781C39.5078 44.0781 40.0312 43.875 40.4844 43.4688C40.9375 43.0547 41.2891 42.4609 41.5391 41.6875C41.7891 40.9141 41.9141 39.9922 41.9141 38.9219C41.9141 37.8594 41.7891 36.9453 41.5391 36.1797C41.2891 35.4062 40.9375 34.8164 40.4844 34.4102C40.0312 33.9961 39.5078 33.7891 38.9141 33.7891ZM71.1875 51.0859H68.5859V40.3047H64.1094V38.1719H68.5859V29.8984H71.1875V51.0859ZM64.2031 32.1484C64.1953 34.3516 63.8906 36.3633 63.2891 38.1836C62.6953 40.0039 61.6953 41.6836 60.2891 43.2227C58.8906 44.7539 57.0156 46.1016 54.6641 47.2656L53.3047 45.2266C55.9844 43.9141 57.9766 42.3594 59.2812 40.5625C60.5859 38.7656 61.3516 36.6484 61.5781 34.2109H54.2891V32.1484H64.2031ZM85.6719 31.4453C86.625 31.4453 87.4844 31.6992 88.25 32.207C89.0156 32.7148 89.6406 33.4414 90.125 34.3867C90.6094 35.3242 90.9102 36.4297 91.0273 37.7031H95.0703V29.8984H97.6484V51.1094H95.0703V39.8125H91.0625C90.9688 41.1562 90.6836 42.3281 90.207 43.3281C89.7305 44.3203 89.1016 45.0859 88.3203 45.625C87.5391 46.1562 86.6562 46.4219 85.6719 46.4219C84.6094 46.4219 83.668 46.1172 82.8477 45.5078C82.0273 44.8984 81.3867 44.0273 80.9258 42.8945C80.4648 41.7617 80.2344 40.4375 80.2344 38.9219C80.2344 37.4219 80.4648 36.1094 80.9258 34.9844C81.3867 33.8516 82.0273 32.9805 82.8477 32.3711C83.6758 31.7539 84.6172 31.4453 85.6719 31.4453ZM85.6719 33.7891C85.0859 33.7891 84.5703 33.9961 84.125 34.4102C83.6797 34.8164 83.3359 35.4062 83.0938 36.1797C82.8516 36.9453 82.7344 37.8594 82.7422 38.9219C82.7344 39.9922 82.8516 40.9141 83.0938 41.6875C83.3359 42.4609 83.6797 43.0547 84.125 43.4688C84.5703 43.875 85.0859 44.0781 85.6719 44.0781C86.2578 44.0781 86.7695 43.875 87.207 43.4688C87.6523 43.0547 87.9961 42.4609 88.2383 41.6875C88.4883 40.9141 88.6172 39.9922 88.625 38.9219C88.6172 37.8594 88.4883 36.9414 88.2383 36.168C87.9961 35.3945 87.6523 34.8047 87.207 34.3984C86.7695 33.9922 86.2578 33.7891 85.6719 33.7891ZM114.758 38.2656H116.68V29.8984H119.141V51.0859H116.68V40.3984H114.758V50.0781H112.367V30.2969H114.758V38.2656ZM105.617 34.5859H103.461V43.6094C104.188 43.5547 104.922 43.4375 105.664 43.2578L105.875 45.4375C105.156 45.5938 104.496 45.6953 103.895 45.7422C103.293 45.7891 102.656 45.8125 101.984 45.8125H101.07V32.4766H105.617V34.5859ZM111.148 34.5859H108.828V43.6328C109.727 43.5938 110.602 43.4609 111.453 43.2344L111.641 45.4141C110.906 45.5859 110.219 45.6953 109.578 45.7422C108.938 45.7891 108.211 45.8125 107.398 45.8125H106.484V32.4766H111.148V34.5859Z" fill="#92835D"/>
</g>
<defs>
<filter id="filter0_b_5148_18480" x="248.465" y="-1.9695" width="179.07" height="141.021" filterUnits="userSpaceOnUse" color-interpolation-filters="sRGB">
<feFlood flood-opacity="0" result="BackgroundImageFix"/>
<feGaussianBlur in="BackgroundImageFix" stdDeviation="7.54481"/>
<feComposite in2="SourceAlpha" operator="in" result="effect1_backgroundBlur_5148_18480"/>
<feBlend mode="normal" in="SourceGraphic" in2="effect1_backgroundBlur_5148_18480" result="shape"/>
</filter>
<linearGradient id="paint0_linear_5148_18480" x1="338" y1="13.1201" x2="338" y2="123.962" gradientUnits="userSpaceOnUse">
<stop stop-color="#EFE958" stop-opacity="0.28"/>
<stop offset="1" stop-color="#FADB6D"/>
</linearGradient>
</defs>
</svg>
