<svg width="375" height="80" viewBox="0 0 375 80" fill="none" xmlns="http://www.w3.org/2000/svg">
<mask id="mask0_5148_18493" style="mask-type:alpha" maskUnits="userSpaceOnUse" x="0" y="0" width="375" height="80">
<path d="M0 0H375V80H0V0Z" fill="#FCF0F6"/>
</mask>
<g mask="url(#mask0_5148_18493)">
<mask id="mask1_5148_18493" style="mask-type:alpha" maskUnits="userSpaceOnUse" x="0" y="0" width="375" height="80">
<path d="M0 0H375V80H0V0Z" fill="#FCF0F6"/>
</mask>
<g mask="url(#mask1_5148_18493)">
<path d="M0 0H375V80H0V0Z" fill="#E7F5FF"/>
<g opacity="0.8">
<mask id="mask2_5148_18493" style="mask-type:alpha" maskUnits="userSpaceOnUse" x="250" y="-39" width="156" height="156">
<rect x="250" y="-39" width="156" height="156" fill="#D9D9D9"/>
</mask>
<g mask="url(#mask2_5148_18493)">
<path d="M323.898 92.368C323.898 101.437 316.546 108.789 307.477 108.789L278.741 108.789C269.671 108.789 262.319 101.437 262.319 92.368L262.319 38.9996C262.319 29.9305 269.671 22.5785 278.741 22.5785L307.477 22.5785C316.546 22.5785 323.898 29.9305 323.898 38.9996L323.898 92.368Z" fill="#4A91AF"/>
<g filter="url(#filter0_b_5148_18493)">
<path d="M287.148 38.3854C287.148 32.6954 288.331 27.0676 290.622 21.859L312.22 -27.2528L313.285 -28.3832C322.827 -38.5085 339.849 -32.9226 341.536 -19.1124L344.767 7.33959C345.27 11.4585 348.767 14.5545 352.917 14.5545H379.306C389.415 14.5545 397.123 23.6009 395.519 33.5817L386.761 88.0666C384.841 100.008 374.536 108.789 362.441 108.789H311.78C298.176 108.789 287.148 97.7611 287.148 84.1575V38.3854Z" fill="url(#paint0_linear_5148_18493)"/>
</g>
<path d="M372.977 36.0488L368.421 63.186" stroke="white" stroke-opacity="0.8" stroke-width="16.4211" stroke-linecap="round"/>
</g>
</g>
</g>
<path d="M52.0156 44.7578H43.625V51.1094H41.0469V44.7578H32.7031V42.625H52.0156V44.7578ZM50.2109 34.4688H43.6719C43.7578 35.1797 44.1094 35.8711 44.7266 36.543C45.3438 37.2148 46.1875 37.7969 47.2578 38.2891C48.3281 38.7812 49.5469 39.1094 50.9141 39.2734L49.9531 41.3359C48.2344 41.1172 46.7109 40.6523 45.3828 39.9414C44.0625 39.2227 43.0508 38.3438 42.3477 37.3047C41.6445 38.3516 40.6289 39.2305 39.3008 39.9414C37.9727 40.6523 36.4375 41.1172 34.6953 41.3359L33.7578 39.2734C35.125 39.1094 36.3438 38.7852 37.4141 38.3008C38.4844 37.8086 39.332 37.2266 39.957 36.5547C40.582 35.8828 40.9375 35.1875 41.0234 34.4688H34.4844V32.4062H41.0469V29.9219H43.625V32.4062H50.2109V34.4688ZM61.0625 34.9141C61.0625 35.7734 61.2578 36.5977 61.6484 37.3867C62.0391 38.168 62.6172 38.8672 63.3828 39.4844C64.1562 40.1016 65.0859 40.5781 66.1719 40.9141L64.9062 42.9531C63.7266 42.5938 62.7031 42.0508 61.8359 41.3242C60.9766 40.5977 60.2969 39.7383 59.7969 38.7461C59.3203 39.8164 58.6445 40.7461 57.7695 41.5352C56.8945 42.3242 55.8516 42.9141 54.6406 43.3047L53.375 41.2656C54.4531 40.9219 55.375 40.4258 56.1406 39.7773C56.9062 39.1289 57.4844 38.3867 57.875 37.5508C58.2656 36.7148 58.4609 35.8359 58.4609 34.9141V34.5859H54.0312V32.5234H58.4609V30.0391H61.0859V32.5234H65.4922V34.5859H61.0625V34.9141ZM71.1875 45.6484H68.5859V38.3125H64.7891V36.2266H68.5859V29.9219H71.1875V45.6484ZM71.7266 50.6641H57.2891V44.2891H59.8906V48.5547H71.7266V50.6641ZM84.5234 35.3594H74.1406V33.2734H78.0781V30.5078H80.6562V33.2734H84.5234V35.3594ZM79.3672 36.4844C80.2578 36.4844 81.0508 36.6953 81.7461 37.1172C82.4492 37.5312 82.9961 38.1133 83.3867 38.8633C83.7852 39.6133 83.9844 40.4609 83.9844 41.4062C83.9844 42.3672 83.7852 43.2266 83.3867 43.9844C82.9961 44.7422 82.4492 45.3359 81.7461 45.7656C81.0508 46.1875 80.2578 46.3984 79.3672 46.3984C78.4844 46.3984 77.6914 46.1875 76.9883 45.7656C76.2852 45.3359 75.7344 44.7422 75.3359 43.9844C74.9375 43.2266 74.7422 42.3672 74.75 41.4062C74.7422 40.4609 74.9375 39.6133 75.3359 38.8633C75.7344 38.1133 76.2852 37.5312 76.9883 37.1172C77.6914 36.6953 78.4844 36.4844 79.3672 36.4844ZM79.3672 38.6406C78.9062 38.6406 78.5 38.7578 78.1484 38.9922C77.7969 39.2188 77.5234 39.543 77.3281 39.9648C77.1328 40.3789 77.0391 40.8594 77.0469 41.4062C77.0391 41.9688 77.1328 42.4609 77.3281 42.8828C77.5234 43.3047 77.7969 43.6289 78.1484 43.8555C78.5 44.0742 78.9062 44.1797 79.3672 44.1719C79.8203 44.1797 80.2227 44.0742 80.5742 43.8555C80.9258 43.6289 81.1992 43.3047 81.3945 42.8828C81.5898 42.4609 81.6875 41.9688 81.6875 41.4062C81.6875 40.8594 81.5898 40.3789 81.3945 39.9648C81.1992 39.543 80.9258 39.2188 80.5742 38.9922C80.2227 38.7578 79.8203 38.6406 79.3672 38.6406ZM92.3984 51.0859H89.9141V40.7266H87.8516V50.125H85.4141V30.3438H87.8516V38.6172H89.9141V29.8984H92.3984V51.0859ZM108.805 33.4844C108.805 34.0625 109 34.6133 109.391 35.1367C109.781 35.6523 110.348 36.1016 111.09 36.4844C111.84 36.8672 112.734 37.1406 113.773 37.3047L112.742 39.2969C111.523 39.0781 110.469 38.707 109.578 38.1836C108.688 37.6602 107.996 37.0234 107.504 36.2734C107.02 37.0938 106.316 37.7891 105.395 38.3594C104.48 38.9219 103.375 39.3281 102.078 39.5781L101.023 37.5625C102.102 37.3828 103.023 37.0898 103.789 36.6836C104.562 36.2695 105.145 35.7891 105.535 35.2422C105.934 34.6875 106.133 34.1016 106.133 33.4844V33.3906H101.844V31.3281H113.117V33.3906H108.805V33.4844ZM118.508 51.0625H115.859V46.3281H111.359V44.3359H115.859V29.9219H118.508V51.0625ZM100.531 40.9609C103.172 40.9609 105.625 40.918 107.891 40.832C110.164 40.7461 112.32 40.5625 114.359 40.2812L114.523 42.2031C112.695 42.5234 110.742 42.7539 108.664 42.8945V50.4297H106.039V43.0234C104.836 43.0703 103.109 43.1016 100.859 43.1172L100.531 40.9609Z" fill="#487BA5"/>
</g>
<defs>
<filter id="filter0_b_5148_18493" x="270.727" y="-49.9836" width="141.428" height="175.194" filterUnits="userSpaceOnUse" color-interpolation-filters="sRGB">
<feFlood flood-opacity="0" result="BackgroundImageFix"/>
<feGaussianBlur in="BackgroundImageFix" stdDeviation="8.21053"/>
<feComposite in2="SourceAlpha" operator="in" result="effect1_backgroundBlur_5148_18493"/>
<feBlend mode="normal" in="SourceGraphic" in2="effect1_backgroundBlur_5148_18493" result="shape"/>
</filter>
<linearGradient id="paint0_linear_5148_18493" x1="348.434" y1="132.375" x2="348.434" y2="-98.5267" gradientUnits="userSpaceOnUse">
<stop stop-color="#69D3F4"/>
<stop offset="1" stop-color="#97E6FF" stop-opacity="0.28"/>
</linearGradient>
</defs>
</svg>
