<svg width="38" height="38" viewBox="0 0 38 38" fill="none" xmlns="http://www.w3.org/2000/svg">
<circle cx="19" cy="19" r="17" fill="#212529" stroke="white" stroke-width="4"/>
<g clip-path="url(#clip0_2346_26140)">
<path fill-rule="evenodd" clip-rule="evenodd" d="M19.8447 13.501C19.8447 13.0316 19.4641 12.651 18.9947 12.651C18.5252 12.651 18.1447 13.0316 18.1447 13.501V18.151H13.4969C13.0274 18.151 12.6469 18.5316 12.6469 19.001C12.6469 19.4704 13.0274 19.851 13.4968 19.851H18.1447V24.501C18.1447 24.9704 18.5252 25.351 18.9947 25.351C19.4641 25.351 19.8447 24.9704 19.8447 24.501V19.851H24.4969C24.9663 19.851 25.3469 19.4704 25.3469 19.001C25.3469 18.5316 24.9663 18.151 24.4969 18.151H19.8447V13.501Z" fill="white"/>
</g>
<defs>
<clipPath id="clip0_2346_26140">
<rect width="18" height="18" fill="white" transform="translate(10 10)"/>
</clipPath>
</defs>
</svg>
