<svg width="60" height="60" viewBox="0 0 60 60" fill="none" xmlns="http://www.w3.org/2000/svg">
<circle cx="30" cy="30" r="30" fill="black"/>
<path d="M37.9771 28.843C37.9435 25.0225 41.0937 23.1961 41.2278 23.1123C39.4516 20.5151 36.7036 20.1633 35.715 20.113C33.3691 19.8784 31.1238 21.5038 29.9341 21.5038C28.7444 21.5038 26.9012 20.1633 24.9575 20.1968C22.3938 20.2303 20.0312 21.6881 18.7075 23.9669C16.0433 28.5749 18.0205 35.4281 20.6177 39.1647C21.8912 40.9912 23.3992 43.0522 25.3764 42.9851C27.2866 42.9181 28.0072 41.7452 30.3195 41.7452C32.6319 41.7452 33.2853 42.9851 35.2961 42.9516C37.3571 42.9014 38.6473 41.0749 39.904 39.2485C41.3618 37.1205 41.965 35.0595 41.9985 34.9589C41.9483 34.9589 37.9938 33.4174 37.9435 28.8597L37.9771 28.843Z" fill="white"/>
<path d="M34.1727 17.6332C35.2283 16.3598 35.9321 14.5836 35.7477 12.8242C34.2397 12.8745 32.3965 13.8296 31.3074 15.1031C30.3355 16.2425 29.4642 18.0521 29.6988 19.778C31.3911 19.9121 33.117 18.9235 34.1727 17.6332Z" fill="white"/>
</svg>
