<svg width="169" height="127" viewBox="0 0 169 127" fill="none" xmlns="http://www.w3.org/2000/svg">
<g filter="url(#filter0_b_3617_43240)">
<rect y="82.5" width="165" height="51" rx="25.5" transform="rotate(-30 0 82.5)" fill="#FFC700" fill-opacity="0.51"/>
<path d="M44.4225 76.0402L50.5134 72.5236C51.6348 71.8762 52.6819 71.5062 53.6547 71.4137C54.6347 71.3169 55.4989 71.4679 56.247 71.8666C56.9952 72.2654 57.602 72.8679 58.0675 73.6741C58.5965 74.5903 58.7695 75.4824 58.5865 76.3504C58.4035 77.2183 57.9513 77.9924 57.23 78.6727L57.3189 78.8267C57.9148 78.5217 58.5661 78.3802 59.2727 78.4022C59.9867 78.4201 60.6742 78.6291 61.3352 79.0292C61.992 79.4221 62.5426 80.0033 62.9869 80.7729C63.4736 81.6158 63.7 82.4819 63.6662 83.3713C63.6397 84.2563 63.3275 85.1207 62.7297 85.9642C62.1277 86.8004 61.2367 87.5592 60.0566 88.2405L53.6139 91.9602L44.4225 76.0402ZM58.2331 86.0976C59.2372 85.5178 59.869 84.8941 60.1285 84.2263C60.3953 83.5543 60.3383 82.8885 59.9574 82.2288C59.6824 81.7524 59.3139 81.3934 58.8519 81.1519C58.3931 80.8989 57.8803 80.7894 57.3136 80.8234C56.7469 80.8574 56.174 81.0416 55.5949 81.3759L52.3846 83.2294L55.0887 87.913L58.2331 86.0976ZM54.0717 79.4993C54.5775 79.2073 54.979 78.8534 55.2764 78.4374C55.5695 78.014 55.7302 77.5645 55.7585 77.0889C55.7942 76.609 55.6787 76.1381 55.4121 75.6764C55.0439 75.0387 54.5263 74.6583 53.8591 74.5353C53.1877 74.405 52.4342 74.581 51.5986 75.0635L48.6521 76.7646L51.1912 81.1624L54.0717 79.4993ZM73.1258 81.0175C71.9384 81.7031 70.761 82.0505 69.5937 82.0599C68.4295 82.0578 67.3462 81.7303 66.3439 81.0776C65.3489 80.4207 64.4939 79.4729 63.7787 78.2342C63.072 77.0101 62.6845 75.7972 62.6161 74.5955C62.5436 73.3865 62.7822 72.2764 63.332 71.2651C63.8891 70.2495 64.7283 69.4181 65.8498 68.7706C66.8613 68.1866 67.9023 67.8739 68.9729 67.8324C70.0508 67.7866 71.094 68.0785 72.1025 68.7081C73.1141 69.3261 74.0071 70.3058 74.7816 71.6471L75.2894 72.5267L66.9556 77.3382C67.348 78.001 67.8142 78.5038 68.3543 78.8468C68.8901 79.1825 69.4593 79.3474 70.0619 79.3415C70.6644 79.3357 71.2699 79.1572 71.8782 78.8059C72.4719 78.4632 72.9121 78.0575 73.1987 77.5891C73.4853 77.1207 73.6144 76.6503 73.5861 76.1781L76.3347 74.5911C76.5639 75.3775 76.5942 76.1662 76.4255 76.9575C76.2527 77.7414 75.8859 78.4857 75.3253 79.1905C74.7678 79.8838 74.0347 80.4928 73.1258 81.0175ZM71.5022 72.1625C71.1817 71.6243 70.7852 71.2083 70.3125 70.9143C69.8398 70.6204 69.3285 70.471 68.7784 70.4661C68.2282 70.4612 67.6857 70.6132 67.1506 70.9221C66.6009 71.2395 66.1838 71.6513 65.8995 72.1575C65.6183 72.6521 65.4779 73.1876 65.4783 73.764C65.4746 74.333 65.6025 74.8846 65.8621 75.4188L71.5022 72.1625ZM77.9703 73.4123C77.2593 72.1809 77.1614 71.0549 77.6765 70.0344C78.1947 69.0022 79.0792 68.0713 80.33 67.2417C81.5472 66.4216 82.5322 65.7748 83.2849 65.3011L82.739 64.3556C82.3962 63.7619 81.9448 63.4117 81.3848 63.305C80.8206 63.191 80.194 63.3329 79.505 63.7307C78.8966 64.0819 78.4723 64.4979 78.2319 64.9788C77.9915 65.4596 77.9433 65.9516 78.0873 66.4549L75.3827 68.0164C75.0551 67.2966 74.9457 66.5486 75.0546 65.7724C75.1592 64.9888 75.4892 64.2314 76.0444 63.5004C76.5996 62.7694 77.3646 62.1225 78.3395 61.5597C79.1751 61.0772 80.0355 60.7564 80.9208 60.5971C81.8092 60.4262 82.6657 60.5132 83.4903 60.858C84.3179 61.1913 85.0195 61.8564 85.5951 62.8532L90.2035 70.8352L87.5208 72.384L86.5687 70.7349L86.4807 70.7856C86.5091 71.512 86.3317 72.2203 85.9485 72.9107C85.5652 73.601 84.9338 74.2001 84.0543 74.7079C83.2847 75.1523 82.5153 75.4108 81.7461 75.4835C80.9843 75.552 80.2745 75.4145 79.6169 75.071C78.9592 74.7275 78.4104 74.1746 77.9703 73.4123ZM80.6622 71.8288C80.9542 72.3345 81.3617 72.6172 81.8848 72.6768C82.4036 72.7291 82.9709 72.5775 83.5865 72.222C84.1363 71.9047 84.5602 71.5133 84.8584 71.048C85.1565 70.5826 85.3113 70.0975 85.3227 69.5925C85.3372 69.0759 85.2154 68.5941 84.9573 68.147L84.3813 67.1748C84.06 67.3799 83.5183 67.7366 82.7563 68.245C82.3439 68.5124 82.0414 68.7163 81.8489 68.8568C81.1937 69.3132 80.7581 69.7944 80.542 70.3003C80.3259 70.8062 80.366 71.3157 80.6622 71.8288ZM93.5787 52.9665L96.3713 51.3542L103.265 63.2942L100.56 64.8557L99.3415 62.7448L99.2096 62.8209C99.3215 63.675 99.1844 64.4871 98.7984 65.2572C98.4197 66.0232 97.7979 66.6558 96.933 67.1551C96.1487 67.6079 95.3545 67.8319 94.5503 67.8271C93.7462 67.8223 92.9809 67.5801 92.2544 67.1004C91.5279 66.6207 90.8901 65.9139 90.3412 64.9799L85.9486 57.3718L88.7632 55.7468L92.9018 62.9152C93.1896 63.4136 93.5351 63.8005 93.9384 64.0758C94.3448 64.3396 94.7758 64.4768 95.2315 64.4873C95.6902 64.4864 96.1468 64.3547 96.6013 64.0923C97.0264 63.8469 97.3739 63.5094 97.6439 63.0799C97.917 62.6388 98.056 62.1432 98.0609 61.5931C98.0731 61.0388 97.9121 60.4721 97.5778 59.893L93.5787 52.9665ZM106.257 48.5199L103.904 49.8783L107.484 56.0791C107.789 56.6069 108.108 56.9062 108.443 56.9772C108.784 57.0439 109.156 56.9609 109.56 56.7281C109.911 56.525 110.313 56.2733 110.766 55.9732L112.086 58.26C111.762 58.5449 111.255 58.8863 110.566 59.284C109.84 59.703 109.128 59.9581 108.428 60.0494C107.731 60.1292 107.08 60.0166 106.474 59.7117C105.875 59.4026 105.37 58.8831 104.958 58.1532L101.112 51.4906L99.3966 52.4808L98.1524 50.3259L99.8676 49.3356L98.2172 46.4771L101.01 44.8648L102.66 47.7233L105.013 46.3649L106.257 48.5199ZM118.344 60.569C117.729 60.9245 117.232 61.1818 116.855 61.3409L115.56 59.098C116.046 58.8565 116.45 58.6427 116.773 58.4565C117.051 58.2957 117.268 58.1367 117.421 57.9796C117.582 57.8183 117.693 57.5879 117.755 57.2884C117.821 56.9963 117.814 56.6042 117.736 56.1122L117.609 55.3349L106.222 45.6667L109.191 43.9528L117.167 51.3687L117.298 51.2925L114.864 40.6774L117.833 38.9636L120.77 55.1224C120.994 56.3224 120.917 57.3735 120.539 58.2759C120.161 59.1783 119.429 59.9427 118.344 60.569Z" fill="white"/>
<rect x="0.341506" y="82.5915" width="164.5" height="50.5" rx="25.25" transform="rotate(-30 0.341506 82.5915)" stroke="#FFC700" stroke-opacity="0.2" stroke-width="0.5"/>
</g>
<defs>
<filter id="filter0_b_3617_43240" x="-4" y="-4" width="176.395" height="134.667" filterUnits="userSpaceOnUse" color-interpolation-filters="sRGB">
<feFlood flood-opacity="0" result="BackgroundImageFix"/>
<feGaussianBlur in="BackgroundImageFix" stdDeviation="2"/>
<feComposite in2="SourceAlpha" operator="in" result="effect1_backgroundBlur_3617_43240"/>
<feBlend mode="normal" in="SourceGraphic" in2="effect1_backgroundBlur_3617_43240" result="shape"/>
</filter>
</defs>
</svg>
