<svg width="36" height="36" viewBox="0 0 36 36" fill="none" xmlns="http://www.w3.org/2000/svg">
<path fill-rule="evenodd" clip-rule="evenodd" d="M23.7313 29.2309C23.6754 28.6814 23.1847 28.2813 22.6352 28.3372C22.1193 28.3897 21.7351 28.8256 21.7364 29.3334L14.1292 29.344C14.1291 28.8393 13.748 28.4057 13.2349 28.3511C12.6857 28.2927 12.1931 28.6906 12.1347 29.2397C12.1054 29.5151 12.1036 29.7922 12.1294 30.0678C12.1372 30.7469 12.2965 31.4143 12.5935 32.0321C12.8979 32.6652 13.3391 33.23 13.8834 33.6989C14.4274 34.1676 15.0656 34.533 15.7584 34.7802C16.4512 35.0274 17.1897 35.1533 17.9328 35.1533C18.6759 35.1533 19.4144 35.0274 20.1071 34.7802C20.7999 34.533 21.4381 34.1676 21.9822 33.6989C22.5265 33.23 22.9676 32.6652 23.272 32.0321C23.5694 31.4136 23.7287 30.7456 23.7362 30.0657C23.7612 29.7878 23.7596 29.5085 23.7313 29.2309Z" fill="#C7CED4"/>
<path fill-rule="evenodd" clip-rule="evenodd" d="M26.4076 4.44929C24.0838 2.53155 21.0494 1.49128 17.9291 1.50006C14.6735 1.50057 11.519 2.63887 9.16633 4.71228C6.807 6.79155 5.43831 9.65532 5.43831 12.6882V16.4693C5.43831 18.5728 5.10534 20.6631 4.45177 22.6625L3.00255 27.096C2.47427 28.7121 3.67854 30.3728 5.37882 30.3728H30.4839C32.1842 30.3728 33.3884 28.7121 32.8601 27.096L31.4109 22.6625C30.7574 20.6631 30.4244 18.5728 30.4244 16.4693V12.9148C30.4244 9.10271 28.0474 6.01455 26.4906 4.52307C26.4639 4.49746 26.4362 4.47285 26.4076 4.44929Z" fill="#EAECEF"/>
</svg>
