<svg width="24" height="24" viewBox="0 0 24 24" fill="none" xmlns="http://www.w3.org/2000/svg">
<g clip-path="url(#clip0_4619_37)">
<circle cx="19.5" cy="5" r="2" fill="#FF365F"/>
<path d="M15.7793 4.80951C14.7551 3.96429 13.4031 3.49586 12 3.50003C10.5351 3.50003 9.13013 4.01289 8.09426 4.92579C7.05839 5.8387 6.47645 7.07686 6.47645 8.3679V11.5053C6.47645 11.8219 6.42633 12.1365 6.32797 12.4374L5 16.5H19L17.672 12.4374C17.5737 12.1365 17.5236 11.8219 17.5236 11.5053V8.48177" stroke="#262626" stroke-width="2" stroke-linecap="round" stroke-linejoin="round"/>
<path d="M14.9892 17.5C15.0036 17.6414 15.0036 17.7836 14.9892 17.925C14.9892 18.2632 14.9119 18.598 14.7617 18.9104C14.6115 19.2228 14.3913 19.5067 14.1137 19.7458C13.8362 19.9849 13.5067 20.1746 13.144 20.304C12.7814 20.4334 12.3927 20.5 12.0001 20.5C11.6076 20.5 11.2189 20.4334 10.8563 20.304C10.4936 20.1746 10.1641 19.9849 9.88654 19.7458C9.60897 19.5067 9.3888 19.2228 9.23859 18.9104C9.08837 18.598 9.01106 18.2632 9.01106 17.925C8.99631 17.7864 8.99631 17.6469 9.01106 17.5083" stroke="#262626" stroke-width="2" stroke-linecap="round" stroke-linejoin="round"/>
</g>
<defs>
<clipPath id="clip0_4619_37">
<rect width="24" height="24" fill="white"/>
</clipPath>
</defs>
</svg>
