<svg width="76" height="76" viewBox="0 0 76 76" fill="none" xmlns="http://www.w3.org/2000/svg">
<path d="M0 16C0 7.16344 7.16344 0 16 0H60C68.8366 0 76 7.16344 76 16V60C76 68.8366 68.8366 76 60 76H16C7.16344 76 0 68.8366 0 60V16Z" fill="#E9FEE8"/>
<mask id="mask0_4784_30698" style="mask-type:alpha" maskUnits="userSpaceOnUse" x="14" y="14" width="48" height="48">
<rect x="14" y="14" width="48" height="48" fill="#D9D9D9"/>
</mask>
<g mask="url(#mask0_4784_30698)">
<g filter="url(#filter0_b_4784_30698)">
<path d="M45.5147 20H23C19.6863 20 17 22.6863 17 26V48.5147C17 53.8601 23.4629 56.5371 27.2426 52.7574L49.7574 30.2426C53.5371 26.4629 50.8601 20 45.5147 20Z" fill="url(#paint0_linear_4784_30698)" fill-opacity="0.6"/>
<path d="M23 20.0488H45.5147C50.8167 20.0488 53.4719 26.4591 49.7229 30.2081L27.2082 52.7229C23.4591 56.4719 17.0488 53.8167 17.0488 48.5147V26C17.0488 22.7132 19.7132 20.0488 23 20.0488Z" stroke="#A0E0A1" stroke-width="0.0975607"/>
</g>
<path d="M27.2056 25.4423C27.5503 24.8165 28.4497 24.8165 28.7944 25.4423L29.9876 27.6085C30.1177 27.8448 30.3463 28.0109 30.6113 28.0617L33.0402 28.527C33.7419 28.6615 34.0199 29.5169 33.5312 30.0381L31.8397 31.8422C31.6552 32.0391 31.5678 32.3078 31.6014 32.5755L31.9094 35.0293C31.9984 35.7383 31.2708 36.2669 30.624 35.9632L28.3855 34.912C28.1413 34.7973 27.8587 34.7973 27.6145 34.912L25.376 35.9632C24.7292 36.2669 24.0016 35.7383 24.0906 35.0293L24.3986 32.5755C24.4322 32.3078 24.3448 32.0391 24.1603 31.8422L22.4688 30.0381C21.9801 29.5169 22.2581 28.6615 22.9598 28.527L25.3887 28.0617C25.6537 28.0109 25.8823 27.8448 26.0124 27.6085L27.2056 25.4423Z" fill="white" fill-opacity="0.8"/>
<g filter="url(#filter1_b_4784_30698)">
<path d="M46.0769 25.9512L48.7527 23.2696C52.5306 19.4834 59 22.159 59 27.5076V50C59 53.3137 56.3137 56 53 56H30.4949C25.1481 56 22.4717 49.5344 26.2542 45.7554L46.0769 25.9512Z" fill="url(#paint1_linear_4784_30698)" fill-opacity="0.28"/>
<path d="M46.1123 25.9866L46.1123 25.9865L48.7881 23.3049C52.5346 19.5503 58.95 22.2036 58.95 27.5076V50C58.95 53.2861 56.2861 55.95 53 55.95H30.4949C25.1926 55.95 22.5386 49.5382 26.2896 45.7907L46.1123 25.9866Z" stroke="#89DC9F" stroke-width="0.1"/>
</g>
<path d="M47.2056 39.4423C47.5503 38.8165 48.4497 38.8165 48.7944 39.4423L49.9876 41.6085C50.1177 41.8448 50.3463 42.0109 50.6113 42.0617L53.0402 42.527C53.7419 42.6615 54.0199 43.5169 53.5312 44.0381L51.8397 45.8422C51.6552 46.0391 51.5678 46.3078 51.6014 46.5755L51.9094 49.0293C51.9984 49.7383 51.2708 50.2669 50.624 49.9632L48.3855 48.912C48.1413 48.7973 47.8587 48.7973 47.6145 48.912L45.376 49.9632C44.7292 50.2669 44.0016 49.7383 44.0906 49.0293L44.3986 46.5755C44.4322 46.3078 44.3448 46.0391 44.1603 45.8422L42.4688 44.0381C41.9801 43.5169 42.2581 42.6615 42.9598 42.527L45.3887 42.0617C45.6537 42.0109 45.8823 41.8448 46.0124 41.6085L47.2056 39.4423Z" fill="white" fill-opacity="0.8"/>
</g>
<defs>
<filter id="filter0_b_4784_30698" x="10.1298" y="13.1298" width="48.2639" height="48.2673" filterUnits="userSpaceOnUse" color-interpolation-filters="sRGB">
<feFlood flood-opacity="0" result="BackgroundImageFix"/>
<feGaussianBlur in="BackgroundImageFix" stdDeviation="3.43511"/>
<feComposite in2="SourceAlpha" operator="in" result="effect1_backgroundBlur_4784_30698"/>
<feBlend mode="normal" in="SourceGraphic" in2="effect1_backgroundBlur_4784_30698" result="shape"/>
</filter>
<filter id="filter1_b_4784_30698" x="22.4844" y="19.4956" width="38.5156" height="38.5044" filterUnits="userSpaceOnUse" color-interpolation-filters="sRGB">
<feFlood flood-opacity="0" result="BackgroundImageFix"/>
<feGaussianBlur in="BackgroundImageFix" stdDeviation="1"/>
<feComposite in2="SourceAlpha" operator="in" result="effect1_backgroundBlur_4784_30698"/>
<feBlend mode="normal" in="SourceGraphic" in2="effect1_backgroundBlur_4784_30698" result="shape"/>
</filter>
<linearGradient id="paint0_linear_4784_30698" x1="34.5" y1="51.5" x2="14" y2="-7" gradientUnits="userSpaceOnUse">
<stop stop-color="#60D75A"/>
<stop offset="1" stop-color="#CDFFCB" stop-opacity="0.46"/>
</linearGradient>
<linearGradient id="paint1_linear_4784_30698" x1="36" y1="27" x2="67.5" y2="72" gradientUnits="userSpaceOnUse">
<stop stop-color="#0BD380"/>
<stop offset="1" stop-color="#5EEC97"/>
</linearGradient>
</defs>
</svg>
