<svg width="76" height="44" viewBox="0 0 76 44" fill="none" xmlns="http://www.w3.org/2000/svg">
<path d="M0 8C0 3.58172 3.58172 0 8 0H68C72.4183 0 76 3.58172 76 8V36C76 40.4183 72.4183 44 68 44H8C3.58172 44 0 40.4183 0 36V8Z" fill="#E9FEE8"/>
<path fill-rule="evenodd" clip-rule="evenodd" d="M39.7288 31.8H42.4875C43.4398 31.8 44.2118 32.572 44.2118 33.5243C44.2118 34.4766 43.4398 35.2486 42.4875 35.2486H33.5212C32.5689 35.2486 31.7969 34.4766 31.7969 33.5243C31.7969 32.572 32.5689 31.8 33.5212 31.8H36.2802L36.2802 24.4245C36.2802 23.4722 37.0522 22.7002 38.0045 22.7002C38.9568 22.7002 39.7288 23.4722 39.7288 24.4245L39.7288 31.8Z" fill="#4BAF67"/>
<circle cx="27.3333" cy="17.3333" r="3.33327" fill="#4BAF67"/>
<circle cx="48.6692" cy="17.3333" r="3.33327" fill="#4BAF67"/>
<g filter="url(#filter0_b_4784_30933)">
<path d="M27.3359 13.0881C27.3359 10.6464 29.3153 8.66699 31.757 8.66699H44.2478C46.6895 8.66699 48.6689 10.6464 48.6689 13.088V19.3334C48.6689 25.2244 43.8933 29.9999 38.0024 29.9999C32.1115 29.9999 27.3359 25.2244 27.3359 19.3335V13.0881Z" fill="url(#paint0_linear_4784_30933)"/>
</g>
<path d="M37.4015 15.0816C37.66 14.6123 38.3345 14.6123 38.5931 15.0816L39.514 16.7537C39.6117 16.931 39.7831 17.0555 39.9818 17.0936L41.8567 17.4528C42.3829 17.5536 42.5914 18.1951 42.2249 18.586L40.9192 19.9786C40.7808 20.1262 40.7154 20.3278 40.7406 20.5286L40.9783 22.4226C41.045 22.9543 40.4993 23.3508 40.0143 23.123L38.2864 22.3116C38.1033 22.2256 37.8913 22.2256 37.7082 22.3116L35.9803 23.123C35.4952 23.3508 34.9496 22.9543 35.0163 22.4226L35.254 20.5286C35.2792 20.3278 35.2137 20.1262 35.0754 19.9786L33.7697 18.586C33.4032 18.1951 33.6116 17.5536 34.1379 17.4528L36.0128 17.0936C36.2115 17.0555 36.3829 16.931 36.4805 16.7537L37.4015 15.0816Z" fill="white" fill-opacity="0.8"/>
<defs>
<filter id="filter0_b_4784_30933" x="23.9351" y="5.26618" width="28.1376" height="28.1346" filterUnits="userSpaceOnUse" color-interpolation-filters="sRGB">
<feFlood flood-opacity="0" result="BackgroundImageFix"/>
<feGaussianBlur in="BackgroundImageFix" stdDeviation="1.7004"/>
<feComposite in2="SourceAlpha" operator="in" result="effect1_backgroundBlur_4784_30933"/>
<feBlend mode="normal" in="SourceGraphic" in2="effect1_backgroundBlur_4784_30933" result="shape"/>
</filter>
<linearGradient id="paint0_linear_4784_30933" x1="38.0024" y1="14.5163" x2="37.6583" y2="31.7203" gradientUnits="userSpaceOnUse">
<stop stop-color="#81E18A" stop-opacity="0.28"/>
<stop offset="1" stop-color="#52D084"/>
</linearGradient>
</defs>
</svg>
