<svg width="76" height="76" viewBox="0 0 76 76" fill="none" xmlns="http://www.w3.org/2000/svg">
<path d="M0 16C0 7.16344 7.16344 0 16 0H60C68.8366 0 76 7.16344 76 16V60C76 68.8366 68.8366 76 60 76H16C7.16344 76 0 68.8366 0 60V16Z" fill="#E9FEE8"/>
<path fill-rule="evenodd" clip-rule="evenodd" d="M40.4648 52H44.4055C45.7659 52 46.8688 53.1029 46.8688 54.4634C46.8688 55.8238 45.7659 56.9267 44.4055 56.9267H31.5961C30.2357 56.9267 29.1328 55.8238 29.1328 54.4634C29.1328 53.1029 30.2357 52 31.5961 52H35.5382L35.5382 41.4633C35.5382 40.1029 36.6411 39 38.0015 39C39.362 39 40.4648 40.1029 40.4648 41.4633L40.4648 52Z" fill="#4BAF67"/>
<circle cx="22.7619" cy="31.3332" r="4.7619" fill="#4BAF67"/>
<circle cx="53.2385" cy="31.3332" r="4.7619" fill="#4BAF67"/>
<g filter="url(#filter0_b_4784_30462)">
<path d="M22.7578 25.2679C22.7578 21.7798 25.5855 18.9521 29.0736 18.9521H46.9182C50.4063 18.9521 53.234 21.7798 53.234 25.2679V34.1902C53.234 42.606 46.4117 49.4283 37.9959 49.4283C29.5801 49.4283 22.7578 42.606 22.7578 34.1902V25.2679Z" fill="url(#paint0_linear_4784_30462)"/>
</g>
<path d="M37.1508 28.1165C37.5201 27.446 38.4836 27.446 38.853 28.1165L40.1687 30.5053C40.3081 30.7585 40.5531 30.9364 40.837 30.9908L43.5154 31.504C44.2672 31.648 44.565 32.5644 44.0414 33.1229L42.1761 35.1124C41.9784 35.3232 41.8849 35.6112 41.9209 35.898L42.2605 38.6039C42.3559 39.3634 41.5763 39.9298 40.8834 39.6044L38.4149 38.4452C38.1532 38.3224 37.8505 38.3224 37.5889 38.4452L35.1203 39.6044C34.4274 39.9298 33.6479 39.3634 33.7432 38.6039L34.0828 35.898C34.1188 35.6112 34.0253 35.3232 33.8276 35.1124L31.9623 33.1229C31.4387 32.5644 31.7365 31.648 32.4883 31.504L35.1668 30.9908C35.4506 30.9364 35.6956 30.7585 35.835 30.5053L37.1508 28.1165Z" fill="white" fill-opacity="0.8"/>
<defs>
<filter id="filter0_b_4784_30462" x="17.8995" y="14.0938" width="40.1932" height="40.1932" filterUnits="userSpaceOnUse" color-interpolation-filters="sRGB">
<feFlood flood-opacity="0" result="BackgroundImageFix"/>
<feGaussianBlur in="BackgroundImageFix" stdDeviation="2.42915"/>
<feComposite in2="SourceAlpha" operator="in" result="effect1_backgroundBlur_4784_30462"/>
<feBlend mode="normal" in="SourceGraphic" in2="effect1_backgroundBlur_4784_30462" result="shape"/>
</filter>
<linearGradient id="paint0_linear_4784_30462" x1="37.9959" y1="27.3085" x2="37.5044" y2="51.8861" gradientUnits="userSpaceOnUse">
<stop stop-color="#81E18A" stop-opacity="0.28"/>
<stop offset="1" stop-color="#52D084"/>
</linearGradient>
</defs>
</svg>
