<svg width="196" height="119" viewBox="0 0 196 119" fill="none" xmlns="http://www.w3.org/2000/svg">
<g filter="url(#filter0_b_3617_43234)">
<rect y="71.4648" width="190" height="51" rx="25.5" transform="rotate(-22.0942 0 71.4648)" fill="#674FFF" fill-opacity="0.51"/>
<path d="M58.6887 72.2659C58.2998 71.6422 57.8189 71.1656 57.2459 70.8362C56.6763 70.499 56.054 70.3188 55.3793 70.2956C54.7045 70.2723 54.0205 70.4014 53.3273 70.6828C52.3901 71.0633 51.6566 71.6356 51.1271 72.3996C50.6008 73.1559 50.3187 74.0681 50.2808 75.1364C50.2462 76.1969 50.4844 77.3566 50.9954 78.6155C51.5132 79.891 52.1552 80.8997 52.9215 81.6416C53.691 82.3757 54.5269 82.8276 55.4292 82.9975C56.3314 83.1674 57.2484 83.0633 58.1801 82.685C58.8622 82.4081 59.4366 82.0329 59.9032 81.5592C60.3731 81.0778 60.7021 80.5276 60.8901 79.9087C61.0814 79.282 61.1107 78.6144 60.9782 77.906L64.0878 76.663C64.3727 77.8264 64.3803 78.9828 64.1105 80.1323C63.8385 81.2763 63.2887 82.3166 62.461 83.2533C61.6388 84.1878 60.5734 84.9207 59.2646 85.452C57.7617 86.0621 56.2778 86.2575 54.8129 86.0383C53.3457 85.8135 52.0115 85.1762 50.8102 84.1265C49.6089 83.0767 48.6447 81.6562 47.9175 79.8649C47.1904 78.0737 46.8944 76.3819 47.0297 74.7896C47.1627 73.1918 47.678 71.8037 48.5755 70.6254C49.4731 69.4471 50.6678 68.5552 52.1596 67.9496C53.4185 67.4386 54.6577 67.2133 55.8773 67.2738C57.0946 67.3287 58.2156 67.6714 59.2403 68.3019C60.2649 68.9324 61.1153 69.8339 61.7915 71.0064L58.6887 72.2659ZM77.9434 71.116L69.0341 74.7326C69.3379 75.4491 69.7325 76.0156 70.2181 76.4321C70.7015 76.8431 71.2435 77.0882 71.8441 77.1674C72.4447 77.2465 73.0694 77.1544 73.7182 76.891C74.3449 76.6366 74.8305 76.2974 75.1751 75.8733C75.5253 75.4469 75.7208 74.9897 75.7616 74.5015L78.6898 73.3129C78.8062 74.1247 78.7274 74.9093 78.4534 75.6665C78.1772 76.4181 77.7155 77.1029 77.0685 77.7208C76.4192 78.3332 75.6065 78.8375 74.6305 79.2338C73.3605 79.7493 72.1488 79.9311 70.9955 79.7792C69.8454 79.6194 68.8205 79.1473 67.9206 78.3628C67.0186 77.5727 66.2985 76.5149 65.7604 75.1895C65.2314 73.8862 65.0127 72.6314 65.1043 71.425C65.196 70.2186 65.584 69.1536 66.2684 68.2298C66.9583 67.3037 67.905 66.5965 69.1084 66.108C70.1954 65.6667 71.2743 65.5 72.3452 65.6079C73.416 65.7158 74.4091 66.1492 75.3244 66.9081C76.2374 67.6615 76.9854 68.7563 77.5685 70.1926L77.9434 71.116ZM74.2412 70.2547C74.007 69.6779 73.6729 69.2128 73.2387 68.8594C72.8079 68.4981 72.3188 68.28 71.7716 68.205C71.2277 68.1222 70.6729 68.1956 70.1072 68.4252C69.5249 68.6616 69.056 69.0102 68.7005 69.4711C68.3505 69.9297 68.1358 70.4431 68.0565 71.0115C67.9749 71.5743 68.0289 72.137 68.2185 72.6995L74.2412 70.2547ZM75.6254 58.6953L78.6201 57.4796L85.5359 74.5161L82.5412 75.7318L75.6254 58.6953ZM97.4935 63.1798L88.5843 66.7964C88.8881 67.5129 89.2827 68.0794 89.7683 68.4959C90.2517 68.9069 90.7937 69.152 91.3943 69.2311C91.9948 69.3103 92.6196 69.2182 93.2684 68.9548C93.8951 68.7004 94.3807 68.3612 94.7253 67.9371C95.0755 67.5107 95.271 67.0535 95.3118 66.5653L98.24 65.3767C98.3564 66.1885 98.2776 66.9731 98.0036 67.7303C97.7274 68.4819 97.2657 69.1667 96.6187 69.7846C95.9694 70.397 95.1567 70.9013 94.1807 71.2975C92.9107 71.8131 91.699 71.9949 90.5457 71.8429C89.3956 71.6832 88.3707 71.2111 87.4708 70.4266C86.5687 69.6365 85.8487 68.5787 85.3106 67.2533C84.7816 65.95 84.5629 64.6952 84.6545 63.4888C84.7462 62.2824 85.1342 61.2173 85.8186 60.2936C86.5085 59.3675 87.4552 58.6603 88.6586 58.1717C89.7456 57.7305 90.8245 57.5638 91.8954 57.6717C92.9662 57.7796 93.9593 58.213 94.8746 58.9719C95.7876 59.7252 96.5356 60.8201 97.1187 62.2564L97.4935 63.1798ZM93.7913 62.3185C93.5572 61.7417 93.2231 61.2766 92.7889 60.9231C92.358 60.5619 91.869 60.3438 91.3218 60.2688C90.7779 60.186 90.2231 60.2594 89.6574 60.489C89.0751 60.7254 88.6062 61.074 88.2506 61.5349C87.9007 61.9934 87.686 62.5069 87.6067 63.0753C87.5251 63.6381 87.5791 64.2008 87.7687 64.7633L93.7913 62.3185ZM102.233 67.7382L95.317 50.7016L98.3117 49.486L100.895 55.8497L101.011 55.8024C101.076 55.0397 101.297 54.3266 101.674 53.6634C102.054 52.9924 102.743 52.4542 103.741 52.049C104.74 51.6438 105.742 51.5342 106.747 51.7202C107.759 51.904 108.696 52.3988 109.559 53.2046C110.42 54.0049 111.131 55.0955 111.691 56.4764C112.245 57.8407 112.497 59.1142 112.448 60.2971C112.396 61.4743 112.077 62.4857 111.49 63.3312C110.903 64.1767 110.105 64.8043 109.095 65.214C107.426 65.8916 105.903 65.641 104.527 64.4621L104.352 64.533L105.169 66.5462L102.233 67.7382ZM102.559 60.1642C102.897 60.9961 103.312 61.6769 103.805 62.2068C104.298 62.7367 104.841 63.0812 105.436 63.2404C106.03 63.3997 106.643 63.351 107.276 63.0943C107.924 62.8309 108.404 62.4295 108.715 61.8899C109.031 61.3482 109.178 60.7167 109.157 59.9954C109.136 59.2742 108.96 58.5088 108.632 57.6991C108.305 56.895 107.901 56.2324 107.418 55.7114C106.938 55.1825 106.399 54.8396 105.799 54.6826C105.205 54.5234 104.58 54.5766 103.926 54.8423C103.288 55.1012 102.809 55.4893 102.49 56.0066C102.17 56.524 102.016 57.1388 102.027 57.8512C102.044 58.5613 102.222 59.3323 102.559 60.1642ZM116.654 61.884L111.467 49.1066L114.37 47.9281L115.235 50.0577L115.368 50.0036C115.298 49.1793 115.464 48.4499 115.865 47.8154C116.272 47.1787 116.844 46.7106 117.582 46.4112C117.754 46.3414 117.946 46.2732 118.158 46.2065C118.375 46.1376 118.558 46.0861 118.705 46.052L119.823 48.8055C119.667 48.8174 119.443 48.863 119.152 48.9423C118.859 49.016 118.593 49.1013 118.355 49.1981C117.811 49.4187 117.366 49.7383 117.019 50.1569C116.678 50.5732 116.468 51.0428 116.39 51.5656C116.309 52.0828 116.377 52.6076 116.593 53.14L119.649 60.6684L116.654 61.884ZM128.706 56.9915L125.712 58.2072L120.525 45.4298L123.519 44.2141L128.706 56.9915ZM121.291 42.9968C120.975 43.1251 120.652 43.1723 120.321 43.1385C119.997 43.1023 119.706 42.991 119.449 42.8045C119.193 42.618 119.005 42.3777 118.885 42.0838C118.764 41.7843 118.73 41.4783 118.784 41.1657C118.838 40.8531 118.969 40.5707 119.177 40.3185C119.39 40.064 119.654 39.8725 119.97 39.7442C120.281 39.6182 120.597 39.5771 120.918 39.621C121.243 39.6571 121.534 39.7685 121.79 39.955C122.053 40.1393 122.243 40.3784 122.363 40.6723C122.482 40.9662 122.512 41.2706 122.452 41.5854C122.398 41.898 122.268 42.1805 122.06 42.4327C121.858 42.6827 121.601 42.8707 121.291 42.9968ZM135.956 51.316C136.234 51.2034 136.631 51.0197 137.147 50.7647L138.143 53.2187C137.667 53.509 137.118 53.7802 136.497 54.0324C135.726 54.3453 134.987 54.4969 134.279 54.4872C133.574 54.4697 132.943 54.2673 132.385 53.88C131.833 53.4905 131.399 52.9075 131.084 52.1311L128.194 45.0104L126.38 45.7465L125.441 43.434L127.255 42.6978L126.012 39.6366L129.007 38.4209L130.249 41.4821L132.762 40.4623L133.7 42.7749L131.188 43.7947L133.876 50.4163C134.041 50.8212 134.229 51.1097 134.441 51.282C134.656 51.4466 134.885 51.5249 135.127 51.5169C135.375 51.5068 135.651 51.4398 135.956 51.316ZM144.016 56.3578C143.345 56.6302 142.819 56.8212 142.437 56.931L141.469 54.5235C141.786 54.4274 142.213 54.2702 142.751 54.0518C143.05 53.9303 143.288 53.8012 143.466 53.6647C143.645 53.5338 143.783 53.3258 143.881 53.0408C143.986 52.759 144.032 52.372 144.02 51.8797L144.009 51.0895L134.073 39.9302L137.25 38.6402L144.124 47.0994L144.257 47.0453L143.306 36.1819L146.492 34.8885L147.186 51.3017C147.234 52.5163 147.008 53.5444 146.51 54.3861C146.012 55.2278 145.181 55.885 144.016 56.3578Z" fill="white"/>
<rect x="0.325674" y="71.6025" width="189.5" height="50.5" rx="25.25" transform="rotate(-22.0942 0.325674 71.6025)" stroke="#2400FF" stroke-opacity="0.2" stroke-width="0.5"/>
</g>
<defs>
<filter id="filter0_b_3617_43234" x="-4" y="-4" width="203.23" height="126.72" filterUnits="userSpaceOnUse" color-interpolation-filters="sRGB">
<feFlood flood-opacity="0" result="BackgroundImageFix"/>
<feGaussianBlur in="BackgroundImageFix" stdDeviation="2"/>
<feComposite in2="SourceAlpha" operator="in" result="effect1_backgroundBlur_3617_43234"/>
<feBlend mode="normal" in="SourceGraphic" in2="effect1_backgroundBlur_3617_43234" result="shape"/>
</filter>
</defs>
</svg>
