<svg width="40" height="40" viewBox="0 0 40 40" fill="none" xmlns="http://www.w3.org/2000/svg">
<rect width="40" height="40" fill="#495057"/>
<g clip-path="url(#clip0_787_28100)">
<rect width="375" height="812" transform="translate(-168 -394)" fill="white"/>
<rect x="-147.5" y="-55.5" width="334" height="179" rx="25.5" fill="white" stroke="#EAECEF"/>
<circle cx="20" cy="20" r="20" fill="#F4F5F6"/>
<g clip-path="url(#clip1_787_28100)">
<path fill-rule="evenodd" clip-rule="evenodd" d="M20.8445 14.5009C20.8445 14.0314 20.464 13.6509 19.9945 13.6509C19.5251 13.6509 19.1445 14.0314 19.1445 14.5009V19.1509H14.4967C14.0273 19.1509 13.6467 19.5314 13.6467 20.0009C13.6467 20.4703 14.0273 20.8509 14.4967 20.8509H19.1445V25.5009C19.1445 25.9703 19.5251 26.3509 19.9945 26.3509C20.464 26.3509 20.8445 25.9703 20.8445 25.5009V20.8509H25.4967C25.9662 20.8509 26.3467 20.4703 26.3467 20.0009C26.3467 19.5314 25.9662 19.1509 25.4967 19.1509H20.8445V14.5009Z" fill="#AEB5BC"/>
</g>
</g>
<defs>
<clipPath id="clip0_787_28100">
<rect width="375" height="812" fill="white" transform="translate(-168 -394)"/>
</clipPath>
<clipPath id="clip1_787_28100">
<rect width="18" height="18" fill="white" transform="translate(11 11)"/>
</clipPath>
</defs>
</svg>
