<svg width="24" height="24" viewBox="0 0 24 24" fill="none" xmlns="http://www.w3.org/2000/svg">
<g clip-path="url(#clip0_4619_31)">
<path fill-rule="evenodd" clip-rule="evenodd" d="M15.8216 10.9101C15.8216 14.3586 13.026 17.1541 9.57755 17.1541C6.12905 17.1541 3.3335 14.3586 3.3335 10.9101C3.3335 7.46157 6.12905 4.66602 9.57755 4.66602C13.026 4.66602 15.8216 7.46157 15.8216 10.9101ZM14.5373 17.4959C13.1572 18.5369 11.4394 19.1541 9.57755 19.1541C5.02449 19.1541 1.3335 15.4631 1.3335 10.9101C1.3335 6.357 5.02449 2.66602 9.57755 2.66602C14.1306 2.66602 17.8216 6.357 17.8216 10.9101C17.8216 12.7718 17.2045 14.4895 16.1636 15.8695L19.4799 19.1859C19.929 19.635 19.929 20.3631 19.4799 20.8122C19.0308 21.2613 18.3027 21.2613 17.8536 20.8122L14.5373 17.4959Z" fill="#212529"/>
</g>
<defs>
<clipPath id="clip0_4619_31">
<rect width="24" height="24" fill="white"/>
</clipPath>
</defs>
</svg>
