<svg width="25" height="24" viewBox="0 0 25 24" fill="none" xmlns="http://www.w3.org/2000/svg">
<g clip-path="url(#clip0_3672_10100)">
<mask id="path-1-inside-1_3672_10100" fill="white">
<path fill-rule="evenodd" clip-rule="evenodd" d="M12.5 21.4923C18.5751 21.4923 23.5 17.0169 23.5 11.4962C23.5 5.97544 18.5751 1.5 12.5 1.5C6.42487 1.5 1.5 5.97544 1.5 11.4962C1.5 14.0212 2.5302 16.3275 4.22948 18.087L4.01467 21.8141C3.98598 22.3118 4.50699 22.6539 4.95254 22.4298L8.31009 20.7416C9.60148 21.2254 11.0164 21.4923 12.5 21.4923Z"/>
</mask>
<path d="M4.22948 18.087L6.22616 18.2021L6.27656 17.3277L5.6681 16.6976L4.22948 18.087ZM4.01467 21.8141L2.01798 21.699L4.01467 21.8141ZM4.95254 22.4298L4.0541 20.643L4.0541 20.643L4.95254 22.4298ZM8.31009 20.7416L9.01176 18.8687L8.19289 18.562L7.41164 18.9548L8.31009 20.7416ZM21.5 11.4962C21.5 15.7365 17.655 19.4923 12.5 19.4923V23.4923C19.4953 23.4923 25.5 18.2973 25.5 11.4962H21.5ZM12.5 3.5C17.655 3.5 21.5 7.2558 21.5 11.4962H25.5C25.5 4.69507 19.4953 -0.5 12.5 -0.5V3.5ZM3.5 11.4962C3.5 7.2558 7.34504 3.5 12.5 3.5V-0.5C5.5047 -0.5 -0.5 4.69507 -0.5 11.4962H3.5ZM5.6681 16.6976C4.29671 15.2776 3.5 13.4582 3.5 11.4962H-0.5C-0.5 14.5841 0.763692 17.3774 2.79086 19.4764L5.6681 16.6976ZM6.01135 21.9291L6.22616 18.2021L2.23279 17.9719L2.01798 21.699L6.01135 21.9291ZM4.0541 20.643C4.98269 20.1761 6.07133 20.8885 6.01135 21.9291L2.01798 21.699C1.90063 23.735 4.03129 25.1316 5.85099 24.2167L4.0541 20.643ZM7.41164 18.9548L4.0541 20.643L5.85099 24.2167L9.20853 22.5285L7.41164 18.9548ZM12.5 19.4923C11.2571 19.4923 10.0797 19.2689 9.01176 18.8687L7.60841 22.6145C9.12326 23.182 10.7758 23.4923 12.5 23.4923V19.4923Z" fill="#AEB5BC" mask="url(#path-1-inside-1_3672_10100)"/>
<circle cx="8" cy="11.5" r="1.5" fill="#AEB5BC"/>
<circle cx="12.5" cy="11.5" r="1.5" fill="#AEB5BC"/>
<circle cx="17" cy="11.5" r="1.5" fill="#AEB5BC"/>
</g>
<defs>
<clipPath id="clip0_3672_10100">
<rect width="24" height="24" fill="white" transform="translate(0.5)"/>
</clipPath>
</defs>
</svg>
