<svg width="36" height="36" viewBox="0 0 36 36" fill="none" xmlns="http://www.w3.org/2000/svg">
<path fill-rule="evenodd" clip-rule="evenodd" d="M26.5212 12.4522C25.7875 8.21918 22.0966 5 17.6538 5C13.0197 5 9.20359 8.50243 8.70823 13.0046C3.87271 13.1586 0 17.127 0 21.9999C0 24.089 0.711727 26.0117 1.90592 27.539L26.5212 12.4522ZM32.7237 15.688L7.8581 30.9282C8.23206 30.9755 8.61318 30.9999 9 30.9999H26.3081H26.5L26.4979 30.998C31.3808 30.897 35.3081 26.9071 35.3081 21.9999C35.3081 19.541 34.322 17.3124 32.7237 15.688Z" fill="#EAECEF"/>
<path d="M2 31L33 12" stroke="#C7CED4" stroke-width="3" stroke-linecap="round"/>
</svg>
