<svg width="375" height="201" viewBox="0 0 375 201" fill="none" xmlns="http://www.w3.org/2000/svg">
<rect width="375" height="201" fill="#FFF1E9"/>
<path opacity="0.35" d="M320 43L375 0V201L320 158V43Z" fill="#FFD9CC"/>
<path opacity="0.35" d="M0 0L55 43V158L0 201V0Z" fill="#FFD9CC"/>
<path opacity="0.25" d="M0 0H375L320 43H55L0 0Z" fill="#FFE1D0"/>
<path opacity="0.25" d="M54.9999 158H320L375 201H0L54.9999 158Z" fill="#FFE1D0"/>
<path fill-rule="evenodd" clip-rule="evenodd" d="M106.979 132.248C101.991 132.351 98 136.424 98 141.414V141.601C98 144.239 99.1135 146.616 100.896 148.288L100.62 148.15L101.352 148.689C101.606 148.897 101.871 149.092 102.146 149.273L126.736 167.36C131.923 170.213 137.807 171.553 143.718 171.226L270.642 164.218C274.209 164.021 277 161.071 277 157.499C277 153.782 273.987 150.77 270.271 150.77L269.496 150.77C273.158 150.77 276.127 147.801 276.127 144.139C276.127 140.908 273.798 138.147 270.613 137.603L235.048 131.523C228.395 130.386 221.65 129.884 214.902 130.023L106.979 132.248Z" fill="#FFE9DF"/>
<path d="M106.979 132.248C101.991 132.351 98 136.424 98 141.414V141.601C98 144.239 99.186 149.416 100.968 151.089L115.126 161.966C120.474 165.551 124.459 168.529 128.312 170.047C132.775 171.805 137.153 171.589 141.942 171.324L270.642 164.218C274.209 164.021 277 161.071 277 157.499C277 153.782 273.987 150.77 270.271 150.77L269.496 150.77C273.158 150.77 276.127 147.801 276.127 144.139C276.127 140.908 273.798 138.147 270.613 137.603L235.048 131.523C228.395 130.386 221.65 129.884 214.902 130.023L106.979 132.248Z" fill="#FFE9DF"/>
<mask id="mask0_2652_31812" style="mask-type:alpha" maskUnits="userSpaceOnUse" x="98" y="130" width="179" height="42">
<path d="M106.979 132.248C101.991 132.351 98 136.424 98 141.414V141.601C98 144.239 99.186 149.416 100.968 151.089L115.126 161.966C120.474 165.551 124.459 168.529 128.312 170.047C132.775 171.805 137.153 171.589 141.942 171.324L270.642 164.218C274.209 164.021 277 161.071 277 157.499C277 153.782 273.987 150.77 270.271 150.77L269.496 150.77C273.158 150.77 276.127 147.801 276.127 144.139C276.127 140.908 273.798 138.147 270.613 137.603L235.048 131.523C228.395 130.386 221.65 129.884 214.902 130.023L106.979 132.248Z" fill="#CDF4D7"/>
</mask>
<g mask="url(#mask0_2652_31812)">
<rect x="126.635" y="144.748" width="158.687" height="27.8449" rx="13.9224" transform="rotate(-3.1783 126.635 144.748)" fill="url(#paint0_linear_2652_31812)" fill-opacity="0.1"/>
<path opacity="0.5" d="M148.686 158.225C148.716 157.686 149.145 157.256 149.684 157.224L276.188 149.653C276.824 149.615 277.35 150.14 277.314 150.775C277.283 151.314 276.854 151.744 276.315 151.776L149.811 159.347C149.176 159.385 148.65 158.86 148.686 158.225Z" fill="#FFCCB5"/>
</g>
<g opacity="0.1" filter="url(#filter0_f_2652_31812)">
<path d="M104.558 131L257.306 132.394C257.774 132.398 258.239 132.468 258.688 132.601L270.409 136.092C270.502 136.119 270.59 136.159 270.672 136.21C271.573 136.768 271.227 138.153 270.17 138.222L195.326 143.133L129.575 144.96C128.629 144.986 127.696 144.744 126.882 144.261L104.558 131Z" fill="#975F44"/>
</g>
<path fill-rule="evenodd" clip-rule="evenodd" d="M106.979 105.248C101.991 105.351 98 109.424 98 114.414V114.601C98 117.239 99.1135 119.616 100.896 121.288L100.62 121.15L101.352 121.689C101.606 121.897 101.871 122.092 102.146 122.273L126.736 140.36C131.923 143.213 137.807 144.553 143.718 144.226L270.642 137.218C274.209 137.021 277 134.071 277 130.499C277 126.782 273.987 123.77 270.271 123.77L269.496 123.77C273.158 123.77 276.127 120.801 276.127 117.139C276.127 113.908 273.798 111.147 270.613 110.603L235.048 104.523C228.395 103.386 221.65 102.884 214.902 103.023L106.979 105.248Z" fill="#FFE9DF"/>
<path d="M106.979 105.248C101.991 105.351 98 109.424 98 114.414V114.601C98 117.239 99.186 122.416 100.968 124.089L115.126 134.966C120.474 138.551 124.459 141.529 128.312 143.047C132.775 144.805 137.153 144.589 141.942 144.324L270.642 137.218C274.209 137.021 277 134.071 277 130.499C277 126.782 273.987 123.77 270.271 123.77L269.496 123.77C273.158 123.77 276.127 120.801 276.127 117.139C276.127 113.908 273.798 111.147 270.613 110.603L235.048 104.523C228.395 103.386 221.65 102.884 214.902 103.023L106.979 105.248Z" fill="#FFE9DF"/>
<mask id="mask1_2652_31812" style="mask-type:alpha" maskUnits="userSpaceOnUse" x="98" y="103" width="179" height="42">
<path d="M106.979 105.248C101.991 105.351 98 109.424 98 114.414V114.601C98 117.239 99.186 122.416 100.968 124.089L115.126 134.966C120.474 138.551 124.459 141.529 128.312 143.047C132.775 144.805 137.153 144.589 141.942 144.324L270.642 137.218C274.209 137.021 277 134.071 277 130.499C277 126.782 273.987 123.77 270.271 123.77L269.496 123.77C273.158 123.77 276.127 120.801 276.127 117.139C276.127 113.908 273.798 111.147 270.613 110.603L235.048 104.523C228.395 103.386 221.65 102.884 214.902 103.023L106.979 105.248Z" fill="#CDF4D7"/>
</mask>
<g mask="url(#mask1_2652_31812)">
<rect x="126.635" y="117.748" width="158.687" height="27.8449" rx="13.9224" transform="rotate(-3.1783 126.635 117.748)" fill="url(#paint1_linear_2652_31812)" fill-opacity="0.1"/>
<path opacity="0.5" d="M148.686 131.225C148.716 130.686 149.145 130.256 149.684 130.224L276.188 122.653C276.824 122.615 277.35 123.14 277.314 123.775C277.283 124.314 276.854 124.744 276.315 124.776L149.811 132.347C149.176 132.385 148.65 131.86 148.686 131.225Z" fill="#FFCCB5"/>
</g>
<g opacity="0.1" filter="url(#filter1_f_2652_31812)">
<path d="M104.558 102L257.306 103.394C257.774 103.398 258.239 103.468 258.688 103.601L270.409 107.092C270.502 107.119 270.59 107.159 270.672 107.21C271.573 107.768 271.227 109.153 270.17 109.222L195.326 114.133L129.575 115.96C128.629 115.986 127.696 115.744 126.882 115.261L104.558 102Z" fill="#975F44"/>
</g>
<path fill-rule="evenodd" clip-rule="evenodd" d="M106.979 78.2479C101.991 78.3507 98 82.4243 98 87.4142V87.6013C98 90.2385 99.1135 92.6157 100.896 94.2883L100.62 94.1501L101.352 94.6891C101.606 94.8973 101.871 95.0922 102.146 95.2727L126.736 113.36C131.923 116.213 137.807 117.553 143.718 117.226L270.642 110.218C274.209 110.021 277 107.071 277 103.499C277 99.7824 273.987 96.7696 270.271 96.7696L269.496 96.7696C273.158 96.7696 276.127 93.8008 276.127 90.1387C276.127 86.9077 273.798 84.1471 270.613 83.6027L235.048 77.5231C228.395 76.3859 221.65 75.8835 214.902 76.0226L106.979 78.2479Z" fill="#FFE9DF"/>
<path d="M106.979 78.2479C101.991 78.3507 98 82.4243 98 87.4142V87.6013C98 90.2385 99.186 95.4164 100.968 97.089L115.126 107.966C120.474 111.551 124.459 114.529 128.312 116.047C132.775 117.805 137.153 117.589 141.942 117.324L270.642 110.218C274.209 110.021 277 107.071 277 103.499C277 99.7824 273.987 96.7696 270.271 96.7696L269.496 96.7696C273.158 96.7696 276.127 93.8008 276.127 90.1387C276.127 86.9077 273.798 84.1471 270.613 83.6027L235.048 77.5231C228.395 76.3859 221.65 75.8835 214.902 76.0226L106.979 78.2479Z" fill="#FFE9DF"/>
<mask id="mask2_2652_31812" style="mask-type:alpha" maskUnits="userSpaceOnUse" x="98" y="76" width="179" height="42">
<path d="M106.979 78.2479C101.991 78.3507 98 82.4243 98 87.4142V87.6013C98 90.2385 99.186 95.4164 100.968 97.089L115.126 107.966C120.474 111.551 124.459 114.529 128.312 116.047C132.775 117.805 137.153 117.589 141.942 117.324L270.642 110.218C274.209 110.021 277 107.071 277 103.499C277 99.7824 273.987 96.7696 270.271 96.7696L269.496 96.7696C273.158 96.7696 276.127 93.8008 276.127 90.1387C276.127 86.9077 273.798 84.1471 270.613 83.6027L235.048 77.5231C228.395 76.3859 221.65 75.8835 214.902 76.0226L106.979 78.2479Z" fill="#CDF4D7"/>
</mask>
<g mask="url(#mask2_2652_31812)">
<rect x="126.635" y="90.7478" width="158.687" height="27.8449" rx="13.9224" transform="rotate(-3.1783 126.635 90.7478)" fill="url(#paint2_linear_2652_31812)" fill-opacity="0.1"/>
<path opacity="0.5" d="M148.686 104.225C148.716 103.686 149.145 103.256 149.684 103.224L276.188 95.6529C276.824 95.6149 277.35 96.1395 277.314 96.7749C277.283 97.3137 276.854 97.7442 276.315 97.7764L149.811 105.347C149.176 105.385 148.65 104.86 148.686 104.225Z" fill="#FFCCB5"/>
</g>
<defs>
<filter id="filter0_f_2652_31812" x="96.5576" y="123" width="182.631" height="29.9617" filterUnits="userSpaceOnUse" color-interpolation-filters="sRGB">
<feFlood flood-opacity="0" result="BackgroundImageFix"/>
<feBlend mode="normal" in="SourceGraphic" in2="BackgroundImageFix" result="shape"/>
<feGaussianBlur stdDeviation="4" result="effect1_foregroundBlur_2652_31812"/>
</filter>
<filter id="filter1_f_2652_31812" x="96.5576" y="94" width="182.631" height="29.9617" filterUnits="userSpaceOnUse" color-interpolation-filters="sRGB">
<feFlood flood-opacity="0" result="BackgroundImageFix"/>
<feBlend mode="normal" in="SourceGraphic" in2="BackgroundImageFix" result="shape"/>
<feGaussianBlur stdDeviation="4" result="effect1_foregroundBlur_2652_31812"/>
</filter>
<linearGradient id="paint0_linear_2652_31812" x1="199.832" y1="138.592" x2="199.832" y2="166.677" gradientUnits="userSpaceOnUse">
<stop stop-color="#E48752"/>
<stop offset="1" stop-color="#EAAA85"/>
</linearGradient>
<linearGradient id="paint1_linear_2652_31812" x1="199.832" y1="111.592" x2="199.832" y2="139.677" gradientUnits="userSpaceOnUse">
<stop stop-color="#E48752"/>
<stop offset="1" stop-color="#EAAA85"/>
</linearGradient>
<linearGradient id="paint2_linear_2652_31812" x1="199.832" y1="84.5918" x2="199.832" y2="112.677" gradientUnits="userSpaceOnUse">
<stop stop-color="#E48752"/>
<stop offset="1" stop-color="#EAAA85"/>
</linearGradient>
</defs>
</svg>
