<svg width="178" height="132" viewBox="0 0 178 132" fill="none" xmlns="http://www.w3.org/2000/svg">
<g filter="url(#filter0_b_3617_43236)">
<rect x="25.5" width="175" height="51" rx="25.5" transform="rotate(30 25.5 0)" fill="#00A3FF" fill-opacity="0.51"/>
<path d="M53.3053 35.2414L63.5082 41.132L62.1244 43.5288L54.7801 39.2886L52.2664 43.6424L58.907 47.4764L57.5233 49.8732L50.8826 46.0392L46.9724 52.8118L44.1139 51.1614L53.3053 35.2414ZM57.8863 54.6271C58.5972 53.3958 59.5234 52.748 60.6648 52.6838C61.8178 52.6165 63.0662 52.917 64.4101 53.5854C65.7289 54.2296 66.7816 54.7591 67.5681 55.1742L68.114 54.2286C68.4568 53.6349 68.5344 53.0689 68.3468 52.5306C68.1634 51.9849 67.7272 51.5132 67.0382 51.1154C66.4299 50.7642 65.8574 50.6047 65.3208 50.637C64.7842 50.6692 64.334 50.8735 63.9701 51.2498L61.2655 49.6883C61.725 49.0447 62.3181 48.576 63.0449 48.2821C63.7758 47.9809 64.5966 47.888 65.5073 48.0034C66.418 48.1187 67.3608 48.4578 68.3356 49.0206C69.1712 49.503 69.8793 50.0877 70.4599 50.7748C71.0521 51.4587 71.405 52.244 71.5186 53.1305C71.6438 54.0139 71.4187 54.954 70.8431 55.9509L66.2347 63.9329L63.5521 62.384L64.5042 60.7349L64.4163 60.6841C63.8015 61.0719 63.0993 61.2724 62.3098 61.2857C61.5203 61.299 60.6858 61.0517 59.8063 60.5439C59.0366 60.0995 58.4281 59.5625 57.9805 58.9327C57.5403 58.3072 57.3045 57.6238 57.2732 56.8825C57.2418 56.1412 57.4462 55.3894 57.8863 54.6271ZM60.6036 56.1667C60.3116 56.6724 60.2706 57.1667 60.4805 57.6495C60.6947 58.1249 61.1096 58.5404 61.7253 58.8959C62.275 59.2132 62.8259 59.3847 63.3779 59.4103C63.93 59.4358 64.4276 59.3273 64.8706 59.0847C65.3252 58.8389 65.6816 58.4925 65.9397 58.0454L66.4937 57.0606C66.1554 56.8848 65.5756 56.594 64.7544 56.1883C64.3166 55.9649 63.9887 55.8049 63.7708 55.7084C63.0479 55.3692 62.4134 55.2326 61.8672 55.2984C61.3211 55.3642 60.8999 55.6536 60.6036 56.1667ZM80.5718 60.8348C80.7462 60.3295 80.7263 59.8392 80.5122 59.3637C80.2981 58.8883 79.8978 58.4813 79.3114 58.1427C78.9156 57.9142 78.5205 57.7692 78.1261 57.7076C77.7432 57.6429 77.4003 57.6697 77.0974 57.788C76.7988 57.899 76.577 58.0886 76.432 58.3567C76.0418 58.9817 76.3438 59.7619 77.338 60.6975L79.1198 62.2833C80.1078 63.1957 80.7243 64.0745 80.9693 64.9197C81.2143 65.7648 81.093 66.6182 80.6052 67.48C80.1662 68.2234 79.5707 68.764 78.8186 69.1019C78.0707 69.4324 77.2189 69.5367 76.2631 69.4149C75.3188 69.2899 74.3336 68.9312 73.3075 68.3388C71.8049 67.4713 70.7942 66.4627 70.2755 65.3129C69.7684 64.1601 69.7737 62.966 70.2915 61.7306L73.15 63.381C72.946 63.9375 72.9605 64.4541 73.1935 64.9307C73.4381 65.4042 73.8866 65.8292 74.5389 66.2059C75.2132 66.5952 75.8297 66.7801 76.3883 66.7605C76.9468 66.741 77.3531 66.5113 77.607 66.0715C77.8059 65.727 77.8259 65.3623 77.667 64.9774C77.5196 64.5894 77.1872 64.158 76.6697 63.6833L74.9978 62.161C74.018 61.3021 73.4052 60.4254 73.1593 59.531C72.9208 58.6408 73.0512 57.7632 73.5505 56.8983C73.9695 56.1727 74.5355 55.6492 75.2487 55.328C75.9661 54.9995 76.7744 54.8944 77.6735 55.0129C78.5727 55.1313 79.506 55.4698 80.4735 56.0284C81.4117 56.5701 82.1443 57.1885 82.6714 57.8837C83.21 58.5758 83.5264 59.3058 83.6206 60.0736C83.7148 60.8414 83.5854 61.6072 83.2324 62.3709L80.5718 60.8348ZM83.496 73.8987L80.6815 72.2737L89.8729 56.3537L92.6215 57.9406L89.1557 63.9436L89.3096 64.0325C89.9975 63.5012 90.7425 63.2179 91.5447 63.1826C92.3584 63.1443 93.2124 63.3832 94.1066 63.8995C94.9349 64.3777 95.5553 64.9704 95.9679 65.6777C96.392 66.3819 96.578 67.1685 96.5258 68.0375C96.4737 68.9065 96.1746 69.8137 95.6287 70.7593L91.2362 78.3674L88.4436 76.7551L92.5822 69.5867C93.052 68.7731 93.2049 68.0259 93.041 67.3449C92.8887 66.6608 92.4424 66.105 91.7021 65.6776C91.1963 65.3856 90.6821 65.2353 90.1593 65.2267C89.6481 65.215 89.1641 65.3509 88.7072 65.6344C88.2504 65.9179 87.859 66.3418 87.5332 66.9062L83.496 73.8987ZM100.79 67.9636L103.605 69.5886L96.7114 81.5286L93.8968 79.9036L100.79 67.9636ZM103.197 67.0956C102.911 66.9306 102.678 66.708 102.498 66.428C102.329 66.1449 102.239 65.8437 102.228 65.5245C102.221 65.198 102.298 64.8955 102.459 64.6169C102.615 64.3458 102.835 64.1352 103.117 63.9853C103.399 63.8354 103.702 63.7664 104.028 63.7783C104.365 63.7872 104.676 63.8741 104.962 64.0392C105.255 64.2084 105.486 64.4346 105.655 64.7178C105.828 64.9936 105.92 65.2911 105.931 65.6103C105.942 65.9295 105.87 66.2247 105.713 66.4959C105.552 66.7744 105.329 66.9923 105.042 67.1495C104.76 67.2994 104.455 67.3721 104.125 67.3675C103.8 67.3555 103.49 67.2649 103.197 67.0956ZM104.466 86.3281C103.322 85.6679 102.466 84.8316 101.898 83.8192C101.329 82.8068 101.077 81.7034 101.141 80.509C101.209 79.3073 101.597 78.0944 102.303 76.8704C103.014 75.639 103.873 74.6933 104.88 74.0333C105.886 73.3732 106.97 73.0364 108.131 73.0226C109.292 73.0089 110.444 73.3321 111.588 73.9923C112.739 74.6567 113.598 75.4951 114.167 76.5075C114.736 77.5199 114.982 78.6249 114.906 79.8223C114.838 81.024 114.449 82.2406 113.738 83.4719C113.031 84.696 112.174 85.638 111.168 86.2981C110.161 86.9581 109.077 87.295 107.916 87.3087C106.767 87.3193 105.617 86.9924 104.466 86.3281ZM105.783 84.0979C106.398 84.4534 107.018 84.5816 107.642 84.4825C108.274 84.3877 108.867 84.1048 109.422 83.6338C109.985 83.1671 110.482 82.5599 110.914 81.8123C111.341 81.072 111.616 80.3415 111.739 79.6208C111.874 78.8971 111.824 78.2381 111.59 77.644C111.364 77.054 110.943 76.5813 110.328 76.2258C109.697 75.8619 109.063 75.7252 108.424 75.8158C107.793 75.9106 107.196 76.1914 106.633 76.6582C106.078 77.1292 105.584 77.7385 105.153 78.4861C104.721 79.2337 104.44 79.9657 104.31 80.6822C104.187 81.4028 104.242 82.0602 104.476 82.6544C104.717 83.2528 105.152 83.734 105.783 84.0979ZM115.314 92.2688L112.499 90.6438L119.393 78.7038L122.076 80.2526L120.908 82.2756L121.062 82.3645C121.738 81.8363 122.487 81.5552 123.308 81.521C124.136 81.4911 124.986 81.7279 125.859 82.2315C126.687 82.7097 127.307 83.3025 127.72 84.0098C128.14 84.7213 128.32 85.5094 128.26 86.3742C128.208 87.2432 127.908 88.1446 127.359 89.0786L122.966 96.6868L120.174 95.0745L124.312 87.9061C124.778 87.0998 124.934 86.3546 124.782 85.6706C124.63 84.9865 124.187 84.4328 123.454 84.0097C122.956 83.7219 122.452 83.5779 121.944 83.5778C121.44 83.5703 120.964 83.7104 120.514 83.9981C120.069 84.2785 119.681 84.7046 119.351 85.2763L115.314 92.2688Z" fill="white"/>
<rect x="25.5915" y="0.341506" width="174.5" height="50.5" rx="25.25" transform="rotate(30 25.5915 0.341506)" stroke="#00A3FF" stroke-opacity="0.2" stroke-width="0.5"/>
</g>
<defs>
<filter id="filter0_b_3617_43236" x="-4" y="-4" width="185.055" height="139.667" filterUnits="userSpaceOnUse" color-interpolation-filters="sRGB">
<feFlood flood-opacity="0" result="BackgroundImageFix"/>
<feGaussianBlur in="BackgroundImageFix" stdDeviation="2"/>
<feComposite in2="SourceAlpha" operator="in" result="effect1_backgroundBlur_3617_43236"/>
<feBlend mode="normal" in="SourceGraphic" in2="effect1_backgroundBlur_3617_43236" result="shape"/>
</filter>
</defs>
</svg>
