<svg width="76" height="76" viewBox="0 0 76 76" fill="none" xmlns="http://www.w3.org/2000/svg">
<path d="M0 16C0 7.16344 7.16344 0 16 0H60C68.8366 0 76 7.16344 76 16V60C76 68.8366 68.8366 76 60 76H16C7.16344 76 0 68.8366 0 60V16Z" fill="#FCF0F6"/>
<g filter="url(#filter0_b_4784_30685)">
<mask id="path-2-inside-1_4784_30685" fill="white">
<path fill-rule="evenodd" clip-rule="evenodd" d="M50.7061 47.4262C48.2005 49.0543 45.2107 50 42 50C33.1634 50 26 42.8366 26 34C26 25.1634 33.1634 18 42 18C50.8366 18 58 25.1634 58 34C58 37.0818 57.1287 39.9601 55.619 42.402L60.0281 46.0057C61.5248 47.229 61.7645 49.4485 60.5634 50.9631C59.3624 52.4777 57.1755 52.7138 55.6788 51.4906L50.7061 47.4262ZM51.0065 33.9314C51.0065 38.9682 46.9234 43.0514 41.8865 43.0514C36.8497 43.0514 32.7665 38.9682 32.7665 33.9314C32.7665 28.8945 36.8497 24.8114 41.8865 24.8114C46.9234 24.8114 51.0065 28.8945 51.0065 33.9314Z"/>
</mask>
<path fill-rule="evenodd" clip-rule="evenodd" d="M50.7061 47.4262C48.2005 49.0543 45.2107 50 42 50C33.1634 50 26 42.8366 26 34C26 25.1634 33.1634 18 42 18C50.8366 18 58 25.1634 58 34C58 37.0818 57.1287 39.9601 55.619 42.402L60.0281 46.0057C61.5248 47.229 61.7645 49.4485 60.5634 50.9631C59.3624 52.4777 57.1755 52.7138 55.6788 51.4906L50.7061 47.4262ZM51.0065 33.9314C51.0065 38.9682 46.9234 43.0514 41.8865 43.0514C36.8497 43.0514 32.7665 38.9682 32.7665 33.9314C32.7665 28.8945 36.8497 24.8114 41.8865 24.8114C46.9234 24.8114 51.0065 28.8945 51.0065 33.9314Z" fill="url(#paint0_linear_4784_30685)" fill-opacity="0.6"/>
<path d="M50.7061 47.4262L50.7694 47.3488L50.7129 47.3026L50.6516 47.3424L50.7061 47.4262ZM55.619 42.402L55.5339 42.3494L55.4878 42.424L55.5557 42.4795L55.619 42.402ZM60.0281 46.0057L60.0914 45.9283L60.0281 46.0057ZM60.5634 50.9631L60.4851 50.901L60.5634 50.9631ZM55.6788 51.4906L55.6155 51.568L55.6788 51.4906ZM42 50.1C45.2306 50.1 48.2393 49.1484 50.7606 47.5101L50.6516 47.3424C48.1618 48.9602 45.1908 49.9 42 49.9V50.1ZM25.9 34C25.9 42.8918 33.1082 50.1 42 50.1V49.9C33.2187 49.9 26.1 42.7813 26.1 34H25.9ZM42 17.9C33.1082 17.9 25.9 25.1082 25.9 34H26.1C26.1 25.2187 33.2187 18.1 42 18.1V17.9ZM58.1 34C58.1 25.1082 50.8918 17.9 42 17.9V18.1C50.7813 18.1 57.9 25.2187 57.9 34H58.1ZM55.7041 42.4546C57.2232 39.9974 58.1 37.1009 58.1 34H57.9C57.9 37.0627 57.0342 39.9229 55.5339 42.3494L55.7041 42.4546ZM55.5557 42.4795L59.9648 46.0832L60.0914 45.9283L55.6823 42.3246L55.5557 42.4795ZM59.9648 46.0832C61.4192 47.2719 61.6522 49.4292 60.4851 50.901L60.6418 51.0252C61.8768 49.4678 61.6304 47.1862 60.0914 45.9283L59.9648 46.0832ZM60.4851 50.901C59.3187 52.3718 57.1956 52.6011 55.7421 51.4131L55.6155 51.568C57.1554 52.8266 59.4061 52.5835 60.6418 51.0252L60.4851 50.901ZM55.7421 51.4131L50.7694 47.3488L50.6428 47.5037L55.6155 51.568L55.7421 51.4131ZM41.8865 43.1514C46.9786 43.1514 51.1065 39.0234 51.1065 33.9314H50.9065C50.9065 38.913 46.8682 42.9514 41.8865 42.9514V43.1514ZM32.6665 33.9314C32.6665 39.0234 36.7945 43.1514 41.8865 43.1514V42.9514C36.9049 42.9514 32.8665 38.913 32.8665 33.9314H32.6665ZM41.8865 24.7114C36.7945 24.7114 32.6665 28.8393 32.6665 33.9314H32.8665C32.8665 28.9497 36.9049 24.9114 41.8865 24.9114V24.7114ZM51.1065 33.9314C51.1065 28.8393 46.9786 24.7114 41.8865 24.7114V24.9114C46.8682 24.9114 50.9065 28.9497 50.9065 33.9314H51.1065Z" fill="#FF8BAB" mask="url(#path-2-inside-1_4784_30685)"/>
</g>
<g filter="url(#filter1_b_4784_30685)">
<rect x="16" y="32" width="30" height="24" rx="5" fill="url(#paint1_linear_4784_30685)" fill-opacity="0.28"/>
<rect x="16.05" y="32.05" width="29.9" height="23.9" rx="4.95" stroke="#FFC6D5" stroke-width="0.1"/>
</g>
<defs>
<filter id="filter0_b_4784_30685" x="17.48" y="9.48" width="52.3681" height="51.3134" filterUnits="userSpaceOnUse" color-interpolation-filters="sRGB">
<feFlood flood-opacity="0" result="BackgroundImageFix"/>
<feGaussianBlur in="BackgroundImageFix" stdDeviation="4.26"/>
<feComposite in2="SourceAlpha" operator="in" result="effect1_backgroundBlur_4784_30685"/>
<feBlend mode="normal" in="SourceGraphic" in2="effect1_backgroundBlur_4784_30685" result="shape"/>
</filter>
<filter id="filter1_b_4784_30685" x="14" y="30" width="34" height="28" filterUnits="userSpaceOnUse" color-interpolation-filters="sRGB">
<feFlood flood-opacity="0" result="BackgroundImageFix"/>
<feGaussianBlur in="BackgroundImageFix" stdDeviation="1"/>
<feComposite in2="SourceAlpha" operator="in" result="effect1_backgroundBlur_4784_30685"/>
<feBlend mode="normal" in="SourceGraphic" in2="effect1_backgroundBlur_4784_30685" result="shape"/>
</filter>
<linearGradient id="paint0_linear_4784_30685" x1="43.5" y1="23.5952" x2="75.5" y2="83.5952" gradientUnits="userSpaceOnUse">
<stop stop-color="#FF4672"/>
<stop offset="1" stop-color="#FF6489" stop-opacity="0"/>
</linearGradient>
<linearGradient id="paint1_linear_4784_30685" x1="31" y1="32" x2="31" y2="56" gradientUnits="userSpaceOnUse">
<stop stop-color="#FFBFCD"/>
<stop offset="1" stop-color="#FF8787"/>
</linearGradient>
</defs>
</svg>
