<svg width="60" height="60" viewBox="0 0 60 60" fill="none" xmlns="http://www.w3.org/2000/svg">
<circle cx="30" cy="30" r="29.5" fill="white" stroke="#DFE2E6"/>
<path fill-rule="evenodd" clip-rule="evenodd" d="M30.6513 19.438C33.7778 19.438 35.8868 20.7885 37.0893 21.917L41.7883 17.329C38.9023 14.6465 35.1468 13 30.6513 13C24.1393 13 18.5153 16.737 15.7773 22.176L21.1608 26.357C22.5113 22.3425 26.2483 19.438 30.6513 19.438Z" fill="#EA4335"/>
<path fill-rule="evenodd" clip-rule="evenodd" d="M46.6324 30.0212C46.6324 28.6522 46.5214 27.6532 46.2809 26.6172H30.6484V32.7962H39.8244C39.6394 34.3317 38.6404 36.6442 36.4204 38.1982L41.6744 42.2682C44.8194 39.3637 46.6324 35.0902 46.6324 30.0212Z" fill="#4285F4"/>
<path fill-rule="evenodd" clip-rule="evenodd" d="M21.178 32.9428C20.8265 31.9068 20.623 30.7968 20.623 29.6498C20.623 28.5028 20.8265 27.3928 21.1595 26.3568L15.776 22.1758C14.6475 24.4328 14 26.9673 14 29.6498C14 32.3323 14.6475 34.8668 15.776 37.1238L21.178 32.9428Z" fill="#FBBC05"/>
<path fill-rule="evenodd" clip-rule="evenodd" d="M30.6485 46.2984C35.144 46.2984 38.918 44.8184 41.6745 42.2654L36.4205 38.1954C35.0145 39.1759 33.1275 39.8604 30.6485 39.8604C26.2455 39.8604 22.5085 36.9559 21.1765 32.9414L15.793 37.1224C18.531 42.5614 24.1365 46.2984 30.6485 46.2984Z" fill="#34A853"/>
</svg>
