<svg width="68" height="68" viewBox="0 0 68 68" fill="none" xmlns="http://www.w3.org/2000/svg">
<path d="M16.5907 52.823L19.6498 54.0509C20.0633 54.2168 20.0696 54.7998 19.6599 54.9747L5.71159 60.9282C5.27379 61.115 4.84723 60.6423 5.07798 60.2259L11.998 47.7401C12.1972 47.3808 12.7207 47.4017 12.8906 47.7758L14.1805 50.6168C14.3211 50.9263 14.7228 51.0084 14.9735 50.7788L32.5993 34.6365C32.966 34.3006 33.5306 34.3074 33.8891 34.6521C34.2814 35.0292 34.2737 35.6592 33.8724 36.0267L16.4393 51.9902C16.1677 52.2389 16.249 52.6859 16.5907 52.823Z" fill="#8C5D66"/>
<g filter="url(#filter0_b_3582_42472)">
<path d="M53.3695 27.709C53.2694 21.7523 48.9967 17.7183 44.3122 16.7355C41.9625 16.2426 39.4657 16.504 37.2989 17.7032C35.3723 18.7694 33.7605 20.5475 32.7541 23.0761C31.6665 20.5777 30.0016 18.8499 28.0461 17.8451C25.8469 16.715 23.3501 16.5348 21.0252 17.1054C16.3894 18.2431 12.2728 22.4215 12.3729 28.3762C12.4142 30.8365 13.2712 33.4069 14.5529 35.9097C15.8386 38.4204 17.5826 40.9227 19.4692 43.2625C23.2419 47.9415 27.6515 52.0516 30.3071 54.3813C32.0491 55.9095 34.6103 55.8675 36.3024 54.2828C38.881 51.8678 43.1541 47.6168 46.7709 42.818C48.5795 40.4183 50.24 37.8606 51.4418 35.3096C52.6399 32.7664 53.4108 30.1695 53.3695 27.709Z" fill="url(#paint0_linear_3582_42472)"/>
</g>
<path d="M47.5904 13.479L54.4323 6.54172C54.7463 6.22338 55.2883 6.4457 55.2883 6.89282V12.8072C55.2883 13.0833 55.5122 13.3072 55.7883 13.3072H62.4338C62.8783 13.3072 63.1018 13.8438 62.7887 14.1593L55.435 21.571C55.3411 21.6656 55.2134 21.7188 55.0801 21.7188H49.0593C48.9323 21.7188 48.81 21.7672 48.7173 21.8541L37.1846 32.6714C36.813 33.02 36.2337 33.0173 35.8653 32.6652C35.4674 32.2848 35.4704 31.6484 35.8719 31.2718L47.2879 20.5658C47.3886 20.4713 47.4458 20.3393 47.4458 20.2011L47.4464 13.8301C47.4464 13.6987 47.4981 13.5726 47.5904 13.479Z" fill="#8C5D66"/>
<defs>
<filter id="filter0_b_3582_42472" x="7.37109" y="11.5" width="51" height="49" filterUnits="userSpaceOnUse" color-interpolation-filters="sRGB">
<feFlood flood-opacity="0" result="BackgroundImageFix"/>
<feGaussianBlur in="BackgroundImageFix" stdDeviation="2.5"/>
<feComposite in2="SourceAlpha" operator="in" result="effect1_backgroundBlur_3582_42472"/>
<feBlend mode="normal" in="SourceGraphic" in2="effect1_backgroundBlur_3582_42472" result="shape"/>
</filter>
<linearGradient id="paint0_linear_3582_42472" x1="32.8711" y1="26.7982" x2="32.8711" y2="55.5" gradientUnits="userSpaceOnUse">
<stop stop-color="#FF9AAF" stop-opacity="0.28"/>
<stop offset="1" stop-color="#FF365F"/>
</linearGradient>
</defs>
</svg>
