<svg width="25" height="24" viewBox="0 0 25 24" fill="none" xmlns="http://www.w3.org/2000/svg">
<g clip-path="url(#clip0_3714_9547)">
<path fill-rule="evenodd" clip-rule="evenodd" d="M4 9.5622L12.2125 3.33203L20.425 9.5622V19.2466H14.4838V21.2466H20.425C21.5296 21.2466 22.425 20.3512 22.425 19.2466V9.5622C22.425 8.93655 22.1322 8.34695 21.6338 7.96882L13.4213 1.73865C12.7066 1.19649 11.7184 1.19649 11.0037 1.73865L2.79123 7.96882C2.29278 8.34695 2 8.93655 2 9.5622V19.2466C2 20.3512 2.89543 21.2466 4 21.2466H9.94492V19.2466H4V9.5622Z" fill="#454381"/>
<mask id="mask0_3714_9547" style="mask-type:alpha" maskUnits="userSpaceOnUse" x="8" y="12" width="8" height="13">
<rect x="9.80469" y="13.168" width="4.80833" height="10.4819" rx="2.40417" stroke="#212529" stroke-width="2"/>
</mask>
<g mask="url(#mask0_3714_9547)">
<rect width="9.07778" height="10.2125" transform="matrix(1 0 0 -1 7.67188 21.2461)" fill="#454381"/>
</g>
<circle cx="21" cy="3.5" r="1.5" fill="#454381"/>
</g>
<defs>
<clipPath id="clip0_3714_9547">
<rect width="24" height="24" fill="white" transform="translate(0.5)"/>
</clipPath>
</defs>
</svg>
