<svg width="24" height="24" viewBox="0 0 24 24" fill="none" xmlns="http://www.w3.org/2000/svg">
<path fill-rule="evenodd" clip-rule="evenodd" d="M4.64737 9.62426L12 4.0464L19.3526 9.62426C19.7605 9.93364 20 10.416 20 10.9279V18.8087C20 19.2104 19.6744 19.536 19.2727 19.536H13.8929V21.536H19.2727C20.779 21.536 22 20.315 22 18.8087V10.9279C22 9.79039 21.4677 8.71839 20.5614 8.03087L13.0989 2.36965C12.4492 1.87678 11.5508 1.87678 10.9011 2.36965L3.43859 8.03087C2.53232 8.71839 2 9.79039 2 10.9279V18.8087C2 20.315 3.22104 21.536 4.72727 21.536H9.56037V19.536H4.72727C4.32561 19.536 4 19.2104 4 18.8087V10.9279C4 10.416 4.23955 9.93364 4.64737 9.62426Z" fill="#212529"/>
<mask id="mask0_6403_33018" style="mask-type:alpha" maskUnits="userSpaceOnUse" x="8" y="12" width="8" height="10">
<rect x="8.36426" y="12.4535" width="7.27273" height="9.09091" fill="#D9D9D9"/>
</mask>
<g mask="url(#mask0_6403_33018)">
<path d="M9.36426 16.999C9.36426 15.543 10.5446 14.3626 12.0006 14.3626C13.4566 14.3626 14.637 15.543 14.637 16.999V23.3626C14.637 24.8186 13.4566 25.999 12.0006 25.999C10.5446 25.999 9.36426 24.8186 9.36426 23.3626V16.999Z" stroke="#212529" stroke-width="2" stroke-linejoin="round"/>
</g>
</svg>
