<svg width="25" height="24" viewBox="0 0 25 24" fill="none" xmlns="http://www.w3.org/2000/svg">
<g clip-path="url(#clip0_3672_10088)">
<path fill-rule="evenodd" clip-rule="evenodd" d="M4 9.56074L12.2125 3.33057L20.425 9.56074V19.2452H14.4838V21.2452H20.425C21.5296 21.2452 22.425 20.3498 22.425 19.2452V9.56074C22.425 8.93509 22.1322 8.34549 21.6338 7.96735L13.4213 1.73718C12.7066 1.19503 11.7184 1.19503 11.0037 1.73718L2.79123 7.96736C2.29278 8.34549 2 8.93509 2 9.56074V19.2452C2 20.3498 2.89543 21.2452 4 21.2452H9.94492V19.2452H4V9.56074Z" fill="#AEB5BC"/>
<mask id="mask0_3672_10088" style="mask-type:alpha" maskUnits="userSpaceOnUse" x="8" y="12" width="8" height="13">
<rect x="9.80469" y="13.168" width="4.80833" height="10.4819" rx="2.40417" stroke="#212529" stroke-width="2"/>
</mask>
<g mask="url(#mask0_3672_10088)">
<rect width="9.07778" height="10.2125" transform="matrix(1 0 0 -1 7.67188 21.2456)" fill="#AEB5BC"/>
</g>
<circle cx="21" cy="3.5" r="1.5" fill="#AEB5BC"/>
</g>
<defs>
<clipPath id="clip0_3672_10088">
<rect width="24" height="24" fill="white" transform="translate(0.5)"/>
</clipPath>
</defs>
</svg>
