<svg width="76" height="76" viewBox="0 0 76 76" fill="none" xmlns="http://www.w3.org/2000/svg">
<path d="M0 16C0 7.16344 7.16344 0 16 0H60C68.8366 0 76 7.16344 76 16V60C76 68.8366 68.8366 76 60 76H16C7.16344 76 0 68.8366 0 60V16Z" fill="#FFFBDC"/>
<mask id="mask0_4784_30710" style="mask-type:alpha" maskUnits="userSpaceOnUse" x="14" y="14" width="48" height="48">
<rect x="14" y="14" width="48" height="48" fill="#D9D9D9"/>
</mask>
<g mask="url(#mask0_4784_30710)">
<path d="M37.3203 23.3346C32.5346 23.3346 28.6549 27.2143 28.6549 32C28.6549 36.7858 32.5346 40.6654 37.3203 40.6654C42.1061 40.6654 45.9857 36.7858 45.9857 32C45.9857 27.2143 42.1061 23.3346 37.3203 23.3346ZM51.2704 32C51.2704 39.7044 45.0247 45.9501 37.3203 45.9501C29.616 45.9501 23.3703 39.7044 23.3703 32C23.3703 24.2956 29.616 18.05 37.3203 18.05C45.0247 18.05 51.2704 24.2956 51.2704 32Z" fill="url(#paint0_linear_4784_30710)" stroke="#E6BC79" stroke-width="0.1"/>
<g filter="url(#filter0_b_4784_30710)">
<path d="M18.4412 34.1229C18.9478 30.6085 21.9592 28 25.5099 28H49.4901C53.0408 28 56.0522 30.6086 56.5588 34.123L58.8239 49.8395C59.4444 54.1447 56.1049 58 51.7552 58H23.2448C18.8951 58 15.5556 54.1447 16.1761 49.8395L18.4412 34.1229Z" fill="url(#paint1_linear_4784_30710)"/>
<path d="M18.4907 34.1301C18.9937 30.6403 21.9841 28.05 25.5099 28.05H49.4901C53.0159 28.05 56.0063 30.6403 56.5093 34.1301L58.7744 49.8467C59.3905 54.1217 56.0744 57.95 51.7552 57.95H23.2448C18.9256 57.95 15.6095 54.1217 16.2256 49.8467L18.4907 34.1301Z" stroke="#F5DA77" stroke-width="0.1"/>
</g>
<circle cx="27.0896" cy="35.656" r="3.76924" fill="white" fill-opacity="0.8"/>
<circle cx="47.5505" cy="35.656" r="3.76924" fill="white" fill-opacity="0.8"/>
</g>
<defs>
<filter id="filter0_b_4784_30710" x="11.7265" y="23.6249" width="51.5471" height="38.7502" filterUnits="userSpaceOnUse" color-interpolation-filters="sRGB">
<feFlood flood-opacity="0" result="BackgroundImageFix"/>
<feGaussianBlur in="BackgroundImageFix" stdDeviation="2.18755"/>
<feComposite in2="SourceAlpha" operator="in" result="effect1_backgroundBlur_4784_30710"/>
<feBlend mode="normal" in="SourceGraphic" in2="effect1_backgroundBlur_4784_30710" result="shape"/>
</filter>
<linearGradient id="paint0_linear_4784_30710" x1="37.3203" y1="41" x2="37.3203" y2="7" gradientUnits="userSpaceOnUse">
<stop offset="0.254222" stop-color="#E9A33B"/>
<stop offset="1" stop-color="#FFAE34" stop-opacity="0.2"/>
</linearGradient>
<linearGradient id="paint1_linear_4784_30710" x1="37.5" y1="28" x2="37.5" y2="58" gradientUnits="userSpaceOnUse">
<stop stop-color="#EFE958" stop-opacity="0.28"/>
<stop offset="1" stop-color="#FFEA9D"/>
</linearGradient>
</defs>
</svg>
