<svg width="32" height="32" viewBox="0 0 32 32" fill="none" xmlns="http://www.w3.org/2000/svg">
<rect width="32" height="32" rx="9.14286" fill="#F06595"/>
<mask id="mask0_2277_34460" style="mask-type:alpha" maskUnits="userSpaceOnUse" x="4" y="4" width="24" height="24">
<rect x="4" y="4" width="24" height="24" fill="#D9D9D9"/>
</mask>
<g mask="url(#mask0_2277_34460)">
<path d="M14.0681 12.4852C14.1029 12.4204 14.1866 12.4008 14.2466 12.4432L19.4415 16.1185C19.5015 16.161 19.5108 16.2464 19.4613 16.3008L11.2454 25.3246C10.7985 25.8155 10.0557 25.8962 9.51379 25.5128L8.69253 24.9318C8.15058 24.5484 7.97947 23.8211 8.2936 23.2363L14.0681 12.4852Z" stroke="#FCF0F6" stroke-width="1.4"/>
<path fill-rule="evenodd" clip-rule="evenodd" d="M20.0616 16.7081C21.5359 16.4711 22.9175 15.6643 23.848 14.3491C25.6843 11.7536 25.0688 8.16104 22.4734 6.3248C19.8779 4.48856 16.2854 5.10402 14.4491 7.69946C13.5186 9.01472 13.2177 10.5861 13.485 12.0551L15.5967 13.5492C14.5543 12.0829 14.4941 10.0599 15.592 8.50804C16.9817 6.5438 19.7006 6.07802 21.6648 7.46769C23.629 8.85736 24.0948 11.5762 22.7051 13.5405C21.6072 15.0924 19.6795 15.7089 17.9499 15.214L20.0616 16.7081Z" fill="#FCF0F6"/>
<path d="M15.9468 8.06738L23.3316 13.2921" stroke="#FCF0F6" stroke-width="1.4" stroke-linecap="round"/>
</g>
</svg>
