<svg width="32" height="32" viewBox="0 0 32 32" fill="none" xmlns="http://www.w3.org/2000/svg">
<rect width="32" height="32" rx="9.14286" fill="#72B16D"/>
<mask id="mask0_2277_34475" style="mask-type:alpha" maskUnits="userSpaceOnUse" x="4" y="4" width="24" height="24">
<rect x="4" y="4" width="24" height="24" fill="#D9D9D9"/>
</mask>
<g mask="url(#mask0_2277_34475)">
<path fill-rule="evenodd" clip-rule="evenodd" d="M12.5758 12.1L9.17594 6.9L12.756 6.9L14.7516 9.95216L15.5879 8.673L13.8322 5.9876C13.6332 5.68336 13.2943 5.5 12.9308 5.5L8.57871 5.5C7.72293 5.5 7.20904 6.44998 7.67734 7.16625L11.4997 13.0124C11.6986 13.3166 12.0375 13.5 12.401 13.5L13.0292 13.5C12.7725 13.5 12.6183 13.215 12.7588 13.0001L13.3473 12.1L12.5758 12.1Z" fill="#E9FEE8"/>
<path d="M22.9126 6.78319C23.0765 6.53249 22.8966 6.2 22.5971 6.2L18.1887 6.2C18.0725 6.2 17.9628 6.25362 17.8913 6.34532L12.9901 12.6386C12.9727 12.6609 12.9688 12.6774 12.9678 12.6895C12.9665 12.7046 12.9694 12.7239 12.9791 12.7439C12.9889 12.7639 13.0024 12.778 13.015 12.7863C13.0252 12.7929 13.0407 12.8 13.069 12.8L18.7748 12.8C18.902 12.8 19.0207 12.7358 19.0903 12.6293L22.9126 6.78319Z" stroke="#E9FEE8" stroke-width="1.4"/>
<circle cx="15.5879" cy="20.5" r="5.3" stroke="#E9FEE8" stroke-width="1.4"/>
<path d="M16.4142 22.9321C16.4142 23.0226 16.3711 23.0678 16.285 23.0678L15.2188 23.0678C15.1327 23.0678 15.0896 23.0226 15.0896 22.9321L15.0896 19.4623L14.676 19.7272C14.6157 19.7703 14.5576 19.7574 14.5016 19.6884L13.9976 18.8937C13.9459 18.8204 13.9545 18.7623 14.0234 18.7192L15.1154 17.9955C15.1499 17.974 15.1887 17.9632 15.2317 17.9632L16.2785 17.9632C16.369 17.9632 16.4142 18.0041 16.4142 18.086L16.4142 22.9321Z" fill="#E9FEE8"/>
</g>
</svg>
