<svg width="32" height="32" viewBox="0 0 32 32" fill="none" xmlns="http://www.w3.org/2000/svg">
<rect width="32" height="32" rx="9.14286" fill="#FF7C51"/>
<mask id="mask0_2277_34465" style="mask-type:alpha" maskUnits="userSpaceOnUse" x="4" y="4" width="24" height="24">
<rect x="4" y="4" width="24" height="24" fill="#D9D9D9"/>
</mask>
<g mask="url(#mask0_2277_34465)">
<path d="M10.5752 9.81302L13.4829 12.7636" stroke="#FFEDE7" stroke-width="1.4"/>
<path d="M16.4648 8.26126L19.3726 11.2119" stroke="#FFEDE7" stroke-width="1.4"/>
<path d="M7.20235 12.1512C7.01371 11.4585 7.42358 10.7485 8.11783 10.5654L20.9379 7.18531C21.6322 7.00226 22.3479 7.41546 22.5365 8.1082L23.1423 10.3327L7.8081 14.3757L7.20235 12.1512Z" stroke="#FFEDE7" stroke-width="1.4"/>
<path d="M11.7969 15.3843L13.8294 19.1343" stroke="#FFEDE7" stroke-width="1.4"/>
<path d="M17.8945 15.3843L19.9271 19.1343" stroke="#FFEDE7" stroke-width="1.4"/>
<path d="M7.92363 15.4593H23.8002V19.0593H7.92363V15.4593Z" stroke="#FFEDE7" stroke-width="1.4"/>
<path d="M7.92363 15.4593H23.8002V21.7593C23.8002 23.0295 22.7705 24.0593 21.5002 24.0593H10.2236C8.95338 24.0593 7.92363 23.0295 7.92363 21.7593V15.4593Z" stroke="#FFEDE7" stroke-width="1.4"/>
</g>
</svg>
