<svg width="24" height="24" viewBox="0 0 24 24" fill="none" xmlns="http://www.w3.org/2000/svg">
<mask id="path-1-inside-1_1612_16603" fill="white">
<path fill-rule="evenodd" clip-rule="evenodd" d="M8.19681 3.28356C9.62405 3.6106 11.0082 4.42433 11.9954 5.52192C12.9826 4.42433 14.3667 3.6106 15.794 3.28356C17.779 2.82872 20.025 3.2945 21.3876 5.43918C23.5109 8.78099 21.8327 12.6137 19.6336 15.3962C18.4988 16.832 17.1431 18.1052 15.8455 19.0726C14.5735 20.021 13.2625 20.7467 12.2122 20.9801C12.0694 21.0118 11.9213 21.0118 11.7784 20.9801C10.7283 20.7467 9.41744 20.021 8.14552 19.0726C6.848 18.1052 5.49227 16.8321 4.35742 15.3962C2.15825 12.6138 0.479917 8.78102 2.60316 5.43918C3.96578 3.2945 6.21182 2.82872 8.19681 3.28356Z"/>
</mask>
<path fill-rule="evenodd" clip-rule="evenodd" d="M8.19681 3.28356C9.62405 3.6106 11.0082 4.42433 11.9954 5.52192C12.9826 4.42433 14.3667 3.6106 15.794 3.28356C17.779 2.82872 20.025 3.2945 21.3876 5.43918C23.5109 8.78099 21.8327 12.6137 19.6336 15.3962C18.4988 16.832 17.1431 18.1052 15.8455 19.0726C14.5735 20.021 13.2625 20.7467 12.2122 20.9801C12.0694 21.0118 11.9213 21.0118 11.7784 20.9801C10.7283 20.7467 9.41744 20.021 8.14552 19.0726C6.848 18.1052 5.49227 16.8321 4.35742 15.3962C2.15825 12.6138 0.479917 8.78102 2.60316 5.43918C3.96578 3.2945 6.21182 2.82872 8.19681 3.28356Z" fill="#FF1B47"/>
<path d="M11.9954 5.52192L10.5084 6.85935C10.8877 7.28108 11.4282 7.52192 11.9954 7.52192C12.5626 7.52192 13.1031 7.28108 13.4824 6.85935L11.9954 5.52192ZM8.19681 3.28356L7.75011 5.23304V5.23304L8.19681 3.28356ZM15.794 3.28356L16.2407 5.23304V5.23304L15.794 3.28356ZM21.3876 5.43918L23.0757 4.36665V4.36664L21.3876 5.43918ZM19.6336 15.3962L18.0645 14.1561L19.6336 15.3962ZM15.8455 19.0726L17.041 20.676L15.8455 19.0726ZM12.2122 20.9801L12.646 22.9325L12.646 22.9325L12.2122 20.9801ZM11.7784 20.9801L12.2123 19.0277L12.2123 19.0277L11.7784 20.9801ZM8.14552 19.0726L6.95003 20.676L8.14552 19.0726ZM4.35742 15.3962L2.78835 16.6364H2.78835L4.35742 15.3962ZM2.60316 5.43918L4.29126 6.51171V6.51171L2.60316 5.43918ZM13.4824 4.18449C12.2206 2.7815 10.4734 1.7534 8.64351 1.33409L7.75011 5.23304C8.77466 5.46781 9.79587 6.06716 10.5084 6.85935L13.4824 4.18449ZM15.3473 1.33409C13.5173 1.7534 11.7702 2.7815 10.5084 4.18449L13.4824 6.85935C14.1949 6.06716 15.2161 5.46781 16.2407 5.23304L15.3473 1.33409ZM23.0757 4.36664C21.1472 1.3312 17.9343 0.741297 15.3473 1.33409L16.2407 5.23304C17.6236 4.91615 18.9029 5.2578 19.6995 6.51171L23.0757 4.36664ZM21.2027 16.6364C23.4884 13.7444 25.9449 8.88259 23.0757 4.36665L19.6995 6.51171C21.0768 8.67939 20.1771 11.4831 18.0645 14.1561L21.2027 16.6364ZM17.041 20.676C18.467 19.6128 19.9513 18.2197 21.2027 16.6364L18.0645 14.1561C17.0463 15.4444 15.8191 16.5976 14.65 17.4692L17.041 20.676ZM12.646 22.9325C14.1087 22.6075 15.6913 21.6824 17.041 20.676L14.65 17.4692C13.4558 18.3597 12.4163 18.886 11.7785 19.0277L12.646 22.9325ZM11.3445 22.9325C11.7731 23.0277 12.2174 23.0277 12.646 22.9325L11.7785 19.0277C11.9213 18.996 12.0694 18.996 12.2123 19.0277L11.3445 22.9325ZM6.95003 20.676C8.29963 21.6823 9.88206 22.6075 11.3445 22.9325L12.2123 19.0277C11.5746 18.886 10.5352 18.3597 9.34101 17.4693L6.95003 20.676ZM2.78835 16.6364C4.0398 18.2197 5.52404 19.6128 6.95003 20.676L9.34101 17.4693C8.17197 16.5976 6.94474 15.4444 5.9265 14.1561L2.78835 16.6364ZM0.915064 4.36664C-1.9542 8.88268 0.502687 13.7445 2.78835 16.6364L5.9265 14.1561C3.81381 11.483 2.91404 8.67937 4.29126 6.51171L0.915064 4.36664ZM8.64351 1.33409C6.05648 0.741297 2.84363 1.3312 0.915063 4.36664L4.29126 6.51171C5.08793 5.2578 6.36716 4.91615 7.75011 5.23304L8.64351 1.33409Z" fill="#FF1B47" mask="url(#path-1-inside-1_1612_16603)"/>
</svg>
