<svg width="18" height="18" viewBox="0 0 18 18" fill="none" xmlns="http://www.w3.org/2000/svg">
<mask id="path-1-inside-1_1612_16527" fill="white">
<path fill-rule="evenodd" clip-rule="evenodd" d="M6.2045 2.21862C7.23481 2.45471 8.23823 3.01377 8.9976 3.77736C9.75698 3.01377 10.7604 2.45471 11.7907 2.21862C13.3556 1.86005 15.1605 2.22573 16.2528 3.94495C17.9381 6.59753 16.5833 9.60037 14.9224 11.7018C14.0567 12.7971 13.0238 13.767 12.0346 14.5045C11.071 15.223 10.0537 15.7923 9.21446 15.9788C9.07159 16.0105 8.9235 16.0105 8.78063 15.9787C7.94149 15.7923 6.92436 15.223 5.96076 14.5045C4.97156 13.767 3.9387 12.7971 3.07299 11.7018C1.41208 9.60042 0.05708 6.59755 1.74241 3.94495C2.83473 2.22573 4.63963 1.86005 6.2045 2.21862Z"/>
</mask>
<path d="M8.9976 3.77736L7.7922 4.97611C8.11128 5.29695 8.54511 5.47736 8.9976 5.47736C9.4501 5.47736 9.88393 5.29695 10.203 4.9761L8.9976 3.77736ZM6.2045 2.21862L5.8248 3.87568L6.2045 2.21862ZM11.7907 2.21862L12.1704 3.87568L11.7907 2.21862ZM16.2528 3.94495L14.8179 4.85661V4.85661L16.2528 3.94495ZM14.9224 11.7018L13.5887 10.6477L14.9224 11.7018ZM12.0346 14.5045L13.0508 15.8674L13.0508 15.8674L12.0346 14.5045ZM9.21446 15.9788L8.84575 14.3192L8.84574 14.3192L9.21446 15.9788ZM8.78063 15.9787L8.41184 17.6383L8.41184 17.6383L8.78063 15.9787ZM5.96076 14.5045L6.97693 13.1417H6.97693L5.96076 14.5045ZM3.07299 11.7018L1.73927 12.756L3.07299 11.7018ZM1.74241 3.94495L3.1773 4.85661L1.74241 3.94495ZM10.203 2.57861C9.22075 1.5909 7.93237 0.870489 6.58419 0.561569L5.8248 3.87568C6.53726 4.03893 7.25571 4.43664 7.7922 4.97611L10.203 2.57861ZM11.411 0.561569C10.0628 0.870489 8.77446 1.5909 7.7922 2.57861L10.203 4.9761C10.7395 4.43664 11.4579 4.03893 12.1704 3.87568L11.411 0.561569ZM17.6877 3.0333C16.1136 0.555856 13.4861 0.0860791 11.411 0.56157L12.1704 3.87568C13.225 3.63402 14.2073 3.8956 14.8179 4.85661L17.6877 3.0333ZM16.2561 12.7559C17.9892 10.5632 20.0078 6.68494 17.6877 3.0333L14.8179 4.85661C15.8685 6.51011 15.1774 8.63759 13.5887 10.6477L16.2561 12.7559ZM13.0508 15.8674C14.1492 15.0484 15.2913 13.9767 16.2561 12.7559L13.5887 10.6477C12.8221 11.6176 11.8985 12.4855 11.0185 13.1417L13.0508 15.8674ZM9.58317 17.6383C10.773 17.3739 12.0209 16.6352 13.0508 15.8674L11.0185 13.1417C10.121 13.8108 9.33454 14.2106 8.84575 14.3192L9.58317 17.6383ZM8.41184 17.6383C8.79758 17.724 9.19743 17.724 9.58318 17.6383L8.84574 14.3192C8.94575 14.297 9.04942 14.297 9.14942 14.3192L8.41184 17.6383ZM4.94459 15.8674C5.97432 16.6352 7.22222 17.3739 8.41184 17.6383L9.14942 14.3192C8.66076 14.2106 7.87439 13.8108 6.97693 13.1417L4.94459 15.8674ZM1.73927 12.756C2.7041 13.9767 3.8462 15.0484 4.94459 15.8674L6.97693 13.1417C6.09693 12.4855 5.17329 11.6176 4.4067 10.6477L1.73927 12.756ZM0.307531 3.0333C-2.01259 6.68502 0.00622255 10.5633 1.73927 12.756L4.4067 10.6477C2.81794 8.63756 2.12675 6.51009 3.1773 4.85661L0.307531 3.0333ZM6.58419 0.561569C4.50908 0.0860794 1.88158 0.555856 0.307531 3.0333L3.1773 4.85661C3.78787 3.8956 4.77017 3.63402 5.8248 3.87568L6.58419 0.561569Z" fill="#7B8894" mask="url(#path-1-inside-1_1612_16527)"/>
</svg>
