<svg width="18" height="18" viewBox="0 0 18 18" fill="none" xmlns="http://www.w3.org/2000/svg">
<path fill-rule="evenodd" clip-rule="evenodd" d="M5.92056 3.85328C7.05183 4.1125 8.13645 4.83809 8.76948 5.77302C9.40252 4.83809 10.4871 4.1125 11.6184 3.85328C12.9082 3.55773 14.303 3.86326 15.1542 5.20307C16.5122 7.34044 15.482 9.86624 13.9155 11.8483C13.1235 12.8504 12.1747 13.7416 11.2679 14.4177C10.3675 15.089 9.48475 15.5661 8.82367 15.7129C8.78796 15.7209 8.75093 15.7209 8.71522 15.7129C8.05427 15.566 7.17164 15.089 6.27127 14.4177C5.3645 13.7416 4.41569 12.8504 3.6236 11.8483C2.05706 9.86625 1.02674 7.34045 2.38473 5.20307C3.23598 3.86326 4.63074 3.55773 5.92056 3.85328Z" fill="#C7CED4"/>
</svg>
