<svg width="18" height="18" viewBox="0 0 18 18" fill="none" xmlns="http://www.w3.org/2000/svg">
<path fill-rule="evenodd" clip-rule="evenodd" d="M6.2045 2.21862C7.23481 2.45471 8.23823 3.01377 8.9976 3.77736C9.75698 3.01377 10.7604 2.45471 11.7907 2.21862C13.3556 1.86005 15.1605 2.22573 16.2528 3.94495C17.9381 6.59753 16.5833 9.60037 14.9224 11.7018C14.0567 12.7971 13.0238 13.767 12.0346 14.5045C11.071 15.223 10.0537 15.7923 9.21446 15.9788C9.07159 16.0105 8.9235 16.0105 8.78063 15.9787C7.94149 15.7923 6.92436 15.223 5.96076 14.5045C4.97156 13.767 3.9387 12.7971 3.07299 11.7018C1.41208 9.60042 0.05708 6.59755 1.74241 3.94495C2.83473 2.22573 4.63963 1.86005 6.2045 2.21862Z" fill="#FF1B47"/>
</svg>
