<svg width="36" height="36" viewBox="0 0 36 36" fill="none" xmlns="http://www.w3.org/2000/svg">
<g clip-path="url(#clip0_3149_36875)">
<path fill-rule="evenodd" clip-rule="evenodd" d="M11.1259 4.26843C13.8818 4.8999 16.5348 6.59902 18.2103 8.828C19.8858 6.59902 22.5389 4.8999 25.2947 4.26843C28.6481 3.50004 32.329 4.29194 34.5711 7.82081C38.12 13.4066 35.3907 19.9434 31.4345 24.949C29.4215 27.4959 27.0123 29.7587 24.7086 31.4762C22.4303 33.1749 20.1615 34.4105 18.4247 34.7964C18.2834 34.8278 18.137 34.8277 17.9958 34.7964C16.2593 34.4105 13.9907 33.1749 11.7124 31.4762C9.40889 29.7587 6.9996 27.4959 4.9866 24.949C1.03032 19.9434 -1.69939 13.4066 1.84953 7.82081C4.0916 4.29194 7.77259 3.50004 11.1259 4.26843Z" fill="#EAECEF"/>
</g>
<defs>
<clipPath id="clip0_3149_36875">
<rect width="36" height="36" fill="white"/>
</clipPath>
</defs>
</svg>
