<svg width="62" height="26" viewBox="0 0 62 26" fill="none" xmlns="http://www.w3.org/2000/svg">
<path d="M7.57499 16.4771C6.07989 16.4771 4.61836 16.0381 3.37523 15.2157C2.1321 14.3933 1.1632 13.2244 0.591053 11.8568C0.0189028 10.4892 -0.130801 8.98427 0.160879 7.53242C0.452558 6.08057 1.17252 4.74696 2.22972 3.70023C3.28692 2.6535 4.63386 1.94066 6.10023 1.65187C7.5666 1.36308 9.08654 1.5113 10.4678 2.07779C11.8491 2.64427 13.0297 3.60358 13.8604 4.8344C14.691 6.06522 15.1344 7.51228 15.1344 8.99257C15.1344 9.46876 14.9433 9.92544 14.6032 10.2622C14.2631 10.5989 13.8019 10.788 13.3209 10.788C12.84 10.788 12.3787 10.5989 12.0387 10.2622C11.6986 9.92544 11.5075 9.46876 11.5075 8.99257C11.5075 8.22249 11.2769 7.46971 10.8448 6.82941C10.4127 6.18911 9.79848 5.69007 9.07991 5.39537C8.36133 5.10067 7.57063 5.02357 6.80779 5.1738C6.04495 5.32404 5.34425 5.69486 4.79427 6.23939C4.2443 6.78392 3.86977 7.47769 3.71803 8.23298C3.56629 8.98826 3.64417 9.77113 3.94182 10.4826C4.23946 11.194 4.7435 11.8021 5.3902 12.23C6.0369 12.6578 6.79721 12.8862 7.57499 12.8862C8.05594 12.8862 8.5172 13.0753 8.85728 13.412C9.19736 13.7488 9.38841 14.2054 9.38841 14.6816C9.38841 15.1578 9.19736 15.6145 8.85728 15.9512C8.5172 16.2879 8.05594 16.4771 7.57499 16.4771Z" fill="#212529"/>
<path d="M7.5749 24.7514C5.57045 24.7541 3.64685 23.9691 2.22658 22.5686C0.806305 21.1682 0.00548976 19.2669 0 17.2823C0 16.8061 0.191051 16.3494 0.531132 16.0127C0.871214 15.676 1.33247 15.4868 1.81342 15.4868C2.29437 15.4868 2.75562 15.676 3.0957 16.0127C3.43578 16.3494 3.62684 16.8061 3.62684 17.2823C3.62684 18.3149 4.04115 19.3053 4.77864 20.0355C5.51613 20.7657 6.51639 21.1759 7.55936 21.1759C8.60233 21.1759 9.60258 20.7657 10.3401 20.0355C11.0776 19.3053 11.4919 18.3149 11.4919 17.2823C11.4919 16.8061 11.6829 16.3494 12.023 16.0127C12.3631 15.676 12.8244 15.4868 13.3053 15.4868C13.7862 15.4868 14.2475 15.676 14.5876 16.0127C14.9277 16.3494 15.1187 16.8061 15.1187 17.2823C15.1119 19.2611 14.3149 21.157 12.9016 22.5563C11.4884 23.9555 9.57355 24.7446 7.5749 24.7514Z" fill="#212529"/>
<path d="M19.8798 24.7518C19.426 24.777 18.9805 24.6234 18.6407 24.3244C18.3009 24.0255 18.0944 23.6056 18.0664 23.1564V3.10362C18.1143 2.66053 18.326 2.25062 18.6608 1.95276C18.9956 1.6549 19.4297 1.49011 19.8798 1.49011C20.3299 1.49011 20.7641 1.6549 21.0989 1.95276C21.4336 2.25062 21.6453 2.66053 21.6932 3.10362V23.1718C21.6613 23.6182 21.4531 24.0343 21.1138 24.3299C20.7744 24.6256 20.3311 24.7771 19.8798 24.7518Z" fill="#212529"/>
<path d="M37.9303 7.50476C37.4494 7.50476 36.9881 7.69392 36.648 8.03063C36.3079 8.36735 36.1169 8.82404 36.1169 9.30022V17.2823C36.1169 18.315 35.7026 19.3053 34.9651 20.0355C34.2276 20.7657 33.2273 21.1759 32.1844 21.1759C31.1414 21.1759 30.1411 20.7657 29.4036 20.0355C28.6662 19.3053 28.2518 18.315 28.2518 17.2823V9.30022C28.2518 8.82404 28.0608 8.36735 27.7207 8.03063C27.3806 7.69392 26.9194 7.50476 26.4384 7.50476C25.9575 7.50476 25.4962 7.69392 25.1561 8.03063C24.8161 8.36735 24.625 8.82404 24.625 9.30022V17.2823C24.6305 19.2643 25.4292 21.1632 26.8461 22.5632C28.263 23.9632 30.1826 24.7501 32.1844 24.7515C33.6191 24.7527 35.0239 24.3449 36.2309 23.5767C36.3791 23.9708 36.6622 24.3008 37.031 24.5093C37.3998 24.7179 37.8308 24.7916 38.2489 24.7177C38.667 24.6439 39.0456 24.4271 39.3188 24.1051C39.592 23.7831 39.7424 23.3765 39.7437 22.956V9.30022C39.7437 8.82404 39.5527 8.36735 39.2126 8.03063C38.8725 7.69392 38.4112 7.50476 37.9303 7.50476Z" fill="#212529"/>
<path d="M57.8921 7.67888C57.4571 7.47488 56.9581 7.44996 56.5046 7.60958C56.051 7.7692 55.6799 8.10035 55.4725 8.53044L50.54 18.7902L45.6023 8.53044C45.5056 8.30934 45.3649 8.10979 45.1886 7.94367C45.0123 7.77755 44.804 7.64828 44.5761 7.56354C44.3483 7.4788 44.1056 7.44033 43.8624 7.45043C43.6193 7.46053 43.3807 7.51898 43.1608 7.62232C42.9409 7.72565 42.7443 7.87174 42.5827 8.05189C42.4211 8.23204 42.2977 8.44255 42.22 8.6709C42.1423 8.89925 42.1117 9.14075 42.1303 9.38101C42.1488 9.62128 42.216 9.85539 42.3278 10.0694L48.9028 23.7252L48.9546 23.8124L49.0012 23.8996C49.0506 23.9773 49.106 24.051 49.167 24.1202V24.151C49.2384 24.2277 49.3164 24.2981 49.4002 24.3613C49.4213 24.3784 49.4439 24.3938 49.4675 24.4075C49.5408 24.462 49.6188 24.5101 49.7007 24.5511H49.7369C49.8433 24.601 49.9544 24.6406 50.0685 24.6691H50.1514C50.2641 24.6914 50.3785 24.7035 50.4934 24.705C50.6082 24.7032 50.7227 24.6912 50.8353 24.6691H50.9131C51.0289 24.6406 51.1417 24.6011 51.2498 24.5511H51.2861C51.3696 24.5101 51.4493 24.462 51.5244 24.4075L51.5866 24.3613C51.6731 24.2995 51.753 24.229 51.8249 24.151V24.1202C51.8859 24.0522 51.9397 23.9783 51.9856 23.8996L52.0374 23.8124L52.0892 23.7252L58.6589 10.054C58.8654 9.63666 58.9009 9.15642 58.758 8.71376C58.6151 8.27109 58.3048 7.90028 57.8921 7.67888Z" fill="#212529"/>
<path d="M59.9892 5.09898C60.9907 5.09898 61.8026 4.29512 61.8026 3.30352C61.8026 2.31191 60.9907 1.50806 59.9892 1.50806C58.9877 1.50806 58.1758 2.31191 58.1758 3.30352C58.1758 4.29512 58.9877 5.09898 59.9892 5.09898Z" fill="#6C47FF"/>
</svg>
