<svg width="171" height="101" viewBox="0 0 171 101" fill="none" xmlns="http://www.w3.org/2000/svg">
<g filter="url(#filter0_b_3617_43238)">
<rect x="16.2891" width="163" height="51" rx="25.5" transform="rotate(18.6259 16.2891 0)" fill="#FF80E3" fill-opacity="0.51"/>
<path d="M50.4986 29.0659L53.6265 30.1201L48.6473 44.8934L56.3468 47.4885L55.4547 50.1351L44.6274 46.4859L50.4986 29.0659ZM70.5652 40.6789L73.6209 41.7088L69.2175 54.7738L66.258 53.7763L67.0365 51.4665L66.8922 51.4178C66.3253 52.0663 65.6253 52.5002 64.7922 52.7196C63.9671 52.9416 63.0814 52.8932 62.135 52.5742C61.2768 52.285 60.5838 51.837 60.0559 51.2304C59.5279 50.6238 59.2039 49.8894 59.0836 49.0272C58.9634 48.1649 59.0723 47.2192 59.4102 46.1899L62.2161 37.8649L65.2959 38.9029L62.6522 46.7467C62.4684 47.2921 62.4065 47.8071 62.4664 48.2917C62.5371 48.771 62.719 49.1851 63.0123 49.534C63.3162 49.8776 63.7168 50.1332 64.2141 50.3008C64.6793 50.4576 65.1622 50.4954 65.663 50.4141C66.1745 50.3274 66.6383 50.1042 67.0543 49.7442C67.4784 49.387 67.7972 48.8916 68.0107 48.258L70.5652 40.6789ZM80.0753 49.2697L84.4001 45.3418L87.6483 46.4366L81.5047 51.6271L83.3171 59.5259L80.093 58.4392L78.8914 52.7826L74.583 56.5822L71.3108 55.4793L77.5106 50.2809L75.8104 42.4467L79.0587 43.5415L80.0753 49.2697ZM98.1629 49.9804L101.219 51.0103L96.8152 64.0753L93.8557 63.0778L94.6342 60.768L94.4899 60.7193C93.923 61.3678 93.223 61.8017 92.3899 62.0211C91.5648 62.2432 90.6791 62.1947 89.7327 61.8758C88.8745 61.5865 88.1815 61.1386 87.6536 60.532C87.1257 59.9253 86.8016 59.1909 86.6813 58.3287C86.5611 57.4665 86.67 56.5207 87.0079 55.4914L89.8138 47.1664L92.8936 48.2044L90.2499 56.0482C90.0661 56.5936 90.0042 57.1086 90.0641 57.5933C90.1348 58.0726 90.3167 58.4867 90.61 58.8356C90.9139 59.1792 91.3145 59.4348 91.8118 59.6024C92.277 59.7592 92.7599 59.7969 93.2607 59.7156C93.7722 59.629 94.236 59.4057 94.652 59.0458C95.0761 58.6886 95.3949 58.1931 95.6084 57.5595L98.1629 49.9804ZM104.154 51.9997L107.138 53.0052L106.408 55.1707L106.552 55.2193C107.025 54.5572 107.625 54.1162 108.351 53.8965C109.077 53.6768 109.817 53.694 110.571 53.9481C111.02 54.0994 111.381 54.2478 111.653 54.3933L110.697 57.2324C110.576 57.1384 110.383 57.024 110.116 56.8893C109.848 56.7546 109.59 56.6453 109.342 56.5615C108.78 56.3723 108.235 56.3223 107.704 56.4115C107.174 56.5008 106.708 56.7187 106.305 57.0653C105.902 57.4118 105.609 57.8578 105.425 58.4032L102.83 66.1027L99.7506 65.0646L104.154 51.9997ZM109.645 73.8656C108.972 73.6385 108.451 73.436 108.082 73.2582L108.909 70.804C109.411 71.0091 109.839 71.1711 110.192 71.29C110.497 71.3927 110.759 71.4498 110.978 71.4612C111.206 71.4754 111.452 71.4066 111.718 71.2549C111.98 71.1113 112.27 70.8473 112.587 70.4629L113.087 69.8544L112.816 54.9191L116.064 56.0138L115.771 66.9005L115.915 66.9492L122.272 58.1061L125.52 59.2008L115.336 72.086C114.583 73.047 113.744 73.6839 112.817 73.9966C111.889 74.3093 110.832 74.2656 109.645 73.8656Z" fill="white"/>
<rect x="16.4461" y="0.316753" width="162.5" height="50.5" rx="25.25" transform="rotate(18.6259 16.4461 0.316753)" stroke="#FF80E3" stroke-opacity="0.2" stroke-width="0.5"/>
</g>
<defs>
<filter id="filter0_b_3617_43238" x="-4" y="-4" width="178.75" height="108.389" filterUnits="userSpaceOnUse" color-interpolation-filters="sRGB">
<feFlood flood-opacity="0" result="BackgroundImageFix"/>
<feGaussianBlur in="BackgroundImageFix" stdDeviation="2"/>
<feComposite in2="SourceAlpha" operator="in" result="effect1_backgroundBlur_3617_43238"/>
<feBlend mode="normal" in="SourceGraphic" in2="effect1_backgroundBlur_3617_43238" result="shape"/>
</filter>
</defs>
</svg>
