<svg width="76" height="76" viewBox="0 0 76 76" fill="none" xmlns="http://www.w3.org/2000/svg">
<circle cx="37" cy="37" r="37" fill="#F4F5F6"/>
<mask id="mask0_3001_38861" style="mask-type:alpha" maskUnits="userSpaceOnUse" x="0" y="0" width="74" height="74">
<circle cx="37" cy="37" r="37" fill="#F8F6FF"/>
</mask>
<g mask="url(#mask0_3001_38861)">
<path d="M10.4062 66.3766C10.4062 61.8941 12.9488 57.7996 16.9665 55.8121L17.5848 55.5062C29.9813 49.3736 44.556 49.5056 56.8394 55.8616C60.6333 57.8247 63.0156 61.7398 63.0156 66.0115V72.9438C63.0156 74.9208 61.4129 76.5235 59.4359 76.5235H13.9286C11.9832 76.5235 10.4062 74.9465 10.4062 73.0012V66.3766Z" fill="#DFE2E6"/>
<circle cx="37.2069" cy="34.6619" r="12.9042" fill="#DFE2E6"/>
</g>
<circle cx="62" cy="62" r="13" fill="#212529" stroke="white" stroke-width="2"/>
<g clip-path="url(#clip0_3001_38861)">
<path fill-rule="evenodd" clip-rule="evenodd" d="M62.8443 56.501C62.8443 56.0316 62.4637 55.651 61.9943 55.651C61.5248 55.651 61.1443 56.0316 61.1443 56.501V61.151H56.4965C56.027 61.151 55.6465 61.5316 55.6465 62.001C55.6465 62.4704 56.027 62.851 56.4965 62.851H61.1443V67.501C61.1443 67.9704 61.5248 68.351 61.9943 68.351C62.4637 68.351 62.8443 67.9704 62.8443 67.501V62.851H67.4965C67.9659 62.851 68.3465 62.4704 68.3465 62.001C68.3465 61.5316 67.9659 61.151 67.4965 61.151H62.8443V56.501Z" fill="white"/>
</g>
<defs>
<clipPath id="clip0_3001_38861">
<rect width="18" height="18" fill="white" transform="translate(53 53)"/>
</clipPath>
</defs>
</svg>
