<svg width="23" height="28" viewBox="0 0 23 28" fill="none" xmlns="http://www.w3.org/2000/svg">
<path d="M21 -9.12237e-08C22.1046 -4.08422e-08 23 0.895431 23 2L23 25.3715C23 26.6933 21.7406 27.6516 20.4667 27.2991L12.0333 24.9657C11.6843 24.8692 11.3157 24.8692 10.9667 24.9657L2.53332 27.2991C1.25938 27.6516 7.89164e-07 26.6933 8.44534e-07 25.3715L1.82357e-06 2C1.86984e-06 0.89543 0.895432 -1.00823e-06 2 -9.57849e-07L21 -9.12237e-08Z" fill="#AEB5BC"/>
<path d="M11.7021 18.1465C10.9795 18.1465 10.3301 18.0244 9.75391 17.7803C9.18262 17.5361 8.73096 17.1943 8.39893 16.7549C8.07178 16.3105 7.89844 15.8027 7.87891 15.2314H9.51953C9.53906 15.5391 9.64404 15.8076 9.83447 16.0371C10.0298 16.2666 10.2886 16.4448 10.6108 16.5718C10.9331 16.6938 11.292 16.7549 11.6875 16.7549C12.1074 16.7549 12.4858 16.6816 12.8228 16.5352C13.1597 16.3887 13.4233 16.186 13.6138 15.9272C13.8042 15.6636 13.8994 15.3633 13.8994 15.0264C13.8994 14.6797 13.8042 14.3696 13.6138 14.0962C13.4233 13.8228 13.1475 13.6104 12.7861 13.459C12.4297 13.3027 12.0049 13.2246 11.5117 13.2246H10.6035V11.9062H11.5117C11.9072 11.9062 12.2612 11.8354 12.5737 11.6938C12.8862 11.5522 13.1279 11.3545 13.2988 11.1006C13.4746 10.8467 13.5625 10.5537 13.5625 10.2217C13.5625 9.89941 13.4868 9.61621 13.3354 9.37207C13.1841 9.12793 12.9692 8.9375 12.6909 8.80078C12.4126 8.66406 12.0879 8.5957 11.7168 8.5957C11.3555 8.5957 11.021 8.65918 10.7134 8.78613C10.4058 8.91309 10.1567 9.09375 9.96631 9.32812C9.78076 9.5625 9.68066 9.83594 9.66602 10.1484H8.11328C8.12793 9.58691 8.29639 9.08643 8.61865 8.64697C8.9458 8.20264 9.38281 7.8584 9.92969 7.61426C10.4766 7.37012 11.0771 7.24805 11.7314 7.24805C12.4053 7.24805 12.9985 7.37744 13.5112 7.63623C14.0288 7.89502 14.4268 8.24658 14.7051 8.69092C14.9834 9.13037 15.1201 9.61133 15.1152 10.1338C15.1201 10.7295 14.9517 11.2373 14.6099 11.6572C14.2729 12.0723 13.8164 12.3506 13.2402 12.4922V12.5654C13.958 12.668 14.5171 12.9438 14.9175 13.3931C15.3228 13.8423 15.5254 14.4062 15.5254 15.085C15.5254 15.666 15.3594 16.1909 15.0273 16.6597C14.6953 17.1235 14.2388 17.4873 13.6577 17.751C13.0767 18.0146 12.4248 18.1465 11.7021 18.1465Z" fill="white"/>
</svg>
