<svg width="23" height="28" viewBox="0 0 23 28" fill="none" xmlns="http://www.w3.org/2000/svg">
<path d="M21 -9.12237e-08C22.1046 -4.08422e-08 23 0.895431 23 2L23 25.3715C23 26.6933 21.7406 27.6516 20.4667 27.2991L12.0333 24.9657C11.6843 24.8692 11.3157 24.8692 10.9667 24.9657L2.53332 27.2991C1.25938 27.6516 2.52723e-07 26.6933 3.08093e-07 25.3715L1.28713e-06 2C1.3334e-06 0.89543 0.895432 -1.00823e-06 2 -9.57849e-07L21 -9.12237e-08Z" fill="#AEB5BC"/>
<path d="M7.9375 16.8281L11.6143 13.1221C12.0586 12.6533 12.3979 12.2773 12.6323 11.9941C12.8667 11.7109 13.0449 11.4351 13.167 11.1665C13.2939 10.8931 13.3574 10.6074 13.3574 10.3096C13.3574 9.96777 13.272 9.66748 13.1011 9.40869C12.9302 9.1499 12.6958 8.94971 12.3979 8.80811C12.1001 8.6665 11.7656 8.5957 11.3945 8.5957C11.0088 8.5957 10.6694 8.67383 10.3765 8.83008C10.0835 8.98633 9.85645 9.20605 9.69531 9.48926C9.53906 9.77246 9.46094 10.0996 9.46094 10.4707H7.9375C7.93262 9.83594 8.0791 9.27441 8.37695 8.78613C8.6748 8.29785 9.08984 7.91943 9.62207 7.65088C10.1543 7.38232 10.7549 7.24805 11.4238 7.24805C12.0977 7.24805 12.6958 7.37988 13.2183 7.64355C13.7456 7.90234 14.1558 8.26123 14.4487 8.72021C14.7417 9.1792 14.8906 9.69434 14.8955 10.2656C14.8906 10.6709 14.8125 11.0615 14.6611 11.4375C14.5098 11.8086 14.251 12.2236 13.8848 12.6826C13.5186 13.1367 13.001 13.6934 12.332 14.3525L10.1787 16.5352V16.623H15.0713V18H7.9375V16.8281Z" fill="white"/>
</svg>
