<svg width="23" height="28" viewBox="0 0 23 28" fill="none" xmlns="http://www.w3.org/2000/svg">
<path d="M21 -9.12237e-08C22.1046 -4.08422e-08 23 0.895431 23 2L23 25.3715C23 26.6933 21.7406 27.6516 20.4667 27.2991L12.0333 24.9657C11.6843 24.8692 11.3157 24.8692 10.9667 24.9657L2.53332 27.2991C1.25938 27.6516 7.89164e-07 26.6933 8.44534e-07 25.3715L1.82357e-06 2C1.86984e-06 0.89543 0.895432 -1.00823e-06 2 -9.57849e-07L21 -9.12237e-08Z" fill="#6C47FF"/>
<path d="M12.9658 7.39453L12.9658 18H11.3398L11.3398 9.00586H11.2812L8.74707 10.6611L8.74707 9.12305L11.3838 7.39453L12.9658 7.39453Z" fill="#F8F6FF"/>
</svg>
