<svg width="24" height="24" viewBox="0 0 24 24" fill="none" xmlns="http://www.w3.org/2000/svg">
<g opacity="0.8">
<rect x="2" y="2" width="20" height="20" rx="6" fill="#212529"/>
<path fill-rule="evenodd" clip-rule="evenodd" d="M7.09091 14.2775L6 9.23924C6 9.05263 6.10909 8.67943 6.54545 8.67943C6.79461 8.67943 7.22425 9.02985 7.69102 9.41055C8.2461 9.86329 8.8537 10.3589 9.27273 10.3589C9.76527 10.3589 10.1679 9.55299 10.5787 8.73072C11.0066 7.87426 11.4434 7 12 7C12.5566 7 12.9934 7.87426 13.4213 8.73072C13.8321 9.55299 14.2347 10.3589 14.7273 10.3589C15.1463 10.3589 15.7539 9.86329 16.309 9.41055C16.7758 9.02985 17.2054 8.67943 17.4545 8.67943C17.8909 8.67943 18 9.05263 18 9.23924L16.9091 14.2775H12H7.09091Z" fill="white"/>
<path d="M7 15.2109H17V16.234C17 16.5192 16.7688 16.7504 16.4835 16.7504H7.51645C7.23122 16.7504 7 16.5192 7 16.234V15.2109Z" fill="white"/>
</g>
</svg>
