<svg width="18" height="18" viewBox="0 0 18 18" fill="none" xmlns="http://www.w3.org/2000/svg">
<g clip-path="url(#clip0_1221_10981)">
<path fill-rule="evenodd" clip-rule="evenodd" d="M11.6661 8.18304C11.6661 10.659 9.65896 12.6661 7.18304 12.6661C4.70713 12.6661 2.7 10.659 2.7 8.18304C2.7 5.70713 4.70713 3.7 7.18304 3.7C9.65896 3.7 11.6661 5.70713 11.6661 8.18304ZM10.8724 13.1452C9.84256 13.9122 8.56581 14.3661 7.18304 14.3661C3.76824 14.3661 1 11.5978 1 8.18304C1 4.76824 3.76824 2 7.18304 2C10.5978 2 13.3661 4.76824 13.3661 8.18304C13.3661 9.56581 12.9122 10.8426 12.1452 11.8724L14.6364 14.3636C14.9879 14.7151 14.9879 15.2849 14.6364 15.6364C14.2849 15.9879 13.7151 15.9879 13.3636 15.6364L10.8724 13.1452Z" fill="current"/>
</g>
<defs>
<clipPath id="clip0_1221_10981">
<rect width="18" height="18" fill="white"/>
</clipPath>
</defs>
</svg>
