<svg width="24" height="24" viewBox="0 0 24 24" fill="none" xmlns="http://www.w3.org/2000/svg">
<g clip-path="url(#clip0_1187_14204)">
<path fill-rule="evenodd" clip-rule="evenodd" d="M15.8201 10.912C15.8201 14.3605 13.0246 17.1561 9.57609 17.1561C6.12759 17.1561 3.33203 14.3605 3.33203 10.912C3.33203 7.46353 6.12759 4.66797 9.57609 4.66797C13.0246 4.66797 15.8201 7.46353 15.8201 10.912ZM14.5358 17.4979C13.1557 18.5389 11.438 19.1561 9.57609 19.1561C5.02302 19.1561 1.33203 15.4651 1.33203 10.912C1.33203 6.35896 5.02302 2.66797 9.57609 2.66797C14.1292 2.66797 17.8201 6.35896 17.8201 10.912C17.8201 12.7738 17.203 14.4914 16.1621 15.8715L19.4785 19.1878C19.9276 19.6369 19.9276 20.365 19.4785 20.8141C19.0294 21.2633 18.3012 21.2633 17.8521 20.8141L14.5358 17.4979Z" fill="#7B8894"/>
</g>
<defs>
<clipPath id="clip0_1187_14204">
<rect width="24" height="24" fill="white"/>
</clipPath>
</defs>
</svg>
