<svg width="24" height="24" viewBox="0 0 24 24" fill="none" xmlns="http://www.w3.org/2000/svg">
<g clip-path="url(#clip0_2451_22575)">
<path fill-rule="evenodd" clip-rule="evenodd" d="M15.8221 10.9101C15.8221 14.3586 13.0265 17.1541 9.57804 17.1541C6.12954 17.1541 3.33398 14.3586 3.33398 10.9101C3.33398 7.46157 6.12954 4.66602 9.57804 4.66602C13.0265 4.66602 15.8221 7.46157 15.8221 10.9101ZM14.5378 17.4959C13.1577 18.5369 11.4399 19.1541 9.57804 19.1541C5.02497 19.1541 1.33398 15.4631 1.33398 10.9101C1.33398 6.357 5.02497 2.66602 9.57804 2.66602C14.1311 2.66602 17.8221 6.357 17.8221 10.9101C17.8221 12.7718 17.205 14.4895 16.1641 15.8695L19.4804 19.1859C19.9295 19.635 19.9295 20.3631 19.4804 20.8122C19.0313 21.2613 18.3032 21.2613 17.8541 20.8122L14.5378 17.4959Z" fill="#212529"/>
</g>
<defs>
<clipPath id="clip0_2451_22575">
<rect width="24" height="24" fill="white"/>
</clipPath>
</defs>
</svg>
