<svg width="24" height="24" viewBox="0 0 24 24" fill="none" xmlns="http://www.w3.org/2000/svg">
<g clip-path="url(#clip0_4569_1204)">
<path fill-rule="evenodd" clip-rule="evenodd" d="M9.51947 3.53307C9.51947 3.10325 9.8679 2.75482 10.2977 2.75482H13.6968C14.1266 2.75482 14.475 3.10325 14.475 3.53307V4.78498L14.4788 4.78217C14.4788 4.80597 14.4784 4.83019 14.478 4.85487C14.4725 5.18055 14.4657 5.58524 15.3798 6.13368L15.3906 6.14033C16.316 6.65152 16.6617 6.44407 16.9401 6.27702L16.9402 6.27699C16.9613 6.2643 16.9821 6.25185 17.0027 6.23996L17.0021 6.24501L18.0838 5.62051C18.456 5.4056 18.932 5.53314 19.1469 5.90536L20.8464 8.84905C21.0613 9.22128 20.9338 9.69725 20.5616 9.91215L19.211 10.6919C18.9855 10.8617 18.7753 11.1684 18.7616 11.9836C18.7616 11.9848 18.7616 11.986 18.7615 11.9872C18.7616 11.9884 18.7616 11.9897 18.7616 11.9909C18.777 12.9046 19.0392 13.1794 19.2931 13.3389L19.4318 13.4189C19.4487 13.4283 19.4653 13.4376 19.4816 13.447L19.4809 13.4473L20.5642 14.0727C20.9365 14.2876 21.064 14.7636 20.8491 15.1358L19.1496 18.0795C18.9347 18.4517 18.4587 18.5793 18.0865 18.3644L16.7983 17.6206C16.5349 17.4881 16.1643 17.4168 15.3896 17.8469C15.3654 17.8603 15.3441 17.87 15.3254 17.8763C15.32 17.8794 15.3146 17.8824 15.3092 17.8855C14.6202 18.3148 14.496 18.6547 14.4765 18.9375V20.4453C14.4765 20.8751 14.1281 21.2236 13.6983 21.2236H10.2992C9.86937 21.2236 9.52094 20.8751 9.52094 20.4453V19.1934L9.51718 19.1962C9.51718 19.1724 9.51759 19.1482 9.518 19.1235C9.52333 18.8065 9.52992 18.4146 8.68709 17.8881C8.62706 17.8543 8.56759 17.8197 8.50871 17.7841C7.65836 17.3422 7.32783 17.5405 7.05973 17.7014L7.05961 17.7014C7.03849 17.7141 7.01775 17.7266 6.99718 17.7384L6.99779 17.7334L5.91611 18.3579C5.54388 18.5728 5.06791 18.4453 4.85301 18.073L3.15347 15.1293C2.93856 14.7571 3.0661 14.2811 3.43833 14.0662L4.78885 13.2865C5.01411 13.1168 5.22409 12.8107 5.23822 11.9976L5.23822 11.9946L5.23822 11.9887C5.2224 11.0772 4.96045 10.8027 4.70674 10.6434L4.5681 10.5634C4.55121 10.554 4.53459 10.5447 4.51833 10.5353L4.51897 10.535L3.43564 9.90957C3.06341 9.69466 2.93588 9.2187 3.15078 8.84647L4.85032 5.90278C5.06522 5.53055 5.54119 5.40302 5.91342 5.61793L7.20159 6.36165C7.46502 6.49422 7.83557 6.56553 8.61032 6.13542C8.62459 6.1275 8.63788 6.12086 8.65021 6.11545C9.37137 5.67549 9.49963 5.32866 9.51947 5.04094V3.53307Z" fill="white"/>
<path d="M14.475 4.78498H13.475C13.475 5.16375 13.689 5.51002 14.0278 5.67941C14.3666 5.8488 14.772 5.81225 15.075 5.58498L14.475 4.78498ZM14.4788 4.78217L15.4788 4.78213C15.4788 4.40336 15.2648 4.05711 14.926 3.88773C14.5872 3.71835 14.1818 3.75491 13.8788 3.98217L14.4788 4.78217ZM14.478 4.85487L15.4778 4.87168V4.87168L14.478 4.85487ZM15.3798 6.13368L15.9035 5.28169L15.8943 5.27618L15.3798 6.13368ZM15.3906 6.14033L14.867 6.99227C14.8802 7.00037 14.8935 7.00817 14.9071 7.01565L15.3906 6.14033ZM16.9401 6.27702L16.4362 5.41318L16.4257 5.41953L16.9401 6.27702ZM16.9402 6.27699L17.4441 7.14084L17.4547 7.13447L16.9402 6.27699ZM17.0027 6.23996L17.9955 6.35963C18.0408 5.98358 17.8698 5.6142 17.5537 5.40548C17.2377 5.19676 16.8308 5.18454 16.5028 5.3739L17.0027 6.23996ZM17.0021 6.24501L16.0093 6.12534C15.9639 6.5014 16.135 6.8708 16.4511 7.07951C16.7672 7.28823 17.1741 7.30043 17.5021 7.11104L17.0021 6.24501ZM18.0838 5.62051L17.5838 4.75448L17.5838 4.75448L18.0838 5.62051ZM19.1469 5.90536L20.0129 5.40536V5.40536L19.1469 5.90536ZM20.8464 8.84905L21.7124 8.34905L21.7124 8.34905L20.8464 8.84905ZM20.5616 9.91215L21.0616 10.7782L20.5616 9.91215ZM19.211 10.6919L18.711 9.82585C18.6758 9.84619 18.6419 9.86866 18.6094 9.89313L19.211 10.6919ZM18.7616 11.9836L19.7615 12.0007L19.7615 12.0004L18.7616 11.9836ZM18.7615 11.9872L17.7618 11.9643C17.7614 11.9797 17.7614 11.995 17.7618 12.0104L18.7615 11.9872ZM18.7616 11.9909L17.7618 12.0077L17.7618 12.0077L18.7616 11.9909ZM19.2931 13.3389L18.7614 14.1858C18.7719 14.1923 18.7825 14.1987 18.7931 14.2049L19.2931 13.3389ZM19.4318 13.4189L18.9318 14.2849C18.9364 14.2876 18.9411 14.2902 18.9458 14.2928L19.4318 13.4189ZM19.4816 13.447L19.8748 14.3664C20.223 14.2175 20.4572 13.8847 20.4798 13.5067C20.5024 13.1287 20.3096 12.7704 19.9816 12.581L19.4816 13.447ZM19.4809 13.4473L19.0876 12.5278C18.7395 12.6768 18.5053 13.0096 18.4827 13.3876C18.4601 13.7656 18.653 14.1239 18.9809 14.3133L19.4809 13.4473ZM20.5642 14.0727L20.0642 14.9388L20.0642 14.9388L20.5642 14.0727ZM20.8491 15.1358L19.9831 14.6358V14.6358L20.8491 15.1358ZM19.1496 18.0795L18.2835 17.5795L18.2835 17.5795L19.1496 18.0795ZM18.0865 18.3644L17.5865 19.2304L18.0865 18.3644ZM16.7983 17.6206L17.2983 16.7546C17.2817 16.7451 17.2649 16.736 17.2478 16.7274L16.7983 17.6206ZM15.3896 17.8469L14.9042 16.9726L14.9042 16.9726L15.3896 17.8469ZM15.3254 17.8763L15.0061 16.9287C14.9457 16.949 14.8874 16.9751 14.832 17.0065L15.3254 17.8763ZM15.3092 17.8855L14.8181 17.0144C14.8054 17.0216 14.7928 17.029 14.7803 17.0368L15.3092 17.8855ZM14.4765 18.9375L13.4789 18.8687C13.4773 18.8916 13.4765 18.9145 13.4765 18.9375H14.4765ZM9.52094 19.1934H10.5209C10.5209 18.8146 10.3069 18.4684 9.96812 18.299C9.62931 18.1296 9.22388 18.1662 8.92087 18.3935L9.52094 19.1934ZM9.51718 19.1962L8.51718 19.1963C8.51721 19.5751 8.73123 19.9213 9.07003 20.0907C9.40883 20.2601 9.81425 20.2235 10.1172 19.9962L9.51718 19.1962ZM9.518 19.1235L8.51814 19.1067V19.1067L9.518 19.1235ZM8.68709 17.8881L9.21689 17.04C9.20392 17.0319 9.19076 17.0241 9.17744 17.0166L8.68709 17.8881ZM8.50871 17.7841L9.02547 16.928C9.00727 16.917 8.98872 16.9066 8.96986 16.8968L8.50871 17.7841ZM7.05973 17.7014L7.57122 18.5607L7.57422 18.5589L7.05973 17.7014ZM7.05961 17.7014L6.54813 16.8421L6.54512 16.8439L7.05961 17.7014ZM6.99718 17.7384L6.00436 17.6188C5.95905 17.9948 6.13008 18.3642 6.44615 18.5729C6.76221 18.7816 7.16907 18.7939 7.4971 18.6045L6.99718 17.7384ZM6.99779 17.7334L7.99061 17.853C8.03592 17.477 7.86487 17.1076 7.54878 16.8989C7.23269 16.6902 6.82582 16.678 6.49779 16.8674L6.99779 17.7334ZM5.91611 18.3579L5.41611 17.4919L5.41611 17.4919L5.91611 18.3579ZM4.85301 18.073L3.98698 18.573L3.98698 18.573L4.85301 18.073ZM3.15347 15.1293L4.01949 14.6293H4.01949L3.15347 15.1293ZM3.43833 14.0662L2.93833 13.2002L2.93833 13.2002L3.43833 14.0662ZM4.78885 13.2865L5.28885 14.1525C5.32407 14.1322 5.35803 14.1097 5.39051 14.0853L4.78885 13.2865ZM5.23822 11.9976L6.23807 12.015C6.23817 12.0091 6.23822 12.0033 6.23822 11.9974L5.23822 11.9976ZM5.23822 11.9946L4.23822 11.9942L4.23822 11.9948L5.23822 11.9946ZM5.23822 11.9887L6.23822 11.9891C6.23823 11.9832 6.23818 11.9773 6.23807 11.9713L5.23822 11.9887ZM4.70674 10.6434L5.23845 9.79651C5.228 9.78995 5.21743 9.78358 5.20674 9.77741L4.70674 10.6434ZM4.5681 10.5634L5.0681 9.69737C5.06346 9.69469 5.0588 9.69205 5.05412 9.68945L4.5681 10.5634ZM4.51833 10.5353L4.12576 9.61559C3.77736 9.76429 3.5429 10.0971 3.52013 10.4752C3.49737 10.8533 3.69022 11.2119 4.01826 11.4013L4.51833 10.5353ZM4.51897 10.535L4.91154 11.4548C5.25995 11.306 5.49442 10.9732 5.51717 10.5951C5.53992 10.2169 5.34704 9.85842 5.01897 9.66901L4.51897 10.535ZM3.43564 9.90957L2.93564 10.7756H2.93564L3.43564 9.90957ZM3.15078 8.84647L2.28476 8.34647H2.28476L3.15078 8.84647ZM4.85032 5.90278L3.98429 5.40278L4.85032 5.90278ZM5.91342 5.61793L5.41342 6.48395L5.41342 6.48395L5.91342 5.61793ZM7.20159 6.36165L6.70159 7.22767C6.71815 7.23723 6.73498 7.24632 6.75206 7.25491L7.20159 6.36165ZM8.61032 6.13542L9.0957 7.00972L9.0957 7.00972L8.61032 6.13542ZM8.65021 6.11545L9.05154 7.03139C9.09272 7.01334 9.13264 6.99254 9.17102 6.96913L8.65021 6.11545ZM9.51947 5.04094L10.5171 5.10974C10.5187 5.08684 10.5195 5.06389 10.5195 5.04094H9.51947ZM10.2977 1.75482C9.31562 1.75482 8.51947 2.55097 8.51947 3.53307H10.5195C10.5195 3.65554 10.4202 3.75482 10.2977 3.75482V1.75482ZM13.6968 1.75482H10.2977V3.75482H13.6968V1.75482ZM15.475 3.53307C15.475 2.55097 14.6789 1.75482 13.6968 1.75482V3.75482C13.5743 3.75482 13.475 3.65554 13.475 3.53307H15.475ZM15.475 4.78498V3.53307H13.475V4.78498H15.475ZM13.8788 3.98217L13.875 3.98498L15.075 5.58498L15.0788 5.58217L13.8788 3.98217ZM15.4778 4.87168C15.4782 4.84856 15.4788 4.8158 15.4788 4.78213L13.4788 4.78221C13.4788 4.79613 13.4786 4.81183 13.4781 4.83807L15.4778 4.87168ZM15.8943 5.27618C15.5188 5.05089 15.4605 4.92905 15.467 4.94131C15.4856 4.97631 15.4753 5.02419 15.4778 4.87168L13.4781 4.83806C13.4752 5.01123 13.4587 5.42429 13.7011 5.88017C13.9313 6.31331 14.3267 6.66803 14.8653 6.99118L15.8943 5.27618ZM15.9142 5.28838L15.9034 5.28174L14.8562 6.98563L14.867 6.99227L15.9142 5.28838ZM16.4257 5.41953C16.295 5.49793 16.331 5.46519 16.3707 5.46371C16.3855 5.46316 16.253 5.47429 15.8742 5.26501L14.9071 7.01565C15.4536 7.31756 15.9566 7.48056 16.4453 7.46232C16.9588 7.44315 17.3069 7.22317 17.4546 7.13452L16.4257 5.41953ZM16.4363 5.41321L16.4363 5.41324L17.444 7.1408L17.4441 7.14077L16.4363 5.41321ZM16.5028 5.3739C16.4736 5.39074 16.4455 5.4076 16.4257 5.41952L17.4547 7.13447C17.4772 7.12101 17.4906 7.11296 17.5026 7.10602L16.5028 5.3739ZM17.9949 6.36469L17.9955 6.35963L16.0099 6.12029L16.0093 6.12534L17.9949 6.36469ZM17.5838 4.75448L16.5021 5.37899L17.5021 7.11104L18.5838 6.48653L17.5838 4.75448ZM20.0129 5.40536C19.5219 4.55484 18.4343 4.26343 17.5838 4.75448L18.5838 6.48653C18.4777 6.54777 18.3421 6.51143 18.2809 6.40536L20.0129 5.40536ZM21.7124 8.34905L20.0129 5.40536L18.2809 6.40536L19.9804 9.34905L21.7124 8.34905ZM21.0616 10.7782C21.9121 10.2871 22.2035 9.19957 21.7124 8.34905L19.9804 9.34905C19.9192 9.24298 19.9555 9.10736 20.0616 9.04613L21.0616 10.7782ZM19.711 11.5579L21.0616 10.7782L20.0616 9.04613L18.711 9.82585L19.711 11.5579ZM19.7615 12.0004C19.767 11.6685 19.8124 11.5229 19.8313 11.4772C19.8392 11.4579 19.8412 11.4593 19.8323 11.4706C19.8285 11.4755 19.824 11.4803 19.8197 11.4845C19.8154 11.4886 19.8126 11.4907 19.8127 11.4906L18.6094 9.89313C18.3651 10.0771 18.1385 10.3362 17.9825 10.7142C17.8365 11.0681 17.7699 11.4834 17.7618 11.9668L19.7615 12.0004ZM19.7613 12.0101C19.7614 12.0067 19.7614 12.0035 19.7615 12.0007L17.7618 11.9664C17.7618 11.966 17.7618 11.9653 17.7618 11.9643L19.7613 12.0101ZM17.7618 12.0104C17.7618 12.0094 17.7618 12.0085 17.7618 12.0077L19.7615 11.9742C19.7614 11.9708 19.7613 11.9674 19.7613 11.964L17.7618 12.0104ZM17.7618 12.0077C17.7708 12.5478 17.853 13.0055 18.0396 13.3871C18.2419 13.8006 18.5232 14.0362 18.7614 14.1858L19.8249 12.4919C19.8064 12.4803 19.8117 12.4817 19.8232 12.4935C19.8362 12.507 19.8398 12.5158 19.8362 12.5083C19.8244 12.4843 19.7677 12.3477 19.7615 11.9741L17.7618 12.0077ZM18.7931 14.2049L18.9318 14.2849L19.9318 12.5529L19.7931 12.4728L18.7931 14.2049ZM18.9458 14.2928C18.9616 14.3017 18.9725 14.3078 18.9815 14.313L19.9816 12.581C19.9581 12.5674 19.9357 12.5549 19.9178 12.545L18.9458 14.2928ZM19.0883 12.5276L19.0876 12.5278L19.8742 14.3667L19.8748 14.3664L19.0883 12.5276ZM18.9809 14.3133L20.0642 14.9388L21.0642 13.2067L19.9809 12.5812L18.9809 14.3133ZM20.0642 14.9388C19.9582 14.8775 19.9218 14.7419 19.9831 14.6358L21.7151 15.6358C22.2062 14.7853 21.9148 13.6978 21.0642 13.2067L20.0642 14.9388ZM19.9831 14.6358L18.2835 17.5795L20.0156 18.5795L21.7151 15.6358L19.9831 14.6358ZM18.2835 17.5795C18.3448 17.4735 18.4804 17.4371 18.5865 17.4983L17.5865 19.2304C18.437 19.7214 19.5245 19.43 20.0156 18.5795L18.2835 17.5795ZM18.5865 17.4983L17.2983 16.7546L16.2983 18.4867L17.5865 19.2304L18.5865 17.4983ZM17.2478 16.7274C16.9875 16.5964 16.6437 16.4878 16.1989 16.5265C15.7875 16.5624 15.3625 16.7181 14.9042 16.9726L15.8749 18.7212C16.1914 18.5455 16.339 18.5219 16.3724 18.519C16.3843 18.518 16.3772 18.5198 16.3594 18.5159C16.343 18.5122 16.3365 18.5077 16.3488 18.5139L17.2478 16.7274ZM14.9042 16.9726C14.9158 16.9661 14.9512 16.9472 15.0061 16.9287L15.6448 18.8239C15.737 18.7929 15.8151 18.7544 15.8749 18.7212L14.9042 16.9726ZM15.8002 18.7566C15.8065 18.7531 15.8127 18.7496 15.8189 18.7461L14.832 17.0065C14.8274 17.0091 14.8228 17.0118 14.8181 17.0144L15.8002 18.7566ZM15.4741 19.0063C15.4748 18.9963 15.475 19.0046 15.4701 19.0199C15.4649 19.0361 15.4601 19.0413 15.4658 19.0329C15.4817 19.0099 15.5642 18.9049 15.838 18.7342L14.7803 17.0368C14.3652 17.2954 14.0411 17.575 13.8178 17.8999C13.5782 18.2483 13.4985 18.5847 13.4789 18.8687L15.4741 19.0063ZM15.4765 20.4453V18.9375H13.4765V20.4453H15.4765ZM13.6983 22.2236C14.6804 22.2236 15.4765 21.4274 15.4765 20.4453H13.4765C13.4765 20.3229 13.5758 20.2236 13.6983 20.2236V22.2236ZM10.2992 22.2236H13.6983V20.2236H10.2992V22.2236ZM8.52094 20.4453C8.52094 21.4274 9.31708 22.2236 10.2992 22.2236V20.2236C10.4217 20.2236 10.5209 20.3229 10.5209 20.4453H8.52094ZM8.52094 19.1934V20.4453H10.5209V19.1934H8.52094ZM10.1172 19.9962L10.121 19.9934L8.92087 18.3935L8.91712 18.3963L10.1172 19.9962ZM8.51814 19.1067C8.51776 19.1298 8.51718 19.1626 8.51718 19.1963L10.5172 19.1962C10.5172 19.1823 10.5174 19.1666 10.5179 19.1403L8.51814 19.1067ZM8.1573 18.7362C8.49317 18.946 8.53821 19.0554 8.52853 19.0363C8.51047 19.0006 8.52069 18.9556 8.51814 19.1067L10.5179 19.1403C10.5207 18.9744 10.5368 18.575 10.3127 18.1325C10.0969 17.7066 9.72385 17.3567 9.21689 17.04L8.1573 18.7362ZM7.99195 18.6403C8.05954 18.6811 8.12782 18.7209 8.19675 18.7596L9.17744 17.0166C9.1263 16.9878 9.07564 16.9583 9.02547 16.928L7.99195 18.6403ZM7.57422 18.5589C7.70311 18.4815 7.67052 18.512 7.63067 18.5146C7.60588 18.5162 7.71452 18.4984 8.04756 18.6715L8.96986 16.8968C8.45255 16.628 7.97076 16.4883 7.50108 16.5188C7.01637 16.5503 6.68446 16.7603 6.54525 16.8439L7.57422 18.5589ZM7.5711 18.5607L7.57122 18.5607L6.54825 16.8421L6.54813 16.8421L7.5711 18.5607ZM7.4971 18.6045C7.52626 18.5877 7.55431 18.5708 7.57411 18.5589L6.54512 16.8439C6.52267 16.8574 6.50925 16.8654 6.49725 16.8724L7.4971 18.6045ZM6.00497 17.6137L6.00436 17.6188L7.99 17.8581L7.99061 17.853L6.00497 17.6137ZM6.41611 19.2239L7.49779 18.5994L6.49779 16.8674L5.41611 17.4919L6.41611 19.2239ZM3.98698 18.573C4.47803 19.4235 5.56559 19.715 6.41611 19.2239L5.41611 17.4919C5.52217 17.4306 5.65779 17.467 5.71903 17.573L3.98698 18.573ZM2.28744 15.6293L3.98698 18.573L5.71903 17.573L4.01949 14.6293L2.28744 15.6293ZM2.93833 13.2002C2.08781 13.6913 1.79639 14.7788 2.28744 15.6293L4.01949 14.6293C4.08073 14.7354 4.04439 14.871 3.93833 14.9323L2.93833 13.2002ZM4.28885 12.4205L2.93833 13.2002L3.93833 14.9323L5.28885 14.1525L4.28885 12.4205ZM4.23837 11.9803C4.23263 12.311 4.18732 12.4559 4.16856 12.5013C4.16065 12.5205 4.15866 12.5191 4.16757 12.5078C4.17145 12.5029 4.17585 12.4981 4.18023 12.4939C4.1845 12.4898 4.18727 12.4877 4.18719 12.4878L5.39051 14.0853C5.63445 13.9015 5.86083 13.6428 6.01686 13.2654C6.16294 12.912 6.22969 12.4974 6.23807 12.015L4.23837 11.9803ZM4.23822 11.9948L4.23822 11.9979L6.23822 11.9974L6.23822 11.9944L4.23822 11.9948ZM4.23822 11.9882L4.23822 11.9942L6.23822 11.995L6.23822 11.9891L4.23822 11.9882ZM4.17503 11.4904C4.19349 11.502 4.18814 11.5006 4.17671 11.4888C4.16369 11.4754 4.16005 11.4665 4.16365 11.4739C4.17532 11.4977 4.23191 11.6336 4.23837 12.006L6.23807 11.9713C6.22872 11.4322 6.14642 10.9752 5.95972 10.594C5.75748 10.1812 5.47639 9.94589 5.23845 9.79651L4.17503 11.4904ZM4.0681 11.4294L4.20674 11.5095L5.20674 9.77741L5.0681 9.69737L4.0681 11.4294ZM4.01826 11.4013C4.04179 11.4149 4.06418 11.4274 4.08207 11.4373L5.05412 9.68945C5.03824 9.68062 5.02739 9.67452 5.01839 9.66932L4.01826 11.4013ZM4.12641 9.61531L4.12576 9.61559L4.9109 11.455L4.91154 11.4548L4.12641 9.61531ZM2.93564 10.7756L4.01897 11.4011L5.01897 9.66901L3.93564 9.04354L2.93564 10.7756ZM2.28476 8.34647C1.79371 9.19699 2.08512 10.2845 2.93564 10.7756L3.93564 9.04354C4.0417 9.10478 4.07804 9.2404 4.01681 9.34647L2.28476 8.34647ZM3.98429 5.40278L2.28476 8.34647L4.01681 9.34647L5.71634 6.40278L3.98429 5.40278ZM6.41342 4.7519C5.5629 4.26085 4.47534 4.55226 3.98429 5.40278L5.71634 6.40278C5.65511 6.50885 5.51948 6.54519 5.41342 6.48395L6.41342 4.7519ZM7.70159 5.49562L6.41342 4.7519L5.41342 6.48395L6.70159 7.22767L7.70159 5.49562ZM8.12494 5.26111C7.80851 5.43678 7.66089 5.4604 7.62747 5.46331C7.61553 5.46435 7.62265 5.4625 7.64043 5.46644C7.65692 5.4701 7.66341 5.47457 7.65112 5.46839L6.75206 7.25491C7.01235 7.38591 7.35622 7.49449 7.80095 7.45577C8.21235 7.41995 8.63738 7.26416 9.0957 7.00972L8.12494 5.26111ZM8.24888 5.19952C8.2032 5.21953 8.16168 5.24072 8.12493 5.26112L9.0957 7.00972C9.0875 7.01427 9.07256 7.02218 9.05154 7.03139L8.24888 5.19952ZM8.52184 4.97214C8.52115 4.98212 8.521 4.97351 8.52612 4.95785C8.53153 4.94128 8.53628 4.93671 8.5293 4.94665C8.51045 4.97352 8.42043 5.08423 8.12941 5.26178L9.17102 6.96913C9.60115 6.70671 9.93585 6.42403 10.1664 6.09557C10.4144 5.74208 10.4971 5.39974 10.5171 5.10974L8.52184 4.97214ZM8.51947 3.53307V5.04094H10.5195V3.53307H8.51947Z" fill="#212529"/>
<circle cx="12.0013" cy="11.9901" r="2.68728" stroke="#212529" stroke-width="1.8"/>
</g>
<defs>
<clipPath id="clip0_4569_1204">
<rect width="24" height="24" fill="white"/>
</clipPath>
</defs>
</svg>
