<svg width="41" height="40" viewBox="0 0 41 40" fill="none" xmlns="http://www.w3.org/2000/svg">
<circle cx="20.5" cy="20" r="20" fill="#489BEA"/>
<path d="M30.4987 14.7755C29.7996 15.0769 29.0482 15.28 28.26 15.3718C29.065 14.9031 29.6829 14.1615 29.9738 13.2774C29.2205 13.7116 28.3867 14.0261 27.4986 14.196C26.7874 13.4597 25.7746 13 24.6533 13C22.5004 13 20.755 14.6954 20.755 16.786C20.755 17.0829 20.7892 17.3719 20.8562 17.6486C17.6168 17.4904 14.7441 15.9832 12.8218 13.6927C12.486 14.252 12.2943 14.9024 12.2943 15.5965C12.2943 16.9103 12.9826 18.0692 14.0282 18.7483C13.3895 18.7288 12.7882 18.5582 12.2628 18.275C12.2628 18.2906 12.2628 18.3069 12.2628 18.3225C12.2628 20.1572 13.6066 21.6872 15.3895 22.0355C15.0625 22.1221 14.7179 22.1684 14.3627 22.1684C14.1114 22.1684 13.8674 22.1443 13.6294 22.1007C14.1254 23.6046 15.5652 24.6997 17.271 24.7303C15.9372 25.746 14.2561 26.3515 12.4297 26.3515C12.1153 26.3515 11.805 26.3333 11.5 26.2988C13.2253 27.373 15.2743 28 17.4754 28C24.6452 28 28.5663 22.2302 28.5663 17.2267C28.5663 17.0627 28.5623 16.8993 28.5549 16.7371C29.3163 16.2033 29.9772 15.5366 30.5 14.7774L30.4987 14.7755Z" fill="white"/>
</svg>
