<svg width="36" height="36" viewBox="0 0 36 36" fill="none" xmlns="http://www.w3.org/2000/svg">
<mask id="path-1-inside-1_2432_30171" fill="white">
<path fill-rule="evenodd" clip-rule="evenodd" d="M17.9964 4H5.85356C4.00144 4 2.5 5.50144 2.5 7.35356V31.9479C2.5 34.7547 5.74233 36.3197 7.93987 34.5735L15.9117 28.2389C17.1333 27.2683 18.8628 27.2683 20.0844 28.2389L28.0562 34.5735C30.2538 36.3197 33.4961 34.7547 33.4961 31.9479V7.35356C33.4961 5.50144 31.9947 4 30.1425 4H17.9997H17.9964Z"/>
</mask>
<path fill-rule="evenodd" clip-rule="evenodd" d="M17.9964 4H5.85356C4.00144 4 2.5 5.50144 2.5 7.35356V31.9479C2.5 34.7547 5.74233 36.3197 7.93987 34.5735L15.9117 28.2389C17.1333 27.2683 18.8628 27.2683 20.0844 28.2389L28.0562 34.5735C30.2538 36.3197 33.4961 34.7547 33.4961 31.9479V7.35356C33.4961 5.50144 31.9947 4 30.1425 4H17.9997H17.9964Z" fill="#EAECEF"/>
<path d="M15.9117 28.2389L13.8254 25.6134L15.9117 28.2389ZM20.0844 28.2389L22.1707 25.6134L20.0844 28.2389ZM7.93987 34.5735L5.85356 31.9479L7.93987 34.5735ZM5.85356 7.35356H17.9964V0.646443H5.85356V7.35356ZM5.85356 31.9479V7.35356H-0.853557V31.9479H5.85356ZM13.8254 25.6134L5.85356 31.9479L10.0262 37.199L17.998 30.8645L13.8254 25.6134ZM17.998 30.8645L25.9699 37.199L30.1425 31.9479L22.1707 25.6134L17.998 30.8645ZM36.8497 31.9479V7.35356H30.1425V31.9479H36.8497ZM30.1425 0.646443H17.9997V7.35356H30.1425V0.646443ZM17.9997 0.646443H17.9964V7.35356H17.9997V0.646443ZM25.9699 37.199C30.365 40.6914 36.8497 37.5616 36.8497 31.9479H30.1425C30.1425 31.9616 30.1416 31.9691 30.1412 31.9714C30.1409 31.9738 30.1409 31.9728 30.1419 31.9693C30.143 31.9659 30.1446 31.9615 30.1468 31.9567C30.1491 31.952 30.1514 31.9478 30.1537 31.9444C30.1581 31.9376 30.1606 31.936 30.1584 31.9379C30.156 31.94 30.1505 31.944 30.1425 31.9479C30.1345 31.9517 30.128 31.9535 30.1248 31.9541C30.122 31.9546 30.1248 31.9537 30.1329 31.9545C30.137 31.9548 30.1417 31.9555 30.1468 31.9567C30.1519 31.958 30.1564 31.9594 30.1597 31.9607C30.1631 31.9621 30.1638 31.9627 30.1618 31.9615C30.1598 31.9604 30.1532 31.9564 30.1425 31.9479L25.9699 37.199ZM17.998 30.8645L22.1707 25.6134C19.7276 23.6721 16.2685 23.6721 13.8254 25.6134L17.998 30.8645ZM-0.853557 31.9479C-0.853557 37.5616 5.63111 40.6914 10.0262 37.199L5.85356 31.9479C5.84285 31.9564 5.83632 31.9604 5.83431 31.9615C5.83227 31.9627 5.83302 31.9621 5.83641 31.9607C5.83974 31.9594 5.84417 31.958 5.84932 31.9567C5.85441 31.9555 5.85913 31.9548 5.86317 31.9545C5.87129 31.9537 5.8741 31.9546 5.87129 31.9541C5.86807 31.9535 5.86155 31.9517 5.85356 31.9479C5.84556 31.944 5.84013 31.94 5.83765 31.9379C5.83549 31.936 5.83795 31.9376 5.84243 31.9444C5.84466 31.9478 5.84704 31.952 5.84926 31.9567C5.85151 31.9615 5.85312 31.9659 5.85416 31.9693C5.85521 31.9728 5.8552 31.9738 5.85486 31.9714C5.85452 31.9691 5.85356 31.9616 5.85356 31.9479H-0.853557ZM36.8497 7.35356C36.8497 3.64933 33.8468 0.646443 30.1425 0.646443V7.35356V7.35356H36.8497ZM5.85356 0.646443C2.14932 0.646443 -0.853557 3.64933 -0.853557 7.35356H5.85356V7.35356V0.646443Z" fill="#EAECEF" mask="url(#path-1-inside-1_2432_30171)"/>
</svg>
