<svg width="24" height="24" viewBox="0 0 24 24" fill="none" xmlns="http://www.w3.org/2000/svg">
<mask id="path-1-inside-1_1612_16600" fill="white">
<path fill-rule="evenodd" clip-rule="evenodd" d="M12 3.5H5.5C4.39543 3.5 3.5 4.39543 3.5 5.5V18.4931C3.5 20.1671 5.43367 21.1004 6.74424 20.059L10.7558 16.8714C11.4843 16.2925 12.5157 16.2925 13.2442 16.8714L17.2558 20.059C18.5663 21.1004 20.5 20.1671 20.5 18.4931V5.5C20.5 4.39543 19.6046 3.5 18.5 3.5H12Z"/>
</mask>
<path d="M17.2558 20.059L16.0115 21.6248L17.2558 20.059ZM13.2442 16.8714L12 18.4372L13.2442 16.8714ZM5.5 5.5H12V1.5H5.5V5.5ZM5.5 18.4931V5.5H1.5V18.4931H5.5ZM9.51152 15.3055L5.5 18.4931L7.98848 21.6248L12 18.4372L9.51152 15.3055ZM12 18.4372L16.0115 21.6248L18.5 18.4931L14.4885 15.3055L12 18.4372ZM22.5 18.4931V5.5H18.5V18.4931H22.5ZM18.5 1.5H12V5.5H18.5V1.5ZM16.0115 21.6248C18.6327 23.7076 22.5 21.841 22.5 18.4931H18.5L18.5 18.4931L16.0115 21.6248ZM12 18.4372L14.4885 15.3055C13.0315 14.1478 10.9685 14.1478 9.51152 15.3055L12 18.4372ZM1.5 18.4931C1.5 21.841 5.36734 23.7076 7.98848 21.6248L5.5 18.4931L5.5 18.4931H1.5ZM22.5 5.5C22.5 3.29086 20.7091 1.5 18.5 1.5V5.5V5.5H22.5ZM5.5 1.5C3.29086 1.5 1.5 3.29086 1.5 5.5H5.5V5.5V1.5Z" fill="#7B8894" mask="url(#path-1-inside-1_1612_16600)"/>
</svg>
