<svg width="18" height="18" viewBox="0 0 18 18" fill="none" xmlns="http://www.w3.org/2000/svg">
<mask id="path-1-inside-1_6590_56140" fill="white">
<path fill-rule="evenodd" clip-rule="evenodd" d="M9.05078 3.5H4.27137C3.45919 3.5 2.80078 4.15841 2.80078 4.97059V14.5244C2.80078 15.7552 4.22259 16.4415 5.18625 15.6757L8.1359 13.3319C8.67156 12.9063 9.43 12.9063 9.96566 13.3319L12.9153 15.6757C13.879 16.4415 15.3008 15.7552 15.3008 14.5244V4.97059C15.3008 4.15841 14.6424 3.5 13.8302 3.5H9.05078Z"/>
</mask>
<path fill-rule="evenodd" clip-rule="evenodd" d="M9.05078 3.5H4.27137C3.45919 3.5 2.80078 4.15841 2.80078 4.97059V14.5244C2.80078 15.7552 4.22259 16.4415 5.18625 15.6757L8.1359 13.3319C8.67156 12.9063 9.43 12.9063 9.96566 13.3319L12.9153 15.6757C13.879 16.4415 15.3008 15.7552 15.3008 14.5244V4.97059C15.3008 4.15841 14.6424 3.5 13.8302 3.5H9.05078Z" fill="#C7CED4"/>
<path d="M9.96566 13.3319L9.05078 14.4833L9.96566 13.3319ZM4.27137 4.97059H9.05078V2.02941H4.27137V4.97059ZM4.27137 14.5244V4.97059H1.33019V14.5244H4.27137ZM7.22102 12.1805L4.27137 14.5244L6.10113 16.8271L9.05078 14.4833L7.22102 12.1805ZM9.05078 14.4833L12.0004 16.8271L13.8302 14.5244L10.8805 12.1805L9.05078 14.4833ZM16.7714 14.5244V4.97059H13.8302V14.5244H16.7714ZM13.8302 2.02941H9.05078V4.97059H13.8302V2.02941ZM12.0004 16.8271C13.9277 18.3585 16.7714 16.9861 16.7714 14.5244H13.8302H13.8302L12.0004 16.8271ZM9.05078 14.4833L10.8805 12.1805C9.80922 11.3293 8.29234 11.3293 7.22102 12.1805L9.05078 14.4833ZM1.33019 14.5244C1.33019 16.9861 4.17382 18.3585 6.10113 16.8271L4.27137 14.5244L4.27137 14.5244H1.33019ZM16.7714 4.97059C16.7714 3.34622 15.4546 2.02941 13.8302 2.02941V4.97059L13.8302 4.97059H16.7714ZM4.27137 2.02941C2.647 2.02941 1.33019 3.34622 1.33019 4.97059H4.27137V4.97059V2.02941Z" fill="#C7CED4" mask="url(#path-1-inside-1_6590_56140)"/>
</svg>
