<svg width="184" height="131" viewBox="0 0 184 131" fill="none" xmlns="http://www.w3.org/2000/svg">
<path d="M5.76927 66.536C2.47236 65.8575 1.11454 62.7143 0.847752 61.2275L4.20718 59.597C4.99963 62.5 7.18951 63.0547 8.99963 64L5.76927 66.536Z" fill="#4DABF7"/>
<path d="M143.951 127.526C147.651 129.425 151.392 127.448 152.799 126.223L150.826 122.052C148.793 123.752 144.149 123.343 141.674 122.853L143.951 127.526Z" fill="#FFC700"/>
<path d="M175.294 58.1934C176.588 55.2259 179.816 54.5732 181.268 54.6178L182.134 58.1034C180.071 58.081 177.475 60.6162 176.225 62.1316L175.294 58.1934Z" fill="#FF7C51"/>
<path d="M62.0767 58.2237C59.2428 57.6405 58.0756 54.9387 57.8463 53.6606L61.1177 52.1184C60.7677 53.8187 63.7922 55.8689 65.3481 56.6814L62.0767 58.2237Z" fill="#6C47FF"/>
<path d="M118.779 56.4148C120.384 53.9981 124.097 54.4324 125.753 54.9517L126.647 59.028C124.648 57.7003 121.165 59.4502 119.673 60.4911L118.779 56.4148Z" fill="#72B16D"/>
<path d="M164.714 107.514C166.582 109.914 164.757 113.711 163.757 114.21L159.59 112.85C161.538 111.448 161.799 108.671 160.978 106.388L164.714 107.514Z" fill="#6C47FF"/>
<path d="M13.0202 44.286L16.7029 45.5678C14.0914 47.2322 14.1503 50.3898 14.2643 51.9599C14.1704 51.7678 12.3555 51.3373 11.2263 49.6133C10.0972 47.8893 12.0022 45.2445 13.0202 44.286Z" fill="#FFC700"/>
<path d="M86.1274 0.575635L90.9088 0.0923235C88.8566 3.31034 90.5648 6.80774 91.5089 8.5027C91.304 8.33701 89.0523 8.79995 86.8939 7.46097C84.7356 6.12198 85.4885 2.176 86.1274 0.575635Z" fill="#72B16D"/>
<path d="M56.2 13C53 14 53 15.5 53 16.8095L58 21C58.5 19 60.2667 16.7619 62 16L56.2 13Z" fill="#FF7C51"/>
<path d="M147.367 33.4777C147.782 30.8415 148.916 30.6888 149.906 30.5555L153.608 34.0892C152.149 34.6887 150.758 36.0385 150.366 37.4889L147.367 33.4777Z" fill="#4DABF7"/>
<path d="M29.7663 88.2917C29.2695 90.315 26.9143 90.1389 25.5642 90.0756L22.0867 84.5288C24.1929 84.7108 25.9162 83.9495 26.9581 83.0433L29.7663 88.2917Z" fill="#F06595"/>
<path d="M139.696 25.6932C137.642 25.3481 137.642 22.9863 137.605 21.6353L142.878 17.7553C142.853 19.8692 143.741 21.5311 144.722 22.5028L139.696 25.6932Z" fill="#F06595"/>
</svg>
