<svg width="103" height="42" viewBox="0 0 103 42" fill="none" xmlns="http://www.w3.org/2000/svg">
<rect width="103" height="42" rx="21" fill="black"/>
<path d="M35.5 27H26.4M26.4 27H23.5C22.9477 27 22.5 26.5523 22.5 26V23.5142C22.5 23.249 22.6054 22.9946 22.7929 22.8071L30.8929 14.7071C31.2834 14.3166 31.9166 14.3166 32.3071 14.7071L34.7929 17.1929C35.1834 17.5834 35.1834 18.2166 34.7929 18.6071L26.4 27Z" stroke="white" stroke-width="1.7" stroke-linecap="round"/>
<path d="M29 16.5991L32.9 20.4991" stroke="white" stroke-width="1.7"/>
<path d="M56.4983 18.9351V20.0487H44.4869V18.9351H53.2973C53.4182 18.3481 53.4959 17.8128 53.5304 17.3294C53.5684 16.846 53.5891 16.3332 53.5925 15.7911H45.989V14.6827H54.9755V15.5373C54.9755 16.1554 54.9599 16.72 54.9289 17.231C54.8978 17.7386 54.8201 18.3066 54.6958 18.9351H56.4983ZM54.9858 24.6637H47.2942V26.0052H55.3225V27.1084H45.9061V23.5967H53.6081V22.3329H45.8905V21.2296H54.9858V24.6637ZM60.8019 18.9403C60.5602 19.5722 60.2235 20.1367 59.7919 20.634C59.3603 21.1278 58.8458 21.5128 58.2484 21.789L57.5129 20.7376C58.0619 20.4924 58.5315 20.154 58.9217 19.7224C59.3154 19.2907 59.6123 18.816 59.8126 18.298C60.0164 17.78 60.1199 17.269 60.1234 16.7648V15.1385H61.5167V16.7648C61.5132 17.1965 61.5823 17.6402 61.7239 18.096C61.8655 18.5518 62.0795 18.9886 62.3661 19.4064C62.6562 19.8208 63.0136 20.1747 63.4383 20.4682C63.8561 20.1816 64.2066 19.8329 64.4898 19.422C64.7764 19.011 64.9905 18.5777 65.132 18.1219C65.2736 17.6626 65.3461 17.2103 65.3496 16.7648V15.1385H66.7429V16.7648C66.7394 17.3104 66.8344 17.8422 67.0277 18.3602C67.2246 18.8747 67.5198 19.3408 67.9135 19.7586C68.3071 20.1764 68.7871 20.5028 69.3534 20.7376L68.5972 21.789C67.9825 21.5197 67.4594 21.1433 67.0277 20.6599C66.5996 20.1765 66.2681 19.6171 66.0333 18.9817C65.8019 19.6447 65.467 20.2352 65.0284 20.7531C64.5934 21.2676 64.0581 21.6647 63.4228 21.9444C62.784 21.6613 62.2453 21.2573 61.8068 20.7324C61.3682 20.2075 61.0333 19.6102 60.8019 18.9403ZM57.4507 25.5183V24.3788H69.4362V25.5183H57.4507ZM79.9243 27.2431V14.1181H81.3228V27.2431H79.9243ZM77.4226 15.5321C77.4156 17.566 76.927 19.3702 75.9567 20.9448C74.9899 22.5193 73.4291 23.8211 71.2744 24.8501L70.5389 23.7262C72.2585 22.9078 73.5638 21.9116 74.4547 20.7376C75.349 19.5601 75.8652 18.1944 76.0034 16.6405H71.176V15.5321H77.4226Z" fill="white"/>
</svg>
